<?xml version="1.0" encoding="UTF-8" standalone="no"?>
<!DOCTYPE svg PUBLIC "-//W3C//DTD SVG 1.1//EN" "http://www.w3.org/Graphics/SVG/1.1/DTD/svg11.dtd">
<svg xmlns="http://www.w3.org/2000/svg" xmlns:dc="http://purl.org/dc/elements/1.1/" version="1.1" xmlns:xl="http://www.w3.org/1999/xlink" viewBox="1227.2578 258.28008 706.0117 330.0492" width="706.0117" height="330.0492">
  <defs>
    <marker orient="auto" overflow="visible" markerUnits="strokeWidth" id="FilledArrow_Marker" stroke-linejoin="miter" stroke-miterlimit="10" viewBox="-1 -2 5 4" markerWidth="5" markerHeight="4" color="#434c5d">
      <g>
        <path d="M 2.4 0 L 0 -.9 L 0 .9 Z" fill="currentColor" stroke="currentColor" stroke-width="1"/>
      </g>
    </marker>
  </defs>
  <g id="Canvas_1" stroke="none" fill="none" fill-opacity="1" stroke-opacity="1" stroke-dasharray="none">
    <title>Canvas 1</title>
    <rect fill="white" x="1227.2578" y="258.28008" width="706.0117" height="330.0492"/>
    <g id="Canvas_1_Layer_1">
      <title>Layer 1</title>
      <g id="Group_666">
        <g id="Line_524">
          <line x1="1712.7578" y1="565.02734" x2="1680.8578" y2="565.02734" marker-end="url(#FilledArrow_Marker)" stroke="#434c5d" stroke-linecap="round" stroke-linejoin="round" stroke-width="2"/>
        </g>
        <g id="Line_523">
          <line x1="1552.7578" y1="565.02734" x2="1520.8578" y2="565.02734" marker-end="url(#FilledArrow_Marker)" stroke="#434c5d" stroke-linecap="round" stroke-linejoin="round" stroke-width="2"/>
        </g>
        <g id="Line_522">
          <line x1="1392.7578" y1="565.02734" x2="1360.8578" y2="565.02734" marker-end="url(#FilledArrow_Marker)" stroke="#434c5d" stroke-linecap="round" stroke-linejoin="round" stroke-width="2"/>
        </g>
        <g id="Line_521">
          <line x1="1292.7578" y1="547.2254" x2="1292.7578" y2="449.29414" marker-end="url(#FilledArrow_Marker)" stroke="#434c5d" stroke-linecap="round" stroke-linejoin="round" stroke-width="2"/>
        </g>
        <g id="Line_520">
          <line x1="1351.457" y1="392.2421" x2="1525.2581" y2="321.3231" marker-end="url(#FilledArrow_Marker)" stroke="#434c5d" stroke-linecap="round" stroke-linejoin="round" stroke-width="2"/>
        </g>
        <g id="Line_519">
          <line x1="1545.0645" y1="469.20977" x2="1564.8503" y2="447.216" marker-end="url(#FilledArrow_Marker)" stroke="#434c5d" stroke-linecap="round" stroke-linejoin="round" stroke-width="2"/>
        </g>
        <g id="Line_518">
          <line x1="1648.0112" y1="469.20977" x2="1624.6577" y2="446.80213" marker-end="url(#FilledArrow_Marker)" stroke="#434c5d" stroke-linecap="round" stroke-linejoin="round" stroke-width="2"/>
        </g>
        <g id="Line_517">
          <line x1="1839.0601" y1="403.91787" x2="1660.0733" y2="323.8812" marker-end="url(#FilledArrow_Marker)" stroke="#434c5d" stroke-linecap="round" stroke-linejoin="round" stroke-width="2"/>
        </g>
        <g id="Line_516">
          <line x1="1592.7578" y1="391.19414" x2="1592.7578" y2="331.88008" marker-end="url(#FilledArrow_Marker)" stroke="#434c5d" stroke-linecap="round" stroke-linejoin="round" stroke-width="2"/>
        </g>
        <g id="Line_515">
          <line x1="1473.3915" y1="391.19414" x2="1549.7219" y2="328.90145" marker-end="url(#FilledArrow_Marker)" stroke="#434c5d" stroke-linecap="round" stroke-linejoin="round" stroke-width="2"/>
        </g>
        <g id="Graphic_514">
          <path d="M 1536.7578 263.78008 L 1648.7578 263.78008 C 1650.967 263.78008 1652.7578 265.57094 1652.7578 267.78008 L 1652.7578 319.78008 C 1652.7578 321.9892 1650.967 323.78008 1648.7578 323.78008 L 1536.7578 323.78008 C 1534.5487 323.78008 1532.7578 321.9892 1532.7578 319.78008 L 1532.7578 267.78008 C 1532.7578 265.57094 1534.5487 263.78008 1536.7578 263.78008 Z" fill="#ecf0f5"/>
          <path d="M 1536.7578 263.78008 L 1648.7578 263.78008 C 1650.967 263.78008 1652.7578 265.57094 1652.7578 267.78008 L 1652.7578 319.78008 C 1652.7578 321.9892 1650.967 323.78008 1648.7578 323.78008 L 1536.7578 323.78008 C 1534.5487 323.78008 1532.7578 321.9892 1532.7578 319.78008 L 1532.7578 267.78008 C 1532.7578 265.57094 1534.5487 263.78008 1536.7578 263.78008 Z" stroke="#2d3440" stroke-linecap="round" stroke-linejoin="round" stroke-width="1"/>
        </g>
        <g id="Graphic_513">
          <path d="M 1386.7578 391.19414 L 1498.7578 391.19414 C 1500.967 391.19414 1502.7578 392.985 1502.7578 395.19414 L 1502.7578 437.19414 C 1502.7578 439.4033 1500.967 441.19414 1498.7578 441.19414 L 1386.7578 441.19414 C 1384.5487 441.19414 1382.7578 439.4033 1382.7578 437.19414 L 1382.7578 395.19414 C 1382.7578 392.985 1384.5487 391.19414 1386.7578 391.19414 Z" fill="#ecf0f5"/>
          <path d="M 1386.7578 391.19414 L 1498.7578 391.19414 C 1500.967 391.19414 1502.7578 392.985 1502.7578 395.19414 L 1502.7578 437.19414 C 1502.7578 439.4033 1500.967 441.19414 1498.7578 441.19414 L 1386.7578 441.19414 C 1384.5487 441.19414 1382.7578 439.4033 1382.7578 437.19414 L 1382.7578 395.19414 C 1382.7578 392.985 1384.5487 391.19414 1386.7578 391.19414 Z" stroke="#2d3440" stroke-linecap="round" stroke-linejoin="round" stroke-width="1"/>
        </g>
        <g id="Graphic_512">
          <path d="M 1536.7578 391.19414 L 1648.7578 391.19414 C 1650.967 391.19414 1652.7578 392.985 1652.7578 395.19414 L 1652.7578 437.19414 C 1652.7578 439.4033 1650.967 441.19414 1648.7578 441.19414 L 1536.7578 441.19414 C 1534.5487 441.19414 1532.7578 439.4033 1532.7578 437.19414 L 1532.7578 395.19414 C 1532.7578 392.985 1534.5487 391.19414 1536.7578 391.19414 Z" fill="#ecf0f5"/>
          <path d="M 1536.7578 391.19414 L 1648.7578 391.19414 C 1650.967 391.19414 1652.7578 392.985 1652.7578 395.19414 L 1652.7578 437.19414 C 1652.7578 439.4033 1650.967 441.19414 1648.7578 441.19414 L 1536.7578 441.19414 C 1534.5487 441.19414 1532.7578 439.4033 1532.7578 437.19414 L 1532.7578 395.19414 C 1532.7578 392.985 1534.5487 391.19414 1536.7578 391.19414 Z" stroke="#2d3440" stroke-linecap="round" stroke-linejoin="round" stroke-width="1"/>
        </g>
        <g id="Graphic_511"/>
        <g id="Graphic_510">
          <path d="M 1236.7578 391.19414 L 1348.7578 391.19414 C 1350.967 391.19414 1352.7578 392.985 1352.7578 395.19414 L 1352.7578 437.19414 C 1352.7578 439.4033 1350.967 441.19414 1348.7578 441.19414 L 1236.7578 441.19414 C 1234.5487 441.19414 1232.7578 439.4033 1232.7578 437.19414 L 1232.7578 395.19414 C 1232.7578 392.985 1234.5487 391.19414 1236.7578 391.19414 Z" fill="#ecf0f5"/>
          <path d="M 1236.7578 391.19414 L 1348.7578 391.19414 C 1350.967 391.19414 1352.7578 392.985 1352.7578 395.19414 L 1352.7578 437.19414 C 1352.7578 439.4033 1350.967 441.19414 1348.7578 441.19414 L 1236.7578 441.19414 C 1234.5487 441.19414 1232.7578 439.4033 1232.7578 437.19414 L 1232.7578 395.19414 C 1232.7578 392.985 1234.5487 391.19414 1236.7578 391.19414 Z" stroke="#2d3440" stroke-linecap="round" stroke-linejoin="round" stroke-width="1"/>
        </g>
        <g id="Graphic_509">
          <path d="M 1466.5742 469.20977 L 1578.5742 469.20977 C 1580.7834 469.20977 1582.5742 471.0006 1582.5742 473.20977 L 1582.5742 515.20977 C 1582.5742 517.4189 1580.7834 519.20977 1578.5742 519.20977 L 1466.5742 519.20977 C 1464.365 519.20977 1462.5742 517.4189 1462.5742 515.20977 L 1462.5742 473.20977 C 1462.5742 471.0006 1464.365 469.20977 1466.5742 469.20977 Z" fill="#ecf0f5"/>
          <path d="M 1466.5742 469.20977 L 1578.5742 469.20977 C 1580.7834 469.20977 1582.5742 471.0006 1582.5742 473.20977 L 1582.5742 515.20977 C 1582.5742 517.4189 1580.7834 519.20977 1578.5742 519.20977 L 1466.5742 519.20977 C 1464.365 519.20977 1462.5742 517.4189 1462.5742 515.20977 L 1462.5742 473.20977 C 1462.5742 471.0006 1464.365 469.20977 1466.5742 469.20977 Z" stroke="#2d3440" stroke-linecap="round" stroke-linejoin="round" stroke-width="1"/>
        </g>
        <g id="Graphic_508">
          <path d="M 1618.0664 469.20977 L 1730.0664 469.20977 C 1732.2755 469.20977 1734.0664 471.0006 1734.0664 473.20977 L 1734.0664 515.20977 C 1734.0664 517.4189 1732.2755 519.20977 1730.0664 519.20977 L 1618.0664 519.20977 C 1615.8573 519.20977 1614.0664 517.4189 1614.0664 515.20977 L 1614.0664 473.20977 C 1614.0664 471.0006 1615.8573 469.20977 1618.0664 469.20977 Z" fill="#ecf0f5"/>
          <path d="M 1618.0664 469.20977 L 1730.0664 469.20977 C 1732.2755 469.20977 1734.0664 471.0006 1734.0664 473.20977 L 1734.0664 515.20977 C 1734.0664 517.4189 1732.2755 519.20977 1730.0664 519.20977 L 1618.0664 519.20977 C 1615.8573 519.20977 1614.0664 517.4189 1614.0664 515.20977 L 1614.0664 473.20977 C 1614.0664 471.0006 1615.8573 469.20977 1618.0664 469.20977 Z" stroke="#2d3440" stroke-linecap="round" stroke-linejoin="round" stroke-width="1"/>
        </g>
        <g id="Graphic_507">
          <path d="M 1236.7578 547.2254 L 1348.7578 547.2254 C 1350.967 547.2254 1352.7578 549.01625 1352.7578 551.2254 L 1352.7578 578.8293 C 1352.7578 581.03844 1350.967 582.8293 1348.7578 582.8293 L 1236.7578 582.8293 C 1234.5487 582.8293 1232.7578 581.03844 1232.7578 578.8293 L 1232.7578 551.2254 C 1232.7578 549.01625 1234.5487 547.2254 1236.7578 547.2254 Z" fill="#ecf0f5"/>
          <path d="M 1236.7578 547.2254 L 1348.7578 547.2254 C 1350.967 547.2254 1352.7578 549.01625 1352.7578 551.2254 L 1352.7578 578.8293 C 1352.7578 581.03844 1350.967 582.8293 1348.7578 582.8293 L 1236.7578 582.8293 C 1234.5487 582.8293 1232.7578 581.03844 1232.7578 578.8293 L 1232.7578 551.2254 C 1232.7578 549.01625 1234.5487 547.2254 1236.7578 547.2254 Z" stroke="#2d3440" stroke-linecap="round" stroke-linejoin="round" stroke-width="1"/>
        </g>
        <g id="Graphic_506">
          <path d="M 1396.7578 547.2254 L 1508.7578 547.2254 C 1510.967 547.2254 1512.7578 549.01625 1512.7578 551.2254 L 1512.7578 578.8293 C 1512.7578 581.03844 1510.967 582.8293 1508.7578 582.8293 L 1396.7578 582.8293 C 1394.5487 582.8293 1392.7578 581.03844 1392.7578 578.8293 L 1392.7578 551.2254 C 1392.7578 549.01625 1394.5487 547.2254 1396.7578 547.2254 Z" fill="#ecf0f5"/>
          <path d="M 1396.7578 547.2254 L 1508.7578 547.2254 C 1510.967 547.2254 1512.7578 549.01625 1512.7578 551.2254 L 1512.7578 578.8293 C 1512.7578 581.03844 1510.967 582.8293 1508.7578 582.8293 L 1396.7578 582.8293 C 1394.5487 582.8293 1392.7578 581.03844 1392.7578 578.8293 L 1392.7578 551.2254 C 1392.7578 549.01625 1394.5487 547.2254 1396.7578 547.2254 Z" stroke="#2d3440" stroke-linecap="round" stroke-linejoin="round" stroke-width="1"/>
        </g>
        <g id="Graphic_505">
          <path d="M 1556.7578 547.2254 L 1668.7578 547.2254 C 1670.967 547.2254 1672.7578 549.01625 1672.7578 551.2254 L 1672.7578 578.8293 C 1672.7578 581.03844 1670.967 582.8293 1668.7578 582.8293 L 1556.7578 582.8293 C 1554.5487 582.8293 1552.7578 581.03844 1552.7578 578.8293 L 1552.7578 551.2254 C 1552.7578 549.01625 1554.5487 547.2254 1556.7578 547.2254 Z" fill="#ecf0f5"/>
          <path d="M 1556.7578 547.2254 L 1668.7578 547.2254 C 1670.967 547.2254 1672.7578 549.01625 1672.7578 551.2254 L 1672.7578 578.8293 C 1672.7578 581.03844 1670.967 582.8293 1668.7578 582.8293 L 1556.7578 582.8293 C 1554.5487 582.8293 1552.7578 581.03844 1552.7578 578.8293 L 1552.7578 551.2254 C 1552.7578 549.01625 1554.5487 547.2254 1556.7578 547.2254 Z" stroke="#2d3440" stroke-linecap="round" stroke-linejoin="round" stroke-width="1"/>
        </g>
        <g id="Graphic_504">
          <path d="M 1716.7578 547.2254 L 1828.7578 547.2254 C 1830.967 547.2254 1832.7578 549.01625 1832.7578 551.2254 L 1832.7578 578.8293 C 1832.7578 581.03844 1830.967 582.8293 1828.7578 582.8293 L 1716.7578 582.8293 C 1714.5487 582.8293 1712.7578 581.03844 1712.7578 578.8293 L 1712.7578 551.2254 C 1712.7578 549.01625 1714.5487 547.2254 1716.7578 547.2254 Z" fill="#ecf0f5"/>
          <path d="M 1716.7578 547.2254 L 1828.7578 547.2254 C 1830.967 547.2254 1832.7578 549.01625 1832.7578 551.2254 L 1832.7578 578.8293 C 1832.7578 581.03844 1830.967 582.8293 1828.7578 582.8293 L 1716.7578 582.8293 C 1714.5487 582.8293 1712.7578 581.03844 1712.7578 578.8293 L 1712.7578 551.2254 C 1712.7578 549.01625 1714.5487 547.2254 1716.7578 547.2254 Z" stroke="#2d3440" stroke-linecap="round" stroke-linejoin="round" stroke-width="1"/>
        </g>
        <g id="Graphic_503"/>
        <g id="Line_502">
          <line x1="1872.7578" y1="565.02734" x2="1840.8578" y2="565.02734" marker-end="url(#FilledArrow_Marker)" stroke="#434c5d" stroke-linecap="round" stroke-linejoin="round" stroke-width="2"/>
        </g>
        <g id="Graphic_501"/>
        <g id="Line_500">
          <line x1="1395.7142" y1="479.4617" x2="1419.3355" y2="447.69416" marker-end="url(#FilledArrow_Marker)" stroke="#434c5d" stroke-linecap="round" stroke-linejoin="round" stroke-width="2"/>
        </g>
        <g id="Graphic_499">
          <path d="M 1686.7578 391.19414 L 1798.7578 391.19414 C 1800.967 391.19414 1802.7578 392.985 1802.7578 395.19414 L 1802.7578 437.19414 C 1802.7578 439.4033 1800.967 441.19414 1798.7578 441.19414 L 1686.7578 441.19414 C 1684.5487 441.19414 1682.7578 439.4033 1682.7578 437.19414 L 1682.7578 395.19414 C 1682.7578 392.985 1684.5487 391.19414 1686.7578 391.19414 Z" fill="#ecf0f5"/>
          <path d="M 1686.7578 391.19414 L 1798.7578 391.19414 C 1800.967 391.19414 1802.7578 392.985 1802.7578 395.19414 L 1802.7578 437.19414 C 1802.7578 439.4033 1800.967 441.19414 1798.7578 441.19414 L 1686.7578 441.19414 C 1684.5487 441.19414 1682.7578 439.4033 1682.7578 437.19414 L 1682.7578 395.19414 C 1682.7578 392.985 1684.5487 391.19414 1686.7578 391.19414 Z" stroke="#2d3440" stroke-linecap="round" stroke-linejoin="round" stroke-width="1"/>
        </g>
        <g id="Line_498">
          <line x1="1712.124" y1="391.19414" x2="1635.7938" y2="328.90145" marker-end="url(#FilledArrow_Marker)" stroke="#434c5d" stroke-linecap="round" stroke-linejoin="round" stroke-width="2"/>
        </g>
        <g id="Group_534">
          <title/>
          <g id="Graphic_525">
            <rect x="1704.4958" y="409.41414" width="1.554" height="14.28" fill="black"/>
          </g>
          <g id="Graphic_526">
            <path d="M 1715.6258 422.60214 L 1715.9408 423.69414 L 1717.0328 423.69414 L 1717.0328 409.16214 L 1715.5628 409.41414 L 1715.5628 414.87414 L 1715.4998 414.87414 C 1715.0378 414.41214 1714.2608 414.03414 1713.3158 414.03414 C 1710.6698 414.03414 1709.0528 416.36514 1709.0528 419.24214 C 1709.0528 422.26614 1710.5648 423.94614 1712.6648 423.94614 C 1713.6728 423.94614 1714.6388 423.52614 1715.5418 422.60214 Z M 1713.0218 422.68614 C 1711.5938 422.68614 1710.5648 421.48914 1710.5648 419.11614 C 1710.5648 416.89014 1711.5308 415.29414 1713.4208 415.29414 C 1714.2188 415.29414 1715.0378 415.67214 1715.5628 416.34414 L 1715.5628 421.23714 C 1714.8488 422.24514 1713.9038 422.68614 1713.0218 422.68614 Z" fill="black"/>
          </g>
          <g id="Graphic_527">
            <path d="M 1726.6508 419.38914 C 1726.8398 418.84314 1726.9028 418.17114 1726.9028 417.77214 C 1726.9028 415.69314 1725.6008 414.03414 1723.4588 414.03414 C 1721.1068 414.03414 1719.3428 416.17614 1719.3428 419.24214 C 1719.3428 422.53914 1721.2748 423.94614 1723.3958 423.94614 C 1724.6138 423.94614 1725.6848 423.54714 1726.3358 422.91714 L 1726.0628 421.69914 L 1725.9998 421.69914 C 1725.4118 422.28714 1724.4458 422.70714 1723.6268 422.70714 C 1722.0938 422.70714 1720.8548 421.84614 1720.8548 419.38914 Z M 1720.9178 418.29714 C 1721.0018 416.59614 1721.9468 415.25214 1723.4168 415.25214 C 1724.6348 415.25214 1725.6848 416.40714 1725.3908 418.29714 Z" fill="black"/>
          </g>
          <g id="Graphic_528">
            <path d="M 1736.2478 423.00114 C 1735.8068 422.77014 1735.4078 422.24514 1735.4078 421.51014 L 1735.4078 417.05814 C 1735.4078 414.91614 1733.8958 414.03414 1732.3838 414.03414 C 1730.9558 414.03414 1729.8638 414.55914 1729.0238 415.06314 L 1729.5278 416.21814 C 1730.3888 415.60914 1731.2078 415.27314 1732.0268 415.27314 C 1732.9298 415.27314 1734.0218 415.77714 1734.0218 417.37314 L 1734.0218 418.42314 C 1733.4968 418.33914 1732.8668 418.27614 1732.3628 418.27614 C 1729.5908 418.27614 1728.6248 419.80914 1728.6248 421.21614 C 1728.6248 422.93814 1729.8848 423.94614 1731.3968 423.94614 C 1732.4678 423.94614 1733.4548 423.52614 1734.0848 422.66514 L 1734.1898 422.66514 C 1734.3368 423.25314 1734.7778 423.67314 1735.2188 423.96714 L 1736.2478 423.08514 Z M 1734.0218 421.17414 C 1733.6228 422.09814 1732.7408 422.72814 1731.6908 422.72814 C 1730.7668 422.72814 1730.0528 422.20314 1730.0528 421.19514 C 1730.0528 420.08214 1730.8718 419.34714 1732.3418 419.34714 C 1732.9718 419.34714 1733.5598 419.43114 1734.0218 419.51514 Z" fill="black"/>
          </g>
          <g id="Graphic_529">
            <path d="M 1737.2978 427.05414 L 1738.6838 427.05414 L 1746.5378 408.99414 L 1745.1518 408.99414 Z" fill="black"/>
          </g>
          <g id="Graphic_530">
            <path d="M 1749.4778 415.42014 L 1749.3308 414.28614 L 1748.1128 414.28614 L 1748.1128 423.69414 L 1749.5828 423.69414 L 1749.5828 416.78514 C 1750.1918 415.94514 1751.1998 415.37814 1752.1658 415.37814 C 1753.1318 415.37814 1753.9928 415.86114 1753.9928 417.58314 L 1753.9928 423.69414 L 1755.4628 423.69414 L 1755.4628 417.14214 C 1755.4628 414.97914 1754.2448 414.03414 1752.6698 414.03414 C 1751.5148 414.03414 1750.4018 414.58014 1749.5618 415.42014 Z" fill="black"/>
          </g>
          <g id="Graphic_531">
            <path d="M 1766.1728 419.07414 C 1766.1728 416.17614 1764.5138 414.03414 1761.8888 414.03414 C 1759.4948 414.03414 1757.7728 416.15514 1757.7728 419.07414 C 1757.7728 421.93014 1759.5998 423.94614 1761.9728 423.94614 C 1764.3038 423.94614 1766.1728 421.93014 1766.1728 419.07414 Z M 1764.6608 419.05314 C 1764.6608 421.23714 1763.5268 422.72814 1761.9728 422.72814 C 1760.3558 422.72814 1759.2848 421.21614 1759.2848 419.05314 C 1759.2848 416.89014 1760.3138 415.25214 1761.8888 415.25214 C 1763.6108 415.25214 1764.6608 416.84814 1764.6608 419.05314 Z" fill="black"/>
          </g>
          <g id="Graphic_532">
            <path d="M 1769.5328 411.51414 L 1769.5328 414.18114 L 1767.6008 414.53814 L 1767.6008 415.48314 L 1769.5328 415.48314 L 1769.5328 423.69414 L 1771.0028 423.69414 L 1771.0028 415.48314 L 1773.2498 415.48314 L 1773.2498 414.28614 L 1771.0028 414.28614 L 1771.0028 411.01014 Z" fill="black"/>
          </g>
          <g id="Graphic_533">
            <path d="M 1781.8808 419.38914 C 1782.0698 418.84314 1782.1328 418.17114 1782.1328 417.77214 C 1782.1328 415.69314 1780.8308 414.03414 1778.6888 414.03414 C 1776.3368 414.03414 1774.5728 416.17614 1774.5728 419.24214 C 1774.5728 422.53914 1776.5048 423.94614 1778.6258 423.94614 C 1779.8438 423.94614 1780.9148 423.54714 1781.5658 422.91714 L 1781.2928 421.69914 L 1781.2298 421.69914 C 1780.6418 422.28714 1779.6758 422.70714 1778.8568 422.70714 C 1777.3238 422.70714 1776.0848 421.84614 1776.0848 419.38914 Z M 1776.1478 418.29714 C 1776.2318 416.59614 1777.1768 415.25214 1778.6468 415.25214 C 1779.8648 415.25214 1780.9148 416.40714 1780.6208 418.29714 Z" fill="black"/>
          </g>
        </g>
        <g id="Graphic_535">
          <title/>
          <path d="M 1372.032 493.3938 C 1372.032 494.4138 1372.848 495.1958 1373.868 495.1958 C 1374.854 495.1958 1375.704 494.4138 1375.704 493.3938 C 1375.704 492.3738 1374.854 491.5578 1373.868 491.5578 C 1372.848 491.5578 1372.032 492.3738 1372.032 493.3938 Z M 1382.912 493.3938 C 1382.912 494.4138 1383.728 495.1958 1384.748 495.1958 C 1385.734 495.1958 1386.584 494.4138 1386.584 493.3938 C 1386.584 492.3738 1385.734 491.5578 1384.748 491.5578 C 1383.728 491.5578 1382.912 492.3738 1382.912 493.3938 Z M 1393.792 493.3938 C 1393.792 494.4138 1394.608 495.1958 1395.628 495.1958 C 1396.614 495.1958 1397.464 494.4138 1397.464 493.3938 C 1397.464 492.3738 1396.614 491.5578 1395.628 491.5578 C 1394.608 491.5578 1393.792 492.3738 1393.792 493.3938 Z" fill="black"/>
        </g>
        <g id="Graphic_536">
          <title/>
          <path d="M 1886.3017 564.8926 C 1886.3017 566.0326 1887.2137 566.9066 1888.3537 566.9066 C 1889.4557 566.9066 1890.4057 566.0326 1890.4057 564.8926 C 1890.4057 563.7526 1889.4557 562.8406 1888.3537 562.8406 C 1887.2137 562.8406 1886.3017 563.7526 1886.3017 564.8926 Z M 1898.4617 564.8926 C 1898.4617 566.0326 1899.3737 566.9066 1900.5137 566.9066 C 1901.6157 566.9066 1902.5657 566.0326 1902.5657 564.8926 C 1902.5657 563.7526 1901.6157 562.8406 1900.5137 562.8406 C 1899.3737 562.8406 1898.4617 563.7526 1898.4617 564.8926 Z M 1910.6217 564.8926 C 1910.6217 566.0326 1911.5337 566.9066 1912.6737 566.9066 C 1913.7757 566.9066 1914.7257 566.0326 1914.7257 564.8926 C 1914.7257 563.7526 1913.7757 562.8406 1912.6737 562.8406 C 1911.5337 562.8406 1910.6217 563.7526 1910.6217 564.8926 Z" fill="black"/>
        </g>
        <g id="Group_553">
          <title/>
          <g id="Graphic_537">
            <path d="M 1748.8318 551.50734 L 1747.8098 551.50734 L 1747.8098 561.02734 L 1752.9058 561.02734 L 1752.9058 560.08934 L 1748.8318 560.08934 Z" fill="black"/>
          </g>
          <g id="Graphic_538">
            <path d="M 1759.1778 560.56534 C 1758.8838 560.41134 1758.6178 560.06134 1758.6178 559.57134 L 1758.6178 556.60334 C 1758.6178 555.17534 1757.6098 554.58734 1756.6018 554.58734 C 1755.6498 554.58734 1754.9218 554.93734 1754.3618 555.27334 L 1754.6978 556.04334 C 1755.2718 555.63734 1755.8178 555.41334 1756.3638 555.41334 C 1756.9658 555.41334 1757.6938 555.74934 1757.6938 556.81334 L 1757.6938 557.51334 C 1757.3438 557.45734 1756.9238 557.41534 1756.5878 557.41534 C 1754.7398 557.41534 1754.0958 558.43734 1754.0958 559.37534 C 1754.0958 560.52334 1754.9358 561.19534 1755.9438 561.19534 C 1756.6578 561.19534 1757.3158 560.91534 1757.7358 560.34134 L 1757.8058 560.34134 C 1757.9038 560.73334 1758.1978 561.01334 1758.4918 561.20934 L 1759.1778 560.62134 Z M 1757.6938 559.34734 C 1757.4278 559.96334 1756.8398 560.38334 1756.1398 560.38334 C 1755.5238 560.38334 1755.0478 560.03334 1755.0478 559.36134 C 1755.0478 558.61934 1755.5938 558.12934 1756.5738 558.12934 C 1756.9938 558.12934 1757.3858 558.18534 1757.6938 558.24134 Z" fill="black"/>
          </g>
          <g id="Graphic_539">
            <path d="M 1761.4878 555.21734 L 1761.4878 551.33934 L 1760.5078 551.50734 L 1760.5078 560.46734 C 1761.1798 560.99934 1762.1178 561.19534 1762.7898 561.19534 C 1764.5678 561.19534 1765.8278 559.76734 1765.8278 557.69534 C 1765.8278 555.97334 1764.7918 554.58734 1763.2378 554.58734 C 1762.5798 554.58734 1761.9918 554.85334 1761.5578 555.21734 Z M 1761.4878 556.11334 C 1761.8518 555.72134 1762.4958 555.42734 1763.0838 555.42734 C 1764.3158 555.42734 1764.8198 556.51934 1764.8198 557.72334 C 1764.8198 559.51534 1763.9098 560.35534 1762.7758 560.35534 C 1762.2858 560.35534 1761.7958 560.24334 1761.4878 559.96334 Z" fill="black"/>
          </g>
          <g id="Graphic_540">
            <path d="M 1771.3578 555.51134 L 1771.2598 554.75534 L 1770.4478 554.75534 L 1770.4478 561.02734 L 1771.4278 561.02734 L 1771.4278 556.42134 C 1771.8338 555.86134 1772.5058 555.48334 1773.1498 555.48334 C 1773.7938 555.48334 1774.3678 555.80534 1774.3678 556.95334 L 1774.3678 561.02734 L 1775.3478 561.02734 L 1775.3478 556.65934 C 1775.3478 555.21734 1774.5358 554.58734 1773.4858 554.58734 C 1772.7158 554.58734 1771.9738 554.95134 1771.4138 555.51134 Z" fill="black"/>
          </g>
          <g id="Graphic_541">
            <path d="M 1782.4878 557.94734 C 1782.4878 556.01534 1781.3818 554.58734 1779.6318 554.58734 C 1778.0358 554.58734 1776.8878 556.00134 1776.8878 557.94734 C 1776.8878 559.85134 1778.1058 561.19534 1779.6878 561.19534 C 1781.2418 561.19534 1782.4878 559.85134 1782.4878 557.94734 Z M 1781.4798 557.93334 C 1781.4798 559.38934 1780.7238 560.38334 1779.6878 560.38334 C 1778.6098 560.38334 1777.8958 559.37534 1777.8958 557.93334 C 1777.8958 556.49134 1778.5818 555.39934 1779.6318 555.39934 C 1780.7798 555.39934 1781.4798 556.46334 1781.4798 557.93334 Z" fill="black"/>
          </g>
          <g id="Graphic_542">
            <path d="M 1784.7278 552.90734 L 1784.7278 554.68534 L 1783.4398 554.92334 L 1783.4398 555.55334 L 1784.7278 555.55334 L 1784.7278 561.02734 L 1785.7078 561.02734 L 1785.7078 555.55334 L 1787.2058 555.55334 L 1787.2058 554.75534 L 1785.7078 554.75534 L 1785.7078 552.57134 Z" fill="black"/>
          </g>
          <g id="Graphic_543">
            <path d="M 1792.9598 558.15734 C 1793.0858 557.79334 1793.1278 557.34534 1793.1278 557.07934 C 1793.1278 555.69334 1792.2598 554.58734 1790.8318 554.58734 C 1789.2638 554.58734 1788.0878 556.01534 1788.0878 558.05934 C 1788.0878 560.25734 1789.3758 561.19534 1790.7898 561.19534 C 1791.6018 561.19534 1792.3158 560.92934 1792.7498 560.50934 L 1792.5678 559.69734 L 1792.5258 559.69734 C 1792.1338 560.08934 1791.4898 560.36934 1790.9438 560.36934 C 1789.9218 560.36934 1789.0958 559.79534 1789.0958 558.15734 Z M 1789.1378 557.42934 C 1789.1938 556.29534 1789.8238 555.39934 1790.8038 555.39934 C 1791.6158 555.39934 1792.3158 556.16934 1792.1198 557.42934 Z" fill="black"/>
          </g>
          <g id="Graphic_544">
            <path d="M 1798.3778 555.35734 C 1797.8458 554.93734 1797.1178 554.58734 1796.3478 554.58734 C 1795.1298 554.58734 1794.4438 555.37134 1794.4438 556.23934 C 1794.4438 557.10734 1794.9758 557.54134 1796.0118 558.10134 C 1796.8938 558.57734 1797.4958 558.95534 1797.4958 559.52934 C 1797.4958 560.04734 1797.0058 560.35534 1796.3758 560.35534 C 1795.6618 560.35534 1795.1858 560.07534 1794.6398 559.71134 L 1794.2898 560.46734 C 1794.7238 560.84534 1795.5218 561.19534 1796.3898 561.19534 C 1797.4398 561.19534 1798.4338 560.63534 1798.4338 559.50134 C 1798.4338 558.74534 1798.0978 558.21334 1796.9218 557.55534 C 1796.0118 557.05134 1795.3818 556.74334 1795.3818 556.16934 C 1795.3818 555.76334 1795.7178 555.39934 1796.3618 555.39934 C 1796.9218 555.39934 1797.4398 555.65134 1798.0278 556.09934 Z" fill="black"/>
          </g>
          <g id="Graphic_545">
            <path d="M 1748.2578 574.33134 L 1747.0818 574.35934 L 1747.0818 568.50734 L 1745.9338 568.50734 L 1741.7338 574.76534 L 1741.9578 575.22734 L 1746.0878 575.22734 L 1746.0878 578.02734 L 1747.0818 578.02734 L 1747.0818 575.22734 L 1748.2578 575.22734 Z M 1743.1058 574.40134 L 1743.0358 574.27534 L 1745.9338 569.87934 L 1746.0878 569.87934 L 1746.0878 574.37334 Z" fill="black"/>
          </g>
          <g id="Graphic_546">
            <path d="M 1752.0658 577.78934 C 1752.4438 578.02734 1753.0318 578.16734 1753.6198 578.16734 C 1755.2578 578.16734 1756.4058 577.17334 1756.4058 574.93334 L 1756.4058 568.50734 L 1755.3698 568.50734 L 1755.3698 574.69534 C 1755.3698 576.54334 1754.7958 577.22934 1753.5778 577.22934 C 1753.0598 577.22934 1752.6398 577.00534 1752.4018 576.85134 Z" fill="black"/>
          </g>
          <g id="Graphic_547">
            <path d="M 1763.3778 577.56534 C 1763.0838 577.41134 1762.8178 577.06134 1762.8178 576.57134 L 1762.8178 573.60334 C 1762.8178 572.17534 1761.8098 571.58734 1760.8018 571.58734 C 1759.8498 571.58734 1759.1218 571.93734 1758.5618 572.27334 L 1758.8978 573.04334 C 1759.4718 572.63734 1760.0178 572.41334 1760.5638 572.41334 C 1761.1658 572.41334 1761.8938 572.74934 1761.8938 573.81334 L 1761.8938 574.51334 C 1761.5438 574.45734 1761.1238 574.41534 1760.7878 574.41534 C 1758.9398 574.41534 1758.2958 575.43734 1758.2958 576.37534 C 1758.2958 577.52334 1759.1358 578.19534 1760.1438 578.19534 C 1760.8578 578.19534 1761.5158 577.91534 1761.9358 577.34134 L 1762.0058 577.34134 C 1762.1038 577.73334 1762.3978 578.01334 1762.6918 578.20934 L 1763.3778 577.62134 Z M 1761.8938 576.34734 C 1761.6278 576.96334 1761.0398 577.38334 1760.3398 577.38334 C 1759.7238 577.38334 1759.2478 577.03334 1759.2478 576.36134 C 1759.2478 575.61934 1759.7938 575.12934 1760.7738 575.12934 C 1761.1938 575.12934 1761.5858 575.18534 1761.8938 575.24134 Z" fill="black"/>
          </g>
          <g id="Graphic_548">
            <path d="M 1765.7578 572.51134 L 1765.6598 571.75534 L 1764.8478 571.75534 L 1764.8478 578.02734 L 1765.8278 578.02734 L 1765.8278 573.42134 C 1766.2338 572.86134 1766.9058 572.48334 1767.5498 572.48334 C 1768.1938 572.48334 1768.7678 572.80534 1768.7678 573.95334 L 1768.7678 578.02734 L 1769.7478 578.02734 L 1769.7478 573.65934 C 1769.7478 572.21734 1768.9358 571.58734 1767.8858 571.58734 C 1767.1158 571.58734 1766.3738 571.95134 1765.8138 572.51134 Z" fill="black"/>
          </g>
          <g id="Graphic_549">
            <path d="M 1774.9278 570.07534 C 1775.2358 569.86534 1776.2158 569.24934 1777.3498 569.24934 C 1778.5258 569.24934 1779.3098 569.87934 1779.3098 571.09734 C 1779.3098 572.48334 1778.0498 574.33134 1774.1438 577.53734 L 1774.2838 578.02734 L 1780.5138 578.02734 L 1780.5138 577.00534 L 1775.9918 577.08934 L 1775.9358 576.99134 C 1778.7498 574.76534 1780.3738 572.84734 1780.3738 570.92934 C 1780.3738 569.06734 1779.0438 568.32534 1777.4198 568.32534 C 1776.0758 568.32534 1775.0818 568.91334 1774.8438 569.09534 Z" fill="black"/>
          </g>
          <g id="Graphic_550">
            <path d="M 1788.8998 573.16934 C 1788.8998 570.04734 1787.4718 568.32534 1785.4558 568.32534 C 1783.5098 568.32534 1781.9558 570.00534 1781.9558 573.16934 C 1781.9558 576.66934 1783.5098 578.20934 1785.4558 578.20934 C 1787.4718 578.20934 1788.8998 576.54334 1788.8998 573.16934 Z M 1787.8778 573.14134 C 1787.8778 575.74534 1787.0098 577.29934 1785.4698 577.29934 C 1784.1538 577.29934 1782.9778 576.06734 1782.9778 573.14134 C 1782.9778 570.55134 1784.0558 569.24934 1785.3998 569.24934 C 1786.8978 569.24934 1787.8778 570.73334 1787.8778 573.14134 Z" fill="black"/>
          </g>
          <g id="Graphic_551">
            <path d="M 1790.4678 570.07534 C 1790.7758 569.86534 1791.7558 569.24934 1792.8898 569.24934 C 1794.0658 569.24934 1794.8498 569.87934 1794.8498 571.09734 C 1794.8498 572.48334 1793.5898 574.33134 1789.6838 577.53734 L 1789.8238 578.02734 L 1796.0538 578.02734 L 1796.0538 577.00534 L 1791.5318 577.08934 L 1791.4758 576.99134 C 1794.2898 574.76534 1795.9138 572.84734 1795.9138 570.92934 C 1795.9138 569.06734 1794.5838 568.32534 1792.9598 568.32534 C 1791.6158 568.32534 1790.6218 568.91334 1790.3838 569.09534 Z" fill="black"/>
          </g>
          <g id="Graphic_552">
            <path d="M 1797.9018 572.66534 C 1798.2378 572.60934 1798.7278 572.53934 1799.5118 572.53934 C 1801.1778 572.53934 1802.5778 573.25334 1802.5778 574.73734 C 1802.5778 576.26334 1801.2758 577.29934 1799.1198 577.29934 C 1798.7278 577.29934 1798.2238 577.24334 1797.9018 577.15934 C 1797.8318 577.45334 1797.7618 577.76134 1797.7058 578.05534 C 1798.0978 578.18134 1798.5598 578.20934 1799.0638 578.20934 C 1801.7238 578.20934 1803.6418 576.94934 1803.6418 574.69534 C 1803.6418 573.05734 1802.5218 571.68534 1799.8198 571.68534 C 1799.4978 571.68534 1799.1618 571.69934 1798.8538 571.74134 L 1799.1618 569.40334 L 1803.2078 569.51534 L 1803.3478 568.50734 L 1798.3778 568.50734 L 1797.8458 572.62334 Z" fill="black"/>
          </g>
        </g>
        <g id="Group_570">
          <title/>
          <g id="Graphic_554">
            <path d="M 1588.8318 551.50734 L 1587.8098 551.50734 L 1587.8098 561.02734 L 1592.9058 561.02734 L 1592.9058 560.08934 L 1588.8318 560.08934 Z" fill="black"/>
          </g>
          <g id="Graphic_555">
            <path d="M 1599.1778 560.56534 C 1598.8838 560.41134 1598.6178 560.06134 1598.6178 559.57134 L 1598.6178 556.60334 C 1598.6178 555.17534 1597.6098 554.58734 1596.6018 554.58734 C 1595.6498 554.58734 1594.9218 554.93734 1594.3618 555.27334 L 1594.6978 556.04334 C 1595.2718 555.63734 1595.8178 555.41334 1596.3638 555.41334 C 1596.9658 555.41334 1597.6938 555.74934 1597.6938 556.81334 L 1597.6938 557.51334 C 1597.3438 557.45734 1596.9238 557.41534 1596.5878 557.41534 C 1594.7398 557.41534 1594.0958 558.43734 1594.0958 559.37534 C 1594.0958 560.52334 1594.9358 561.19534 1595.9438 561.19534 C 1596.6578 561.19534 1597.3158 560.91534 1597.7358 560.34134 L 1597.8058 560.34134 C 1597.9038 560.73334 1598.1978 561.01334 1598.4918 561.20934 L 1599.1778 560.62134 Z M 1597.6938 559.34734 C 1597.4278 559.96334 1596.8398 560.38334 1596.1398 560.38334 C 1595.5238 560.38334 1595.0478 560.03334 1595.0478 559.36134 C 1595.0478 558.61934 1595.5938 558.12934 1596.5738 558.12934 C 1596.9938 558.12934 1597.3858 558.18534 1597.6938 558.24134 Z" fill="black"/>
          </g>
          <g id="Graphic_556">
            <path d="M 1601.4878 555.21734 L 1601.4878 551.33934 L 1600.5078 551.50734 L 1600.5078 560.46734 C 1601.1798 560.99934 1602.1178 561.19534 1602.7898 561.19534 C 1604.5678 561.19534 1605.8278 559.76734 1605.8278 557.69534 C 1605.8278 555.97334 1604.7918 554.58734 1603.2378 554.58734 C 1602.5798 554.58734 1601.9918 554.85334 1601.5578 555.21734 Z M 1601.4878 556.11334 C 1601.8518 555.72134 1602.4958 555.42734 1603.0838 555.42734 C 1604.3158 555.42734 1604.8198 556.51934 1604.8198 557.72334 C 1604.8198 559.51534 1603.9098 560.35534 1602.7758 560.35534 C 1602.2858 560.35534 1601.7958 560.24334 1601.4878 559.96334 Z" fill="black"/>
          </g>
          <g id="Graphic_557">
            <path d="M 1611.3578 555.51134 L 1611.2598 554.75534 L 1610.4478 554.75534 L 1610.4478 561.02734 L 1611.4278 561.02734 L 1611.4278 556.42134 C 1611.8338 555.86134 1612.5058 555.48334 1613.1498 555.48334 C 1613.7938 555.48334 1614.3678 555.80534 1614.3678 556.95334 L 1614.3678 561.02734 L 1615.3478 561.02734 L 1615.3478 556.65934 C 1615.3478 555.21734 1614.5358 554.58734 1613.4858 554.58734 C 1612.7158 554.58734 1611.9738 554.95134 1611.4138 555.51134 Z" fill="black"/>
          </g>
          <g id="Graphic_558">
            <path d="M 1622.4878 557.94734 C 1622.4878 556.01534 1621.3818 554.58734 1619.6318 554.58734 C 1618.0358 554.58734 1616.8878 556.00134 1616.8878 557.94734 C 1616.8878 559.85134 1618.1058 561.19534 1619.6878 561.19534 C 1621.2418 561.19534 1622.4878 559.85134 1622.4878 557.94734 Z M 1621.4798 557.93334 C 1621.4798 559.38934 1620.7238 560.38334 1619.6878 560.38334 C 1618.6098 560.38334 1617.8958 559.37534 1617.8958 557.93334 C 1617.8958 556.49134 1618.5818 555.39934 1619.6318 555.39934 C 1620.7798 555.39934 1621.4798 556.46334 1621.4798 557.93334 Z" fill="black"/>
          </g>
          <g id="Graphic_559">
            <path d="M 1624.7278 552.90734 L 1624.7278 554.68534 L 1623.4398 554.92334 L 1623.4398 555.55334 L 1624.7278 555.55334 L 1624.7278 561.02734 L 1625.7078 561.02734 L 1625.7078 555.55334 L 1627.2058 555.55334 L 1627.2058 554.75534 L 1625.7078 554.75534 L 1625.7078 552.57134 Z" fill="black"/>
          </g>
          <g id="Graphic_560">
            <path d="M 1632.9598 558.15734 C 1633.0858 557.79334 1633.1278 557.34534 1633.1278 557.07934 C 1633.1278 555.69334 1632.2598 554.58734 1630.8318 554.58734 C 1629.2638 554.58734 1628.0878 556.01534 1628.0878 558.05934 C 1628.0878 560.25734 1629.3758 561.19534 1630.7898 561.19534 C 1631.6018 561.19534 1632.3158 560.92934 1632.7498 560.50934 L 1632.5678 559.69734 L 1632.5258 559.69734 C 1632.1338 560.08934 1631.4898 560.36934 1630.9438 560.36934 C 1629.9218 560.36934 1629.0958 559.79534 1629.0958 558.15734 Z M 1629.1378 557.42934 C 1629.1938 556.29534 1629.8238 555.39934 1630.8038 555.39934 C 1631.6158 555.39934 1632.3158 556.16934 1632.1198 557.42934 Z" fill="black"/>
          </g>
          <g id="Graphic_561">
            <path d="M 1638.3778 555.35734 C 1637.8458 554.93734 1637.1178 554.58734 1636.3478 554.58734 C 1635.1298 554.58734 1634.4438 555.37134 1634.4438 556.23934 C 1634.4438 557.10734 1634.9758 557.54134 1636.0118 558.10134 C 1636.8938 558.57734 1637.4958 558.95534 1637.4958 559.52934 C 1637.4958 560.04734 1637.0058 560.35534 1636.3758 560.35534 C 1635.6618 560.35534 1635.1858 560.07534 1634.6398 559.71134 L 1634.2898 560.46734 C 1634.7238 560.84534 1635.5218 561.19534 1636.3898 561.19534 C 1637.4398 561.19534 1638.4338 560.63534 1638.4338 559.50134 C 1638.4338 558.74534 1638.0978 558.21334 1636.9218 557.55534 C 1636.0118 557.05134 1635.3818 556.74334 1635.3818 556.16934 C 1635.3818 555.76334 1635.7178 555.39934 1636.3618 555.39934 C 1636.9218 555.39934 1637.4398 555.65134 1638.0278 556.09934 Z" fill="black"/>
          </g>
          <g id="Graphic_562">
            <path d="M 1581.9298 576.68334 L 1581.9718 577.66334 C 1582.6438 578.01334 1583.4138 578.20934 1584.3938 578.20934 C 1585.8498 578.20934 1587.8238 577.53734 1587.8238 575.35334 C 1587.8238 574.37334 1587.1798 573.33734 1585.9898 573.08534 L 1585.9898 573.00134 C 1586.9978 572.74934 1587.6558 571.89534 1587.6558 570.78934 C 1587.6558 569.22134 1586.3958 568.32534 1584.6038 568.32534 C 1583.7078 568.32534 1582.9378 568.61934 1582.5318 568.81534 L 1582.4198 569.75334 L 1582.4758 569.76734 C 1583.2178 569.40334 1583.8758 569.22134 1584.5758 569.22134 C 1585.7938 569.22134 1586.6058 569.87934 1586.6058 570.92934 C 1586.6058 571.93734 1585.7378 572.70734 1584.6878 572.67934 L 1583.0778 572.63734 L 1582.9658 573.63134 L 1584.7718 573.57534 C 1585.9478 573.53334 1586.7738 574.31734 1586.7738 575.29734 C 1586.7738 576.58534 1585.7378 577.29934 1584.4358 577.29934 C 1583.5678 577.29934 1582.7978 577.08934 1581.9578 576.65534 Z" fill="black"/>
          </g>
          <g id="Graphic_563">
            <path d="M 1591.8558 577.78934 C 1592.2338 578.02734 1592.8218 578.16734 1593.4098 578.16734 C 1595.0478 578.16734 1596.1958 577.17334 1596.1958 574.93334 L 1596.1958 568.50734 L 1595.1598 568.50734 L 1595.1598 574.69534 C 1595.1598 576.54334 1594.5858 577.22934 1593.3678 577.22934 C 1592.8498 577.22934 1592.4298 577.00534 1592.1918 576.85134 Z" fill="black"/>
          </g>
          <g id="Graphic_564">
            <path d="M 1603.1678 577.56534 C 1602.8738 577.41134 1602.6078 577.06134 1602.6078 576.57134 L 1602.6078 573.60334 C 1602.6078 572.17534 1601.5998 571.58734 1600.5918 571.58734 C 1599.6398 571.58734 1598.9118 571.93734 1598.3518 572.27334 L 1598.6878 573.04334 C 1599.2618 572.63734 1599.8078 572.41334 1600.3538 572.41334 C 1600.9558 572.41334 1601.6838 572.74934 1601.6838 573.81334 L 1601.6838 574.51334 C 1601.3338 574.45734 1600.9138 574.41534 1600.5778 574.41534 C 1598.7298 574.41534 1598.0858 575.43734 1598.0858 576.37534 C 1598.0858 577.52334 1598.9258 578.19534 1599.9338 578.19534 C 1600.6478 578.19534 1601.3058 577.91534 1601.7258 577.34134 L 1601.7958 577.34134 C 1601.8938 577.73334 1602.1878 578.01334 1602.4818 578.20934 L 1603.1678 577.62134 Z M 1601.6838 576.34734 C 1601.4178 576.96334 1600.8298 577.38334 1600.1298 577.38334 C 1599.5138 577.38334 1599.0378 577.03334 1599.0378 576.36134 C 1599.0378 575.61934 1599.5838 575.12934 1600.5638 575.12934 C 1600.9838 575.12934 1601.3758 575.18534 1601.6838 575.24134 Z" fill="black"/>
          </g>
          <g id="Graphic_565">
            <path d="M 1605.5478 572.51134 L 1605.4498 571.75534 L 1604.6378 571.75534 L 1604.6378 578.02734 L 1605.6178 578.02734 L 1605.6178 573.42134 C 1606.0238 572.86134 1606.6958 572.48334 1607.3398 572.48334 C 1607.9838 572.48334 1608.5578 572.80534 1608.5578 573.95334 L 1608.5578 578.02734 L 1609.5378 578.02734 L 1609.5378 573.65934 C 1609.5378 572.21734 1608.7258 571.58734 1607.6758 571.58734 C 1606.9058 571.58734 1606.1638 571.95134 1605.6038 572.51134 Z" fill="black"/>
          </g>
          <g id="Graphic_566">
            <path d="M 1614.7178 570.07534 C 1615.0258 569.86534 1616.0058 569.24934 1617.1398 569.24934 C 1618.3158 569.24934 1619.0998 569.87934 1619.0998 571.09734 C 1619.0998 572.48334 1617.8398 574.33134 1613.9338 577.53734 L 1614.0738 578.02734 L 1620.3038 578.02734 L 1620.3038 577.00534 L 1615.7818 577.08934 L 1615.7258 576.99134 C 1618.5398 574.76534 1620.1638 572.84734 1620.1638 570.92934 C 1620.1638 569.06734 1618.8338 568.32534 1617.2098 568.32534 C 1615.8658 568.32534 1614.8718 568.91334 1614.6338 569.09534 Z" fill="black"/>
          </g>
          <g id="Graphic_567">
            <path d="M 1628.6898 573.16934 C 1628.6898 570.04734 1627.2618 568.32534 1625.2458 568.32534 C 1623.2998 568.32534 1621.7458 570.00534 1621.7458 573.16934 C 1621.7458 576.66934 1623.2998 578.20934 1625.2458 578.20934 C 1627.2618 578.20934 1628.6898 576.54334 1628.6898 573.16934 Z M 1627.6678 573.14134 C 1627.6678 575.74534 1626.7998 577.29934 1625.2598 577.29934 C 1623.9438 577.29934 1622.7678 576.06734 1622.7678 573.14134 C 1622.7678 570.55134 1623.8458 569.24934 1625.1898 569.24934 C 1626.6878 569.24934 1627.6678 570.73334 1627.6678 573.14134 Z" fill="black"/>
          </g>
          <g id="Graphic_568">
            <path d="M 1630.2578 570.07534 C 1630.5658 569.86534 1631.5458 569.24934 1632.6798 569.24934 C 1633.8558 569.24934 1634.6398 569.87934 1634.6398 571.09734 C 1634.6398 572.48334 1633.3798 574.33134 1629.4738 577.53734 L 1629.6138 578.02734 L 1635.8438 578.02734 L 1635.8438 577.00534 L 1631.3218 577.08934 L 1631.2658 576.99134 C 1634.0798 574.76534 1635.7038 572.84734 1635.7038 570.92934 C 1635.7038 569.06734 1634.3738 568.32534 1632.7498 568.32534 C 1631.4058 568.32534 1630.4118 568.91334 1630.1738 569.09534 Z" fill="black"/>
          </g>
          <g id="Graphic_569">
            <path d="M 1637.6918 572.66534 C 1638.0278 572.60934 1638.5178 572.53934 1639.3018 572.53934 C 1640.9678 572.53934 1642.3678 573.25334 1642.3678 574.73734 C 1642.3678 576.26334 1641.0658 577.29934 1638.9098 577.29934 C 1638.5178 577.29934 1638.0138 577.24334 1637.6918 577.15934 C 1637.6218 577.45334 1637.5518 577.76134 1637.4958 578.05534 C 1637.8878 578.18134 1638.3498 578.20934 1638.8538 578.20934 C 1641.5138 578.20934 1643.4318 576.94934 1643.4318 574.69534 C 1643.4318 573.05734 1642.3118 571.68534 1639.6098 571.68534 C 1639.2878 571.68534 1638.9518 571.69934 1638.6438 571.74134 L 1638.9518 569.40334 L 1642.9978 569.51534 L 1643.1378 568.50734 L 1638.1678 568.50734 L 1637.6358 572.62334 Z" fill="black"/>
          </g>
        </g>
        <g id="Group_587">
          <title/>
          <g id="Graphic_571">
            <path d="M 1428.8318 551.50734 L 1427.8098 551.50734 L 1427.8098 561.02734 L 1432.9058 561.02734 L 1432.9058 560.08934 L 1428.8318 560.08934 Z" fill="black"/>
          </g>
          <g id="Graphic_572">
            <path d="M 1439.1778 560.56534 C 1438.8838 560.41134 1438.6178 560.06134 1438.6178 559.57134 L 1438.6178 556.60334 C 1438.6178 555.17534 1437.6098 554.58734 1436.6018 554.58734 C 1435.6498 554.58734 1434.9218 554.93734 1434.3618 555.27334 L 1434.6978 556.04334 C 1435.2718 555.63734 1435.8178 555.41334 1436.3638 555.41334 C 1436.9658 555.41334 1437.6938 555.74934 1437.6938 556.81334 L 1437.6938 557.51334 C 1437.3438 557.45734 1436.9238 557.41534 1436.5878 557.41534 C 1434.7398 557.41534 1434.0958 558.43734 1434.0958 559.37534 C 1434.0958 560.52334 1434.9358 561.19534 1435.9438 561.19534 C 1436.6578 561.19534 1437.3158 560.91534 1437.7358 560.34134 L 1437.8058 560.34134 C 1437.9038 560.73334 1438.1978 561.01334 1438.4918 561.20934 L 1439.1778 560.62134 Z M 1437.6938 559.34734 C 1437.4278 559.96334 1436.8398 560.38334 1436.1398 560.38334 C 1435.5238 560.38334 1435.0478 560.03334 1435.0478 559.36134 C 1435.0478 558.61934 1435.5938 558.12934 1436.5738 558.12934 C 1436.9938 558.12934 1437.3858 558.18534 1437.6938 558.24134 Z" fill="black"/>
          </g>
          <g id="Graphic_573">
            <path d="M 1441.4878 555.21734 L 1441.4878 551.33934 L 1440.5078 551.50734 L 1440.5078 560.46734 C 1441.1798 560.99934 1442.1178 561.19534 1442.7898 561.19534 C 1444.5678 561.19534 1445.8278 559.76734 1445.8278 557.69534 C 1445.8278 555.97334 1444.7918 554.58734 1443.2378 554.58734 C 1442.5798 554.58734 1441.9918 554.85334 1441.5578 555.21734 Z M 1441.4878 556.11334 C 1441.8518 555.72134 1442.4958 555.42734 1443.0838 555.42734 C 1444.3158 555.42734 1444.8198 556.51934 1444.8198 557.72334 C 1444.8198 559.51534 1443.9098 560.35534 1442.7758 560.35534 C 1442.2858 560.35534 1441.7958 560.24334 1441.4878 559.96334 Z" fill="black"/>
          </g>
          <g id="Graphic_574">
            <path d="M 1451.3578 555.51134 L 1451.2598 554.75534 L 1450.4478 554.75534 L 1450.4478 561.02734 L 1451.4278 561.02734 L 1451.4278 556.42134 C 1451.8338 555.86134 1452.5058 555.48334 1453.1498 555.48334 C 1453.7938 555.48334 1454.3678 555.80534 1454.3678 556.95334 L 1454.3678 561.02734 L 1455.3478 561.02734 L 1455.3478 556.65934 C 1455.3478 555.21734 1454.5358 554.58734 1453.4858 554.58734 C 1452.7158 554.58734 1451.9738 554.95134 1451.4138 555.51134 Z" fill="black"/>
          </g>
          <g id="Graphic_575">
            <path d="M 1462.4878 557.94734 C 1462.4878 556.01534 1461.3818 554.58734 1459.6318 554.58734 C 1458.0358 554.58734 1456.8878 556.00134 1456.8878 557.94734 C 1456.8878 559.85134 1458.1058 561.19534 1459.6878 561.19534 C 1461.2418 561.19534 1462.4878 559.85134 1462.4878 557.94734 Z M 1461.4798 557.93334 C 1461.4798 559.38934 1460.7238 560.38334 1459.6878 560.38334 C 1458.6098 560.38334 1457.8958 559.37534 1457.8958 557.93334 C 1457.8958 556.49134 1458.5818 555.39934 1459.6318 555.39934 C 1460.7798 555.39934 1461.4798 556.46334 1461.4798 557.93334 Z" fill="black"/>
          </g>
          <g id="Graphic_576">
            <path d="M 1464.7278 552.90734 L 1464.7278 554.68534 L 1463.4398 554.92334 L 1463.4398 555.55334 L 1464.7278 555.55334 L 1464.7278 561.02734 L 1465.7078 561.02734 L 1465.7078 555.55334 L 1467.2058 555.55334 L 1467.2058 554.75534 L 1465.7078 554.75534 L 1465.7078 552.57134 Z" fill="black"/>
          </g>
          <g id="Graphic_577">
            <path d="M 1472.9598 558.15734 C 1473.0858 557.79334 1473.1278 557.34534 1473.1278 557.07934 C 1473.1278 555.69334 1472.2598 554.58734 1470.8318 554.58734 C 1469.2638 554.58734 1468.0878 556.01534 1468.0878 558.05934 C 1468.0878 560.25734 1469.3758 561.19534 1470.7898 561.19534 C 1471.6018 561.19534 1472.3158 560.92934 1472.7498 560.50934 L 1472.5678 559.69734 L 1472.5258 559.69734 C 1472.1338 560.08934 1471.4898 560.36934 1470.9438 560.36934 C 1469.9218 560.36934 1469.0958 559.79534 1469.0958 558.15734 Z M 1469.1378 557.42934 C 1469.1938 556.29534 1469.8238 555.39934 1470.8038 555.39934 C 1471.6158 555.39934 1472.3158 556.16934 1472.1198 557.42934 Z" fill="black"/>
          </g>
          <g id="Graphic_578">
            <path d="M 1478.3778 555.35734 C 1477.8458 554.93734 1477.1178 554.58734 1476.3478 554.58734 C 1475.1298 554.58734 1474.4438 555.37134 1474.4438 556.23934 C 1474.4438 557.10734 1474.9758 557.54134 1476.0118 558.10134 C 1476.8938 558.57734 1477.4958 558.95534 1477.4958 559.52934 C 1477.4958 560.04734 1477.0058 560.35534 1476.3758 560.35534 C 1475.6618 560.35534 1475.1858 560.07534 1474.6398 559.71134 L 1474.2898 560.46734 C 1474.7238 560.84534 1475.5218 561.19534 1476.3898 561.19534 C 1477.4398 561.19534 1478.4338 560.63534 1478.4338 559.50134 C 1478.4338 558.74534 1478.0978 558.21334 1476.9218 557.55534 C 1476.0118 557.05134 1475.3818 556.74334 1475.3818 556.16934 C 1475.3818 555.76334 1475.7178 555.39934 1476.3618 555.39934 C 1476.9218 555.39934 1477.4398 555.65134 1478.0278 556.09934 Z" fill="black"/>
          </g>
          <g id="Graphic_579">
            <path d="M 1422.3778 570.07534 C 1422.6858 569.86534 1423.6658 569.24934 1424.7998 569.24934 C 1425.9758 569.24934 1426.7598 569.87934 1426.7598 571.09734 C 1426.7598 572.48334 1425.4998 574.33134 1421.5938 577.53734 L 1421.7338 578.02734 L 1427.9638 578.02734 L 1427.9638 577.00534 L 1423.4418 577.08934 L 1423.3858 576.99134 C 1426.1998 574.76534 1427.8238 572.84734 1427.8238 570.92934 C 1427.8238 569.06734 1426.4938 568.32534 1424.8698 568.32534 C 1423.5258 568.32534 1422.5318 568.91334 1422.2938 569.09534 Z" fill="black"/>
          </g>
          <g id="Graphic_580">
            <path d="M 1431.9958 577.78934 C 1432.3738 578.02734 1432.9618 578.16734 1433.5498 578.16734 C 1435.1878 578.16734 1436.3358 577.17334 1436.3358 574.93334 L 1436.3358 568.50734 L 1435.2998 568.50734 L 1435.2998 574.69534 C 1435.2998 576.54334 1434.7258 577.22934 1433.5078 577.22934 C 1432.9898 577.22934 1432.5698 577.00534 1432.3318 576.85134 Z" fill="black"/>
          </g>
          <g id="Graphic_581">
            <path d="M 1443.3078 577.56534 C 1443.0138 577.41134 1442.7478 577.06134 1442.7478 576.57134 L 1442.7478 573.60334 C 1442.7478 572.17534 1441.7398 571.58734 1440.7318 571.58734 C 1439.7798 571.58734 1439.0518 571.93734 1438.4918 572.27334 L 1438.8278 573.04334 C 1439.4018 572.63734 1439.9478 572.41334 1440.4938 572.41334 C 1441.0958 572.41334 1441.8238 572.74934 1441.8238 573.81334 L 1441.8238 574.51334 C 1441.4738 574.45734 1441.0538 574.41534 1440.7178 574.41534 C 1438.8698 574.41534 1438.2258 575.43734 1438.2258 576.37534 C 1438.2258 577.52334 1439.0658 578.19534 1440.0738 578.19534 C 1440.7878 578.19534 1441.4458 577.91534 1441.8658 577.34134 L 1441.9358 577.34134 C 1442.0338 577.73334 1442.3278 578.01334 1442.6218 578.20934 L 1443.3078 577.62134 Z M 1441.8238 576.34734 C 1441.5578 576.96334 1440.9698 577.38334 1440.2698 577.38334 C 1439.6538 577.38334 1439.1778 577.03334 1439.1778 576.36134 C 1439.1778 575.61934 1439.7238 575.12934 1440.7038 575.12934 C 1441.1238 575.12934 1441.5158 575.18534 1441.8238 575.24134 Z" fill="black"/>
          </g>
          <g id="Graphic_582">
            <path d="M 1445.6878 572.51134 L 1445.5898 571.75534 L 1444.7778 571.75534 L 1444.7778 578.02734 L 1445.7578 578.02734 L 1445.7578 573.42134 C 1446.1638 572.86134 1446.8358 572.48334 1447.4798 572.48334 C 1448.1238 572.48334 1448.6978 572.80534 1448.6978 573.95334 L 1448.6978 578.02734 L 1449.6778 578.02734 L 1449.6778 573.65934 C 1449.6778 572.21734 1448.8658 571.58734 1447.8158 571.58734 C 1447.0458 571.58734 1446.3038 571.95134 1445.7438 572.51134 Z" fill="black"/>
          </g>
          <g id="Graphic_583">
            <path d="M 1454.8578 570.07534 C 1455.1658 569.86534 1456.1458 569.24934 1457.2798 569.24934 C 1458.4558 569.24934 1459.2398 569.87934 1459.2398 571.09734 C 1459.2398 572.48334 1457.9798 574.33134 1454.0738 577.53734 L 1454.2138 578.02734 L 1460.4438 578.02734 L 1460.4438 577.00534 L 1455.9218 577.08934 L 1455.8658 576.99134 C 1458.6798 574.76534 1460.3038 572.84734 1460.3038 570.92934 C 1460.3038 569.06734 1458.9738 568.32534 1457.3498 568.32534 C 1456.0058 568.32534 1455.0118 568.91334 1454.7738 569.09534 Z" fill="black"/>
          </g>
          <g id="Graphic_584">
            <path d="M 1468.8298 573.16934 C 1468.8298 570.04734 1467.4018 568.32534 1465.3858 568.32534 C 1463.4398 568.32534 1461.8858 570.00534 1461.8858 573.16934 C 1461.8858 576.66934 1463.4398 578.20934 1465.3858 578.20934 C 1467.4018 578.20934 1468.8298 576.54334 1468.8298 573.16934 Z M 1467.8078 573.14134 C 1467.8078 575.74534 1466.9398 577.29934 1465.3998 577.29934 C 1464.0838 577.29934 1462.9078 576.06734 1462.9078 573.14134 C 1462.9078 570.55134 1463.9858 569.24934 1465.3298 569.24934 C 1466.8278 569.24934 1467.8078 570.73334 1467.8078 573.14134 Z" fill="black"/>
          </g>
          <g id="Graphic_585">
            <path d="M 1470.3978 570.07534 C 1470.7058 569.86534 1471.6858 569.24934 1472.8198 569.24934 C 1473.9958 569.24934 1474.7798 569.87934 1474.7798 571.09734 C 1474.7798 572.48334 1473.5198 574.33134 1469.6138 577.53734 L 1469.7538 578.02734 L 1475.9838 578.02734 L 1475.9838 577.00534 L 1471.4618 577.08934 L 1471.4058 576.99134 C 1474.2198 574.76534 1475.8438 572.84734 1475.8438 570.92934 C 1475.8438 569.06734 1474.5138 568.32534 1472.8898 568.32534 C 1471.5458 568.32534 1470.5518 568.91334 1470.3138 569.09534 Z" fill="black"/>
          </g>
          <g id="Graphic_586">
            <path d="M 1477.8318 572.66534 C 1478.1678 572.60934 1478.6578 572.53934 1479.4418 572.53934 C 1481.1078 572.53934 1482.5078 573.25334 1482.5078 574.73734 C 1482.5078 576.26334 1481.2058 577.29934 1479.0498 577.29934 C 1478.6578 577.29934 1478.1538 577.24334 1477.8318 577.15934 C 1477.7618 577.45334 1477.6918 577.76134 1477.6358 578.05534 C 1478.0278 578.18134 1478.4898 578.20934 1478.9938 578.20934 C 1481.6538 578.20934 1483.5718 576.94934 1483.5718 574.69534 C 1483.5718 573.05734 1482.4518 571.68534 1479.7498 571.68534 C 1479.4278 571.68534 1479.0918 571.69934 1478.7838 571.74134 L 1479.0918 569.40334 L 1483.1378 569.51534 L 1483.2778 568.50734 L 1478.3078 568.50734 L 1477.7758 572.62334 Z" fill="black"/>
          </g>
        </g>
        <g id="Group_604">
          <title/>
          <g id="Graphic_588">
            <path d="M 1268.8318 551.50734 L 1267.8098 551.50734 L 1267.8098 561.02734 L 1272.9058 561.02734 L 1272.9058 560.08934 L 1268.8318 560.08934 Z" fill="black"/>
          </g>
          <g id="Graphic_589">
            <path d="M 1279.1778 560.56534 C 1278.8838 560.41134 1278.6178 560.06134 1278.6178 559.57134 L 1278.6178 556.60334 C 1278.6178 555.17534 1277.6098 554.58734 1276.6018 554.58734 C 1275.6498 554.58734 1274.9218 554.93734 1274.3618 555.27334 L 1274.6978 556.04334 C 1275.2718 555.63734 1275.8178 555.41334 1276.3638 555.41334 C 1276.9658 555.41334 1277.6938 555.74934 1277.6938 556.81334 L 1277.6938 557.51334 C 1277.3438 557.45734 1276.9238 557.41534 1276.5878 557.41534 C 1274.7398 557.41534 1274.0958 558.43734 1274.0958 559.37534 C 1274.0958 560.52334 1274.9358 561.19534 1275.9438 561.19534 C 1276.6578 561.19534 1277.3158 560.91534 1277.7358 560.34134 L 1277.8058 560.34134 C 1277.9038 560.73334 1278.1978 561.01334 1278.4918 561.20934 L 1279.1778 560.62134 Z M 1277.6938 559.34734 C 1277.4278 559.96334 1276.8398 560.38334 1276.1398 560.38334 C 1275.5238 560.38334 1275.0478 560.03334 1275.0478 559.36134 C 1275.0478 558.61934 1275.5938 558.12934 1276.5738 558.12934 C 1276.9938 558.12934 1277.3858 558.18534 1277.6938 558.24134 Z" fill="black"/>
          </g>
          <g id="Graphic_590">
            <path d="M 1281.4878 555.21734 L 1281.4878 551.33934 L 1280.5078 551.50734 L 1280.5078 560.46734 C 1281.1798 560.99934 1282.1178 561.19534 1282.7898 561.19534 C 1284.5678 561.19534 1285.8278 559.76734 1285.8278 557.69534 C 1285.8278 555.97334 1284.7918 554.58734 1283.2378 554.58734 C 1282.5798 554.58734 1281.9918 554.85334 1281.5578 555.21734 Z M 1281.4878 556.11334 C 1281.8518 555.72134 1282.4958 555.42734 1283.0838 555.42734 C 1284.3158 555.42734 1284.8198 556.51934 1284.8198 557.72334 C 1284.8198 559.51534 1283.9098 560.35534 1282.7758 560.35534 C 1282.2858 560.35534 1281.7958 560.24334 1281.4878 559.96334 Z" fill="black"/>
          </g>
          <g id="Graphic_591">
            <path d="M 1291.3578 555.51134 L 1291.2598 554.75534 L 1290.4478 554.75534 L 1290.4478 561.02734 L 1291.4278 561.02734 L 1291.4278 556.42134 C 1291.8338 555.86134 1292.5058 555.48334 1293.1498 555.48334 C 1293.7938 555.48334 1294.3678 555.80534 1294.3678 556.95334 L 1294.3678 561.02734 L 1295.3478 561.02734 L 1295.3478 556.65934 C 1295.3478 555.21734 1294.5358 554.58734 1293.4858 554.58734 C 1292.7158 554.58734 1291.9738 554.95134 1291.4138 555.51134 Z" fill="black"/>
          </g>
          <g id="Graphic_592">
            <path d="M 1302.4878 557.94734 C 1302.4878 556.01534 1301.3818 554.58734 1299.6318 554.58734 C 1298.0358 554.58734 1296.8878 556.00134 1296.8878 557.94734 C 1296.8878 559.85134 1298.1058 561.19534 1299.6878 561.19534 C 1301.2418 561.19534 1302.4878 559.85134 1302.4878 557.94734 Z M 1301.4798 557.93334 C 1301.4798 559.38934 1300.7238 560.38334 1299.6878 560.38334 C 1298.6098 560.38334 1297.8958 559.37534 1297.8958 557.93334 C 1297.8958 556.49134 1298.5818 555.39934 1299.6318 555.39934 C 1300.7798 555.39934 1301.4798 556.46334 1301.4798 557.93334 Z" fill="black"/>
          </g>
          <g id="Graphic_593">
            <path d="M 1304.7278 552.90734 L 1304.7278 554.68534 L 1303.4398 554.92334 L 1303.4398 555.55334 L 1304.7278 555.55334 L 1304.7278 561.02734 L 1305.7078 561.02734 L 1305.7078 555.55334 L 1307.2058 555.55334 L 1307.2058 554.75534 L 1305.7078 554.75534 L 1305.7078 552.57134 Z" fill="black"/>
          </g>
          <g id="Graphic_594">
            <path d="M 1312.9598 558.15734 C 1313.0858 557.79334 1313.1278 557.34534 1313.1278 557.07934 C 1313.1278 555.69334 1312.2598 554.58734 1310.8318 554.58734 C 1309.2638 554.58734 1308.0878 556.01534 1308.0878 558.05934 C 1308.0878 560.25734 1309.3758 561.19534 1310.7898 561.19534 C 1311.6018 561.19534 1312.3158 560.92934 1312.7498 560.50934 L 1312.5678 559.69734 L 1312.5258 559.69734 C 1312.1338 560.08934 1311.4898 560.36934 1310.9438 560.36934 C 1309.9218 560.36934 1309.0958 559.79534 1309.0958 558.15734 Z M 1309.1378 557.42934 C 1309.1938 556.29534 1309.8238 555.39934 1310.8038 555.39934 C 1311.6158 555.39934 1312.3158 556.16934 1312.1198 557.42934 Z" fill="black"/>
          </g>
          <g id="Graphic_595">
            <path d="M 1318.3778 555.35734 C 1317.8458 554.93734 1317.1178 554.58734 1316.3478 554.58734 C 1315.1298 554.58734 1314.4438 555.37134 1314.4438 556.23934 C 1314.4438 557.10734 1314.9758 557.54134 1316.0118 558.10134 C 1316.8938 558.57734 1317.4958 558.95534 1317.4958 559.52934 C 1317.4958 560.04734 1317.0058 560.35534 1316.3758 560.35534 C 1315.6618 560.35534 1315.1858 560.07534 1314.6398 559.71134 L 1314.2898 560.46734 C 1314.7238 560.84534 1315.5218 561.19534 1316.3898 561.19534 C 1317.4398 561.19534 1318.4338 560.63534 1318.4338 559.50134 C 1318.4338 558.74534 1318.0978 558.21334 1316.9218 557.55534 C 1316.0118 557.05134 1315.3818 556.74334 1315.3818 556.16934 C 1315.3818 555.76334 1315.7178 555.39934 1316.3618 555.39934 C 1316.9218 555.39934 1317.4398 555.65134 1318.0278 556.09934 Z" fill="black"/>
          </g>
          <g id="Graphic_596">
            <path d="M 1265.9198 578.02734 L 1265.9198 568.56334 L 1265.6818 568.39534 L 1262.9518 568.74534 L 1263.0358 569.65534 L 1264.9118 569.43134 L 1264.9118 578.02734 Z" fill="black"/>
          </g>
          <g id="Graphic_597">
            <path d="M 1271.3658 577.78934 C 1271.7438 578.02734 1272.3318 578.16734 1272.9198 578.16734 C 1274.5578 578.16734 1275.7058 577.17334 1275.7058 574.93334 L 1275.7058 568.50734 L 1274.6698 568.50734 L 1274.6698 574.69534 C 1274.6698 576.54334 1274.0958 577.22934 1272.8778 577.22934 C 1272.3598 577.22934 1271.9398 577.00534 1271.7018 576.85134 Z" fill="black"/>
          </g>
          <g id="Graphic_598">
            <path d="M 1282.6778 577.56534 C 1282.3838 577.41134 1282.1178 577.06134 1282.1178 576.57134 L 1282.1178 573.60334 C 1282.1178 572.17534 1281.1098 571.58734 1280.1018 571.58734 C 1279.1498 571.58734 1278.4218 571.93734 1277.8618 572.27334 L 1278.1978 573.04334 C 1278.7718 572.63734 1279.3178 572.41334 1279.8638 572.41334 C 1280.4658 572.41334 1281.1938 572.74934 1281.1938 573.81334 L 1281.1938 574.51334 C 1280.8438 574.45734 1280.4238 574.41534 1280.0878 574.41534 C 1278.2398 574.41534 1277.5958 575.43734 1277.5958 576.37534 C 1277.5958 577.52334 1278.4358 578.19534 1279.4438 578.19534 C 1280.1578 578.19534 1280.8158 577.91534 1281.2358 577.34134 L 1281.3058 577.34134 C 1281.4038 577.73334 1281.6978 578.01334 1281.9918 578.20934 L 1282.6778 577.62134 Z M 1281.1938 576.34734 C 1280.9278 576.96334 1280.3398 577.38334 1279.6398 577.38334 C 1279.0238 577.38334 1278.5478 577.03334 1278.5478 576.36134 C 1278.5478 575.61934 1279.0938 575.12934 1280.0738 575.12934 C 1280.4938 575.12934 1280.8858 575.18534 1281.1938 575.24134 Z" fill="black"/>
          </g>
          <g id="Graphic_599">
            <path d="M 1285.0578 572.51134 L 1284.9598 571.75534 L 1284.1478 571.75534 L 1284.1478 578.02734 L 1285.1278 578.02734 L 1285.1278 573.42134 C 1285.5338 572.86134 1286.2058 572.48334 1286.8498 572.48334 C 1287.4938 572.48334 1288.0678 572.80534 1288.0678 573.95334 L 1288.0678 578.02734 L 1289.0478 578.02734 L 1289.0478 573.65934 C 1289.0478 572.21734 1288.2358 571.58734 1287.1858 571.58734 C 1286.4158 571.58734 1285.6738 571.95134 1285.1138 572.51134 Z" fill="black"/>
          </g>
          <g id="Graphic_600">
            <path d="M 1294.2278 570.07534 C 1294.5358 569.86534 1295.5158 569.24934 1296.6498 569.24934 C 1297.8258 569.24934 1298.6098 569.87934 1298.6098 571.09734 C 1298.6098 572.48334 1297.3498 574.33134 1293.4438 577.53734 L 1293.5838 578.02734 L 1299.8138 578.02734 L 1299.8138 577.00534 L 1295.2918 577.08934 L 1295.2358 576.99134 C 1298.0498 574.76534 1299.6738 572.84734 1299.6738 570.92934 C 1299.6738 569.06734 1298.3438 568.32534 1296.7198 568.32534 C 1295.3758 568.32534 1294.3818 568.91334 1294.1438 569.09534 Z" fill="black"/>
          </g>
          <g id="Graphic_601">
            <path d="M 1308.1998 573.16934 C 1308.1998 570.04734 1306.7718 568.32534 1304.7558 568.32534 C 1302.8098 568.32534 1301.2558 570.00534 1301.2558 573.16934 C 1301.2558 576.66934 1302.8098 578.20934 1304.7558 578.20934 C 1306.7718 578.20934 1308.1998 576.54334 1308.1998 573.16934 Z M 1307.1778 573.14134 C 1307.1778 575.74534 1306.3098 577.29934 1304.7698 577.29934 C 1303.4538 577.29934 1302.2778 576.06734 1302.2778 573.14134 C 1302.2778 570.55134 1303.3558 569.24934 1304.6998 569.24934 C 1306.1978 569.24934 1307.1778 570.73334 1307.1778 573.14134 Z" fill="black"/>
          </g>
          <g id="Graphic_602">
            <path d="M 1309.7678 570.07534 C 1310.0758 569.86534 1311.0558 569.24934 1312.1898 569.24934 C 1313.3658 569.24934 1314.1498 569.87934 1314.1498 571.09734 C 1314.1498 572.48334 1312.8898 574.33134 1308.9838 577.53734 L 1309.1238 578.02734 L 1315.3538 578.02734 L 1315.3538 577.00534 L 1310.8318 577.08934 L 1310.7758 576.99134 C 1313.5898 574.76534 1315.2138 572.84734 1315.2138 570.92934 C 1315.2138 569.06734 1313.8838 568.32534 1312.2598 568.32534 C 1310.9158 568.32534 1309.9218 568.91334 1309.6838 569.09534 Z" fill="black"/>
          </g>
          <g id="Graphic_603">
            <path d="M 1317.2018 572.66534 C 1317.5378 572.60934 1318.0278 572.53934 1318.8118 572.53934 C 1320.4778 572.53934 1321.8778 573.25334 1321.8778 574.73734 C 1321.8778 576.26334 1320.5758 577.29934 1318.4198 577.29934 C 1318.0278 577.29934 1317.5238 577.24334 1317.2018 577.15934 C 1317.1318 577.45334 1317.0618 577.76134 1317.0058 578.05534 C 1317.3978 578.18134 1317.8598 578.20934 1318.3638 578.20934 C 1321.0238 578.20934 1322.9418 576.94934 1322.9418 574.69534 C 1322.9418 573.05734 1321.8218 571.68534 1319.1198 571.68534 C 1318.7978 571.68534 1318.4618 571.69934 1318.1538 571.74134 L 1318.4618 569.40334 L 1322.5078 569.51534 L 1322.6478 568.50734 L 1317.6778 568.50734 L 1317.1458 572.62334 Z" fill="black"/>
          </g>
        </g>
        <g id="Group_614">
          <title/>
          <g id="Graphic_605">
            <rect x="1635.8044" y="487.42977" width="1.554" height="14.28" fill="black"/>
          </g>
          <g id="Graphic_606">
            <path d="M 1646.9344 500.61777 L 1647.2494 501.70977 L 1648.3414 501.70977 L 1648.3414 487.17777 L 1646.8714 487.42977 L 1646.8714 492.88977 L 1646.8084 492.88977 C 1646.3464 492.42777 1645.5694 492.04977 1644.6244 492.04977 C 1641.9784 492.04977 1640.3614 494.38077 1640.3614 497.25777 C 1640.3614 500.28177 1641.8734 501.96177 1643.9734 501.96177 C 1644.9814 501.96177 1645.9474 501.54177 1646.8504 500.61777 Z M 1644.3304 500.70177 C 1642.9024 500.70177 1641.8734 499.50477 1641.8734 497.13177 C 1641.8734 494.90577 1642.8394 493.30977 1644.7294 493.30977 C 1645.5274 493.30977 1646.3464 493.68777 1646.8714 494.35977 L 1646.8714 499.25277 C 1646.1574 500.26077 1645.2124 500.70177 1644.3304 500.70177 Z" fill="black"/>
          </g>
          <g id="Graphic_607">
            <path d="M 1657.9594 497.40477 C 1658.1484 496.85877 1658.2114 496.18677 1658.2114 495.78777 C 1658.2114 493.70877 1656.9094 492.04977 1654.7674 492.04977 C 1652.4154 492.04977 1650.6514 494.19177 1650.6514 497.25777 C 1650.6514 500.55477 1652.5834 501.96177 1654.7044 501.96177 C 1655.9224 501.96177 1656.9934 501.56277 1657.6444 500.93277 L 1657.3714 499.71477 L 1657.3084 499.71477 C 1656.7204 500.30277 1655.7544 500.72277 1654.9354 500.72277 C 1653.4024 500.72277 1652.1634 499.86177 1652.1634 497.40477 Z M 1652.2264 496.31277 C 1652.3104 494.61177 1653.2554 493.26777 1654.7254 493.26777 C 1655.9434 493.26777 1656.9934 494.42277 1656.6994 496.31277 Z" fill="black"/>
          </g>
          <g id="Graphic_608">
            <path d="M 1667.5564 501.01677 C 1667.1154 500.78577 1666.7164 500.26077 1666.7164 499.52577 L 1666.7164 495.07377 C 1666.7164 492.93177 1665.2044 492.04977 1663.6924 492.04977 C 1662.2644 492.04977 1661.1724 492.57477 1660.3324 493.07877 L 1660.8364 494.23377 C 1661.6974 493.62477 1662.5164 493.28877 1663.3354 493.28877 C 1664.2384 493.28877 1665.3304 493.79277 1665.3304 495.38877 L 1665.3304 496.43877 C 1664.8054 496.35477 1664.1754 496.29177 1663.6714 496.29177 C 1660.8994 496.29177 1659.9334 497.82477 1659.9334 499.23177 C 1659.9334 500.95377 1661.1934 501.96177 1662.7054 501.96177 C 1663.7764 501.96177 1664.7634 501.54177 1665.3934 500.68077 L 1665.4984 500.68077 C 1665.6454 501.26877 1666.0864 501.68877 1666.5274 501.98277 L 1667.5564 501.10077 Z M 1665.3304 499.18977 C 1664.9314 500.11377 1664.0494 500.74377 1662.9994 500.74377 C 1662.0754 500.74377 1661.3614 500.21877 1661.3614 499.21077 C 1661.3614 498.09777 1662.1804 497.36277 1663.6504 497.36277 C 1664.2804 497.36277 1664.8684 497.44677 1665.3304 497.53077 Z" fill="black"/>
          </g>
          <g id="Graphic_609">
            <path d="M 1668.6064 505.06977 L 1669.9924 505.06977 L 1677.8464 487.00977 L 1676.4604 487.00977 Z" fill="black"/>
          </g>
          <g id="Graphic_610">
            <path d="M 1680.7864 493.43577 L 1680.6394 492.30177 L 1679.4214 492.30177 L 1679.4214 501.70977 L 1680.8914 501.70977 L 1680.8914 494.80077 C 1681.5004 493.96077 1682.5084 493.39377 1683.4744 493.39377 C 1684.4404 493.39377 1685.3014 493.87677 1685.3014 495.59877 L 1685.3014 501.70977 L 1686.7714 501.70977 L 1686.7714 495.15777 C 1686.7714 492.99477 1685.5534 492.04977 1683.9784 492.04977 C 1682.8234 492.04977 1681.7104 492.59577 1680.8704 493.43577 Z" fill="black"/>
          </g>
          <g id="Graphic_611">
            <path d="M 1697.4814 497.08977 C 1697.4814 494.19177 1695.8224 492.04977 1693.1974 492.04977 C 1690.8034 492.04977 1689.0814 494.17077 1689.0814 497.08977 C 1689.0814 499.94577 1690.9084 501.96177 1693.2814 501.96177 C 1695.6124 501.96177 1697.4814 499.94577 1697.4814 497.08977 Z M 1695.9694 497.06877 C 1695.9694 499.25277 1694.8354 500.74377 1693.2814 500.74377 C 1691.6644 500.74377 1690.5934 499.23177 1690.5934 497.06877 C 1690.5934 494.90577 1691.6224 493.26777 1693.1974 493.26777 C 1694.9194 493.26777 1695.9694 494.86377 1695.9694 497.06877 Z" fill="black"/>
          </g>
          <g id="Graphic_612">
            <path d="M 1700.8414 489.52977 L 1700.8414 492.19677 L 1698.9094 492.55377 L 1698.9094 493.49877 L 1700.8414 493.49877 L 1700.8414 501.70977 L 1702.3114 501.70977 L 1702.3114 493.49877 L 1704.5584 493.49877 L 1704.5584 492.30177 L 1702.3114 492.30177 L 1702.3114 489.02577 Z" fill="black"/>
          </g>
          <g id="Graphic_613">
            <path d="M 1713.1894 497.40477 C 1713.3784 496.85877 1713.4414 496.18677 1713.4414 495.78777 C 1713.4414 493.70877 1712.1394 492.04977 1709.9974 492.04977 C 1707.6454 492.04977 1705.8814 494.19177 1705.8814 497.25777 C 1705.8814 500.55477 1707.8134 501.96177 1709.9344 501.96177 C 1711.1524 501.96177 1712.2234 501.56277 1712.8744 500.93277 L 1712.6014 499.71477 L 1712.5384 499.71477 C 1711.9504 500.30277 1710.9844 500.72277 1710.1654 500.72277 C 1708.6324 500.72277 1707.3934 499.86177 1707.3934 497.40477 Z M 1707.4564 496.31277 C 1707.5404 494.61177 1708.4854 493.26777 1709.9554 493.26777 C 1711.1734 493.26777 1712.2234 494.42277 1711.9294 496.31277 Z" fill="black"/>
          </g>
        </g>
        <g id="Group_624">
          <title/>
          <g id="Graphic_615">
            <rect x="1484.3122" y="487.42977" width="1.554" height="14.28" fill="black"/>
          </g>
          <g id="Graphic_616">
            <path d="M 1495.4422 500.61777 L 1495.7572 501.70977 L 1496.8492 501.70977 L 1496.8492 487.17777 L 1495.3792 487.42977 L 1495.3792 492.88977 L 1495.3162 492.88977 C 1494.8542 492.42777 1494.0772 492.04977 1493.1322 492.04977 C 1490.4862 492.04977 1488.8692 494.38077 1488.8692 497.25777 C 1488.8692 500.28177 1490.3812 501.96177 1492.4812 501.96177 C 1493.4892 501.96177 1494.4552 501.54177 1495.3582 500.61777 Z M 1492.8382 500.70177 C 1491.4102 500.70177 1490.3812 499.50477 1490.3812 497.13177 C 1490.3812 494.90577 1491.3472 493.30977 1493.2372 493.30977 C 1494.0352 493.30977 1494.8542 493.68777 1495.3792 494.35977 L 1495.3792 499.25277 C 1494.6652 500.26077 1493.7202 500.70177 1492.8382 500.70177 Z" fill="black"/>
          </g>
          <g id="Graphic_617">
            <path d="M 1506.4672 497.40477 C 1506.6562 496.85877 1506.7192 496.18677 1506.7192 495.78777 C 1506.7192 493.70877 1505.4172 492.04977 1503.2752 492.04977 C 1500.9232 492.04977 1499.1592 494.19177 1499.1592 497.25777 C 1499.1592 500.55477 1501.0912 501.96177 1503.2122 501.96177 C 1504.4302 501.96177 1505.5012 501.56277 1506.1522 500.93277 L 1505.8792 499.71477 L 1505.8162 499.71477 C 1505.2282 500.30277 1504.2622 500.72277 1503.4432 500.72277 C 1501.9102 500.72277 1500.6712 499.86177 1500.6712 497.40477 Z M 1500.7342 496.31277 C 1500.8182 494.61177 1501.7632 493.26777 1503.2332 493.26777 C 1504.4512 493.26777 1505.5012 494.42277 1505.2072 496.31277 Z" fill="black"/>
          </g>
          <g id="Graphic_618">
            <path d="M 1516.0642 501.01677 C 1515.6232 500.78577 1515.2242 500.26077 1515.2242 499.52577 L 1515.2242 495.07377 C 1515.2242 492.93177 1513.7122 492.04977 1512.2002 492.04977 C 1510.7722 492.04977 1509.6802 492.57477 1508.8402 493.07877 L 1509.3442 494.23377 C 1510.2052 493.62477 1511.0242 493.28877 1511.8432 493.28877 C 1512.7462 493.28877 1513.8382 493.79277 1513.8382 495.38877 L 1513.8382 496.43877 C 1513.3132 496.35477 1512.6832 496.29177 1512.1792 496.29177 C 1509.4072 496.29177 1508.4412 497.82477 1508.4412 499.23177 C 1508.4412 500.95377 1509.7012 501.96177 1511.2132 501.96177 C 1512.2842 501.96177 1513.2712 501.54177 1513.9012 500.68077 L 1514.0062 500.68077 C 1514.1532 501.26877 1514.5942 501.68877 1515.0352 501.98277 L 1516.0642 501.10077 Z M 1513.8382 499.18977 C 1513.4392 500.11377 1512.5572 500.74377 1511.5072 500.74377 C 1510.5832 500.74377 1509.8692 500.21877 1509.8692 499.21077 C 1509.8692 498.09777 1510.6882 497.36277 1512.1582 497.36277 C 1512.7882 497.36277 1513.3762 497.44677 1513.8382 497.53077 Z" fill="black"/>
          </g>
          <g id="Graphic_619">
            <path d="M 1517.1142 505.06977 L 1518.5002 505.06977 L 1526.3542 487.00977 L 1524.9682 487.00977 Z" fill="black"/>
          </g>
          <g id="Graphic_620">
            <path d="M 1529.2942 493.43577 L 1529.1472 492.30177 L 1527.9292 492.30177 L 1527.9292 501.70977 L 1529.3992 501.70977 L 1529.3992 494.80077 C 1530.0082 493.96077 1531.0162 493.39377 1531.9822 493.39377 C 1532.9482 493.39377 1533.8092 493.87677 1533.8092 495.59877 L 1533.8092 501.70977 L 1535.2792 501.70977 L 1535.2792 495.15777 C 1535.2792 492.99477 1534.0612 492.04977 1532.4862 492.04977 C 1531.3312 492.04977 1530.2182 492.59577 1529.3782 493.43577 Z" fill="black"/>
          </g>
          <g id="Graphic_621">
            <path d="M 1545.9892 497.08977 C 1545.9892 494.19177 1544.3302 492.04977 1541.7052 492.04977 C 1539.3112 492.04977 1537.5892 494.17077 1537.5892 497.08977 C 1537.5892 499.94577 1539.4162 501.96177 1541.7892 501.96177 C 1544.1202 501.96177 1545.9892 499.94577 1545.9892 497.08977 Z M 1544.4772 497.06877 C 1544.4772 499.25277 1543.3432 500.74377 1541.7892 500.74377 C 1540.1722 500.74377 1539.1012 499.23177 1539.1012 497.06877 C 1539.1012 494.90577 1540.1302 493.26777 1541.7052 493.26777 C 1543.4272 493.26777 1544.4772 494.86377 1544.4772 497.06877 Z" fill="black"/>
          </g>
          <g id="Graphic_622">
            <path d="M 1549.3492 489.52977 L 1549.3492 492.19677 L 1547.4172 492.55377 L 1547.4172 493.49877 L 1549.3492 493.49877 L 1549.3492 501.70977 L 1550.8192 501.70977 L 1550.8192 493.49877 L 1553.0662 493.49877 L 1553.0662 492.30177 L 1550.8192 492.30177 L 1550.8192 489.02577 Z" fill="black"/>
          </g>
          <g id="Graphic_623">
            <path d="M 1561.6972 497.40477 C 1561.8862 496.85877 1561.9492 496.18677 1561.9492 495.78777 C 1561.9492 493.70877 1560.6472 492.04977 1558.5052 492.04977 C 1556.1532 492.04977 1554.3892 494.19177 1554.3892 497.25777 C 1554.3892 500.55477 1556.3212 501.96177 1558.4422 501.96177 C 1559.6602 501.96177 1560.7312 501.56277 1561.3822 500.93277 L 1561.1092 499.71477 L 1561.0462 499.71477 C 1560.4582 500.30277 1559.4922 500.72277 1558.6732 500.72277 C 1557.1402 500.72277 1555.9012 499.86177 1555.9012 497.40477 Z M 1555.9642 496.31277 C 1556.0482 494.61177 1556.9932 493.26777 1558.4632 493.26777 C 1559.6812 493.26777 1560.7312 494.42277 1560.4372 496.31277 Z" fill="black"/>
          </g>
        </g>
        <g id="Group_644">
          <title/>
          <g id="Graphic_625">
            <path d="M 1250.6738 409.78714 L 1250.6738 398.32114 L 1253.0258 398.32114 C 1255.6928 398.32114 1258.5488 399.95914 1258.5488 404.13814 C 1258.5488 407.56114 1256.5118 409.78714 1253.0468 409.78714 Z M 1252.9628 411.19414 C 1257.1628 411.19414 1260.1448 408.50614 1260.1448 404.18014 C 1260.1448 399.72814 1257.0368 396.91414 1252.9418 396.91414 L 1249.1408 396.91414 L 1249.1408 411.19414 Z" fill="black"/>
          </g>
          <g id="Graphic_626">
            <path d="M 1269.7628 410.50114 C 1269.3218 410.27014 1268.9228 409.74514 1268.9228 409.01014 L 1268.9228 404.55814 C 1268.9228 402.41614 1267.4108 401.53414 1265.8988 401.53414 C 1264.4708 401.53414 1263.3788 402.05914 1262.5388 402.56314 L 1263.0428 403.71814 C 1263.9038 403.10914 1264.7228 402.77314 1265.5418 402.77314 C 1266.4448 402.77314 1267.5368 403.27714 1267.5368 404.87314 L 1267.5368 405.92314 C 1267.0118 405.83914 1266.3818 405.77614 1265.8778 405.77614 C 1263.1058 405.77614 1262.1398 407.30914 1262.1398 408.71614 C 1262.1398 410.43814 1263.3998 411.44614 1264.9118 411.44614 C 1265.9828 411.44614 1266.9698 411.02614 1267.5998 410.16514 L 1267.7048 410.16514 C 1267.8518 410.75314 1268.2928 411.17314 1268.7338 411.46714 L 1269.7628 410.58514 Z M 1267.5368 408.67414 C 1267.1378 409.59814 1266.2558 410.22814 1265.2058 410.22814 C 1264.2818 410.22814 1263.5678 409.70314 1263.5678 408.69514 C 1263.5678 407.58214 1264.3868 406.84714 1265.8568 406.84714 C 1266.4868 406.84714 1267.0748 406.93114 1267.5368 407.01514 Z" fill="black"/>
          </g>
          <g id="Graphic_627">
            <path d="M 1272.2828 401.89114 L 1272.2828 411.19414 L 1273.7528 411.19414 L 1273.7528 401.70214 Z M 1271.9888 397.98514 C 1271.9888 398.55214 1272.4508 399.05614 1273.0178 399.05614 C 1273.5848 399.05614 1274.0468 398.55214 1274.0468 397.98514 C 1274.0468 397.35514 1273.5848 396.89314 1273.0178 396.89314 C 1272.4508 396.89314 1271.9888 397.35514 1271.9888 397.98514 Z" fill="black"/>
          </g>
          <g id="Graphic_628">
            <path d="M 1277.1128 396.91414 L 1277.1128 411.19414 L 1278.5828 411.19414 L 1278.5828 396.66214 Z" fill="black"/>
          </g>
          <g id="Graphic_629">
            <path d="M 1288.9988 401.95414 L 1287.6338 401.63914 L 1284.8618 408.56914 L 1284.7988 408.56914 L 1282.1318 401.61814 L 1280.7668 401.95414 L 1284.0638 410.37514 C 1283.2868 412.70614 1282.4258 414.34414 1281.3548 414.93214 L 1281.4388 415.54114 L 1282.9298 415.28914 C 1283.4968 414.97414 1283.9798 414.09214 1284.3788 413.12614 Z" fill="black"/>
          </g>
          <g id="Graphic_630">
            <path d="M 1296.8528 402.92014 L 1296.7058 401.78614 L 1295.4878 401.78614 L 1295.4878 411.19414 L 1296.9578 411.19414 L 1296.9578 404.28514 C 1297.5668 403.44514 1298.5748 402.87814 1299.5408 402.87814 C 1300.5068 402.87814 1301.3678 403.36114 1301.3678 405.08314 L 1301.3678 411.19414 L 1302.8378 411.19414 L 1302.8378 404.64214 C 1302.8378 402.47914 1301.6198 401.53414 1300.0448 401.53414 C 1298.8898 401.53414 1297.7768 402.08014 1296.9368 402.92014 Z" fill="black"/>
          </g>
          <g id="Graphic_631">
            <path d="M 1313.5478 406.57414 C 1313.5478 403.67614 1311.8888 401.53414 1309.2638 401.53414 C 1306.8698 401.53414 1305.1478 403.65514 1305.1478 406.57414 C 1305.1478 409.43014 1306.9748 411.44614 1309.3478 411.44614 C 1311.6788 411.44614 1313.5478 409.43014 1313.5478 406.57414 Z M 1312.0358 406.55314 C 1312.0358 408.73714 1310.9018 410.22814 1309.3478 410.22814 C 1307.7308 410.22814 1306.6598 408.71614 1306.6598 406.55314 C 1306.6598 404.39014 1307.6888 402.75214 1309.2638 402.75214 C 1310.9858 402.75214 1312.0358 404.34814 1312.0358 406.55314 Z" fill="black"/>
          </g>
          <g id="Graphic_632">
            <path d="M 1316.9078 399.01414 L 1316.9078 401.68114 L 1314.9758 402.03814 L 1314.9758 402.98314 L 1316.9078 402.98314 L 1316.9078 411.19414 L 1318.3778 411.19414 L 1318.3778 402.98314 L 1320.6248 402.98314 L 1320.6248 401.78614 L 1318.3778 401.78614 L 1318.3778 398.51014 Z" fill="black"/>
          </g>
          <g id="Graphic_633">
            <path d="M 1329.2558 406.88914 C 1329.4448 406.34314 1329.5078 405.67114 1329.5078 405.27214 C 1329.5078 403.19314 1328.2058 401.53414 1326.0638 401.53414 C 1323.7118 401.53414 1321.9478 403.67614 1321.9478 406.74214 C 1321.9478 410.03914 1323.8798 411.44614 1326.0008 411.44614 C 1327.2188 411.44614 1328.2898 411.04714 1328.9408 410.41714 L 1328.6678 409.19914 L 1328.6048 409.19914 C 1328.0168 409.78714 1327.0508 410.20714 1326.2318 410.20714 C 1324.6988 410.20714 1323.4598 409.34614 1323.4598 406.88914 Z M 1323.5228 405.79714 C 1323.6068 404.09614 1324.5518 402.75214 1326.0218 402.75214 C 1327.2398 402.75214 1328.2898 403.90714 1327.9958 405.79714 Z" fill="black"/>
          </g>
          <g id="Graphic_634">
            <path d="M 1337.3828 402.68914 C 1336.5848 402.05914 1335.4928 401.53414 1334.3378 401.53414 C 1332.5108 401.53414 1331.4818 402.71014 1331.4818 404.01214 C 1331.4818 405.31414 1332.2798 405.96514 1333.8338 406.80514 C 1335.1568 407.51914 1336.0598 408.08614 1336.0598 408.94714 C 1336.0598 409.72414 1335.3248 410.18614 1334.3798 410.18614 C 1333.3088 410.18614 1332.5948 409.76614 1331.7758 409.22014 L 1331.2508 410.35414 C 1331.9018 410.92114 1333.0988 411.44614 1334.4008 411.44614 C 1335.9758 411.44614 1337.4668 410.60614 1337.4668 408.90514 C 1337.4668 407.77114 1336.9628 406.97314 1335.1988 405.98614 C 1333.8338 405.23014 1332.8888 404.76814 1332.8888 403.90714 C 1332.8888 403.29814 1333.3928 402.75214 1334.3588 402.75214 C 1335.1988 402.75214 1335.9758 403.13014 1336.8578 403.80214 Z" fill="black"/>
          </g>
          <g id="Graphic_635">
            <path d="M 1257.3728 426.89114 L 1257.3728 436.19414 L 1258.8428 436.19414 L 1258.8428 426.70214 Z M 1257.0788 422.98514 C 1257.0788 423.55214 1257.5408 424.05614 1258.1078 424.05614 C 1258.6748 424.05614 1259.1368 423.55214 1259.1368 422.98514 C 1259.1368 422.35514 1258.6748 421.89314 1258.1078 421.89314 C 1257.5408 421.89314 1257.0788 422.35514 1257.0788 422.98514 Z" fill="black"/>
          </g>
          <g id="Graphic_636">
            <path d="M 1263.2528 427.92014 L 1263.1058 426.78614 L 1261.8878 426.78614 L 1261.8878 436.19414 L 1263.3578 436.19414 L 1263.3578 429.28514 C 1263.9668 428.44514 1264.9748 427.87814 1265.9408 427.87814 C 1266.9068 427.87814 1267.7678 428.36114 1267.7678 430.08314 L 1267.7678 436.19414 L 1269.2378 436.19414 L 1269.2378 429.64214 C 1269.2378 427.47914 1268.0198 426.53414 1266.4448 426.53414 C 1265.2898 426.53414 1264.1768 427.08014 1263.3368 427.92014 Z" fill="black"/>
          </g>
          <g id="Graphic_637">
            <path d="M 1278.1208 435.10214 L 1278.4358 436.19414 L 1279.5278 436.19414 L 1279.5278 421.66214 L 1278.0578 421.91414 L 1278.0578 427.37414 L 1277.9948 427.37414 C 1277.5328 426.91214 1276.7558 426.53414 1275.8108 426.53414 C 1273.1648 426.53414 1271.5478 428.86514 1271.5478 431.74214 C 1271.5478 434.76614 1273.0598 436.44614 1275.1598 436.44614 C 1276.1678 436.44614 1277.1338 436.02614 1278.0368 435.10214 Z M 1275.5168 435.18614 C 1274.0888 435.18614 1273.0598 433.98914 1273.0598 431.61614 C 1273.0598 429.39014 1274.0258 427.79414 1275.9158 427.79414 C 1276.7138 427.79414 1277.5328 428.17214 1278.0578 428.84414 L 1278.0578 433.73714 C 1277.3438 434.74514 1276.3988 435.18614 1275.5168 435.18614 Z" fill="black"/>
          </g>
          <g id="Graphic_638">
            <path d="M 1289.1458 431.88914 C 1289.3348 431.34314 1289.3978 430.67114 1289.3978 430.27214 C 1289.3978 428.19314 1288.0958 426.53414 1285.9538 426.53414 C 1283.6018 426.53414 1281.8378 428.67614 1281.8378 431.74214 C 1281.8378 435.03914 1283.7698 436.44614 1285.8908 436.44614 C 1287.1088 436.44614 1288.1798 436.04714 1288.8308 435.41714 L 1288.5578 434.19914 L 1288.4948 434.19914 C 1287.9068 434.78714 1286.9408 435.20714 1286.1218 435.20714 C 1284.5888 435.20714 1283.3498 434.34614 1283.3498 431.88914 Z M 1283.4128 430.79714 C 1283.4968 429.09614 1284.4418 427.75214 1285.9118 427.75214 C 1287.1298 427.75214 1288.1798 428.90714 1287.8858 430.79714 Z" fill="black"/>
          </g>
          <g id="Graphic_639">
            <path d="M 1292.2748 426.63914 L 1290.8468 426.95414 L 1293.9338 431.34314 L 1290.6368 436.04714 L 1292.0648 436.34114 L 1294.7528 432.51914 L 1297.4408 436.34114 L 1298.8688 436.04714 L 1295.5718 431.34314 L 1298.6588 426.95414 L 1297.2308 426.63914 L 1294.7528 430.16714 Z" fill="black"/>
          </g>
          <g id="Graphic_640">
            <path d="M 1310.2298 427.98314 L 1310.2298 426.78614 L 1307.8778 426.78614 L 1307.8778 425.50514 C 1307.8778 423.90914 1308.6338 423.02714 1309.7888 423.02714 C 1310.1668 423.02714 1310.5658 423.09014 1310.9858 423.27914 L 1310.9858 422.04014 C 1310.6918 421.85114 1310.2928 421.74614 1309.6418 421.74614 C 1308.2558 421.74614 1306.4078 423.00614 1306.4078 425.35814 L 1306.4078 426.68114 L 1304.5808 427.03814 L 1304.5808 427.98314 L 1306.4078 427.98314 L 1306.4078 436.19414 L 1307.8778 436.19414 L 1307.8778 427.98314 Z" fill="black"/>
          </g>
          <g id="Graphic_641">
            <path d="M 1312.3928 426.89114 L 1312.3928 436.19414 L 1313.8628 436.19414 L 1313.8628 426.70214 Z M 1312.0988 422.98514 C 1312.0988 423.55214 1312.5608 424.05614 1313.1278 424.05614 C 1313.6948 424.05614 1314.1568 423.55214 1314.1568 422.98514 C 1314.1568 422.35514 1313.6948 421.89314 1313.1278 421.89314 C 1312.5608 421.89314 1312.0988 422.35514 1312.0988 422.98514 Z" fill="black"/>
          </g>
          <g id="Graphic_642">
            <path d="M 1317.2228 421.91414 L 1317.2228 436.19414 L 1318.6928 436.19414 L 1318.6928 421.66214 Z" fill="black"/>
          </g>
          <g id="Graphic_643">
            <path d="M 1328.6258 431.88914 C 1328.8148 431.34314 1328.8778 430.67114 1328.8778 430.27214 C 1328.8778 428.19314 1327.5758 426.53414 1325.4338 426.53414 C 1323.0818 426.53414 1321.3178 428.67614 1321.3178 431.74214 C 1321.3178 435.03914 1323.2498 436.44614 1325.3708 436.44614 C 1326.5888 436.44614 1327.6598 436.04714 1328.3108 435.41714 L 1328.0378 434.19914 L 1327.9748 434.19914 C 1327.3868 434.78714 1326.4208 435.20714 1325.6018 435.20714 C 1324.0688 435.20714 1322.8298 434.34614 1322.8298 431.88914 Z M 1322.8928 430.79714 C 1322.9768 429.09614 1323.9218 427.75214 1325.3918 427.75214 C 1326.6098 427.75214 1327.6598 428.90714 1327.3658 430.79714 Z" fill="black"/>
          </g>
        </g>
        <g id="Graphic_645">
          <title/>
          <path d="M 1853.7977 415.3782 C 1853.7977 416.3982 1854.6137 417.1802 1855.6337 417.1802 C 1856.6197 417.1802 1857.4697 416.3982 1857.4697 415.3782 C 1857.4697 414.3582 1856.6197 413.5422 1855.6337 413.5422 C 1854.6137 413.5422 1853.7977 414.3582 1853.7977 415.3782 Z M 1864.6777 415.3782 C 1864.6777 416.3982 1865.4937 417.1802 1866.5137 417.1802 C 1867.4997 417.1802 1868.3497 416.3982 1868.3497 415.3782 C 1868.3497 414.3582 1867.4997 413.5422 1866.5137 413.5422 C 1865.4937 413.5422 1864.6777 414.3582 1864.6777 415.3782 Z M 1875.5577 415.3782 C 1875.5577 416.3982 1876.3737 417.1802 1877.3937 417.1802 C 1878.3797 417.1802 1879.2297 416.3982 1879.2297 415.3782 C 1879.2297 414.3582 1878.3797 413.5422 1877.3937 413.5422 C 1876.3737 413.5422 1875.5577 414.3582 1875.5577 415.3782 Z" fill="black"/>
        </g>
        <g id="Group_652">
          <title/>
          <g id="Graphic_646">
            <path d="M 1571.4848 413.48814 C 1571.4848 410.96814 1569.6578 409.41414 1566.9908 409.41414 L 1563.4208 409.41414 L 1563.4208 423.69414 L 1564.9538 423.69414 L 1564.9538 417.66714 L 1566.8648 417.66714 C 1569.3218 417.68814 1571.4848 416.23914 1571.4848 413.48814 Z M 1569.8888 413.53014 C 1569.8888 415.58814 1568.3978 416.26014 1566.9068 416.26014 L 1564.9538 416.26014 L 1564.9538 410.82114 L 1567.0118 410.82114 C 1568.7128 410.82114 1569.8888 411.80814 1569.8888 413.53014 Z" fill="black"/>
          </g>
          <g id="Graphic_647">
            <path d="M 1580.6828 423.00114 C 1580.2418 422.77014 1579.8428 422.24514 1579.8428 421.51014 L 1579.8428 417.05814 C 1579.8428 414.91614 1578.3308 414.03414 1576.8188 414.03414 C 1575.3908 414.03414 1574.2988 414.55914 1573.4588 415.06314 L 1573.9628 416.21814 C 1574.8238 415.60914 1575.6428 415.27314 1576.4618 415.27314 C 1577.3648 415.27314 1578.4568 415.77714 1578.4568 417.37314 L 1578.4568 418.42314 C 1577.9318 418.33914 1577.3018 418.27614 1576.7978 418.27614 C 1574.0258 418.27614 1573.0598 419.80914 1573.0598 421.21614 C 1573.0598 422.93814 1574.3198 423.94614 1575.8318 423.94614 C 1576.9028 423.94614 1577.8898 423.52614 1578.5198 422.66514 L 1578.6248 422.66514 C 1578.7718 423.25314 1579.2128 423.67314 1579.6538 423.96714 L 1580.6828 423.08514 Z M 1578.4568 421.17414 C 1578.0578 422.09814 1577.1758 422.72814 1576.1258 422.72814 C 1575.2018 422.72814 1574.4878 422.20314 1574.4878 421.19514 C 1574.4878 420.08214 1575.3068 419.34714 1576.7768 419.34714 C 1577.4068 419.34714 1577.9948 419.43114 1578.4568 419.51514 Z" fill="black"/>
          </g>
          <g id="Graphic_648">
            <path d="M 1584.1898 415.18914 L 1583.8538 414.22314 L 1582.8878 414.28614 L 1582.8878 427.97814 L 1584.3578 427.72614 L 1584.3578 423.08514 L 1584.4628 423.08514 C 1585.0508 423.73614 1586.0378 423.94614 1586.7308 423.94614 C 1588.2638 423.94614 1590.8678 422.77014 1590.8678 419.01114 C 1590.8678 415.44114 1588.7678 414.03414 1586.8778 414.03414 C 1585.8488 414.03414 1584.9248 414.45414 1584.2948 415.18914 Z M 1586.6468 415.29414 C 1587.7178 415.29414 1589.3558 416.02914 1589.3558 419.11614 C 1589.3558 421.80414 1587.8018 422.68614 1586.4578 422.68614 C 1585.5128 422.68614 1584.8198 422.43414 1584.3578 421.63614 L 1584.3578 416.40714 C 1584.8198 415.73514 1585.6388 415.29414 1586.6468 415.29414 Z" fill="black"/>
          </g>
          <g id="Graphic_649">
            <path d="M 1600.0658 419.38914 C 1600.2548 418.84314 1600.3178 418.17114 1600.3178 417.77214 C 1600.3178 415.69314 1599.0158 414.03414 1596.8738 414.03414 C 1594.5218 414.03414 1592.7578 416.17614 1592.7578 419.24214 C 1592.7578 422.53914 1594.6898 423.94614 1596.8108 423.94614 C 1598.0288 423.94614 1599.0998 423.54714 1599.7508 422.91714 L 1599.4778 421.69914 L 1599.4148 421.69914 C 1598.8268 422.28714 1597.8608 422.70714 1597.0418 422.70714 C 1595.5088 422.70714 1594.2698 421.84614 1594.2698 419.38914 Z M 1594.3328 418.29714 C 1594.4168 416.59614 1595.3618 415.25214 1596.8318 415.25214 C 1598.0498 415.25214 1599.0998 416.40714 1598.8058 418.29714 Z" fill="black"/>
          </g>
          <g id="Graphic_650">
            <path d="M 1607.0588 414.11814 C 1605.8828 414.13914 1604.7488 415.16814 1604.2028 416.49114 L 1603.9928 416.49114 L 1603.8668 414.28614 L 1602.6278 414.28614 L 1602.6278 423.69414 L 1604.0978 423.69414 L 1604.0978 418.84314 C 1604.4548 417.12114 1605.7358 415.75614 1606.9538 415.67214 L 1607.5838 415.67214 L 1607.5838 414.16014 C 1607.4158 414.13914 1607.2898 414.11814 1607.0588 414.11814 Z" fill="black"/>
          </g>
          <g id="Graphic_651">
            <path d="M 1614.3878 411.76614 C 1614.8498 411.45114 1616.3198 410.52714 1618.0208 410.52714 C 1619.7848 410.52714 1620.9608 411.47214 1620.9608 413.29914 C 1620.9608 415.37814 1619.0708 418.15014 1613.2118 422.95914 L 1613.4218 423.69414 L 1622.7668 423.69414 L 1622.7668 422.16114 L 1615.9838 422.28714 L 1615.8998 422.14014 C 1620.1208 418.80114 1622.5568 415.92414 1622.5568 413.04714 C 1622.5568 410.25414 1620.5618 409.14114 1618.1258 409.14114 C 1616.1098 409.14114 1614.6188 410.02314 1614.2618 410.29614 Z" fill="black"/>
          </g>
        </g>
        <g id="Group_659">
          <title/>
          <g id="Graphic_653">
            <path d="M 1422.4298 413.48814 C 1422.4298 410.96814 1420.6028 409.41414 1417.9358 409.41414 L 1414.3658 409.41414 L 1414.3658 423.69414 L 1415.8988 423.69414 L 1415.8988 417.66714 L 1417.8098 417.66714 C 1420.2668 417.68814 1422.4298 416.23914 1422.4298 413.48814 Z M 1420.8338 413.53014 C 1420.8338 415.58814 1419.3428 416.26014 1417.8518 416.26014 L 1415.8988 416.26014 L 1415.8988 410.82114 L 1417.9568 410.82114 C 1419.6578 410.82114 1420.8338 411.80814 1420.8338 413.53014 Z" fill="black"/>
          </g>
          <g id="Graphic_654">
            <path d="M 1431.6278 423.00114 C 1431.1868 422.77014 1430.7878 422.24514 1430.7878 421.51014 L 1430.7878 417.05814 C 1430.7878 414.91614 1429.2758 414.03414 1427.7638 414.03414 C 1426.3358 414.03414 1425.2438 414.55914 1424.4038 415.06314 L 1424.9078 416.21814 C 1425.7688 415.60914 1426.5878 415.27314 1427.4068 415.27314 C 1428.3098 415.27314 1429.4018 415.77714 1429.4018 417.37314 L 1429.4018 418.42314 C 1428.8768 418.33914 1428.2468 418.27614 1427.7428 418.27614 C 1424.9708 418.27614 1424.0048 419.80914 1424.0048 421.21614 C 1424.0048 422.93814 1425.2648 423.94614 1426.7768 423.94614 C 1427.8478 423.94614 1428.8348 423.52614 1429.4648 422.66514 L 1429.5698 422.66514 C 1429.7168 423.25314 1430.1578 423.67314 1430.5988 423.96714 L 1431.6278 423.08514 Z M 1429.4018 421.17414 C 1429.0028 422.09814 1428.1208 422.72814 1427.0708 422.72814 C 1426.1468 422.72814 1425.4328 422.20314 1425.4328 421.19514 C 1425.4328 420.08214 1426.2518 419.34714 1427.7218 419.34714 C 1428.3518 419.34714 1428.9398 419.43114 1429.4018 419.51514 Z" fill="black"/>
          </g>
          <g id="Graphic_655">
            <path d="M 1435.1348 415.18914 L 1434.7988 414.22314 L 1433.8328 414.28614 L 1433.8328 427.97814 L 1435.3028 427.72614 L 1435.3028 423.08514 L 1435.4078 423.08514 C 1435.9958 423.73614 1436.9828 423.94614 1437.6758 423.94614 C 1439.2088 423.94614 1441.8128 422.77014 1441.8128 419.01114 C 1441.8128 415.44114 1439.7128 414.03414 1437.8228 414.03414 C 1436.7938 414.03414 1435.8698 414.45414 1435.2398 415.18914 Z M 1437.5918 415.29414 C 1438.6628 415.29414 1440.3008 416.02914 1440.3008 419.11614 C 1440.3008 421.80414 1438.7468 422.68614 1437.4028 422.68614 C 1436.4578 422.68614 1435.7648 422.43414 1435.3028 421.63614 L 1435.3028 416.40714 C 1435.7648 415.73514 1436.5838 415.29414 1437.5918 415.29414 Z" fill="black"/>
          </g>
          <g id="Graphic_656">
            <path d="M 1451.0108 419.38914 C 1451.1998 418.84314 1451.2628 418.17114 1451.2628 417.77214 C 1451.2628 415.69314 1449.9608 414.03414 1447.8188 414.03414 C 1445.4668 414.03414 1443.7028 416.17614 1443.7028 419.24214 C 1443.7028 422.53914 1445.6348 423.94614 1447.7558 423.94614 C 1448.9738 423.94614 1450.0448 423.54714 1450.6958 422.91714 L 1450.4228 421.69914 L 1450.3598 421.69914 C 1449.7718 422.28714 1448.8058 422.70714 1447.9868 422.70714 C 1446.4538 422.70714 1445.2148 421.84614 1445.2148 419.38914 Z M 1445.2778 418.29714 C 1445.3618 416.59614 1446.3068 415.25214 1447.7768 415.25214 C 1448.9948 415.25214 1450.0448 416.40714 1449.7508 418.29714 Z" fill="black"/>
          </g>
          <g id="Graphic_657">
            <path d="M 1458.0038 414.11814 C 1456.8278 414.13914 1455.6938 415.16814 1455.1478 416.49114 L 1454.9378 416.49114 L 1454.8118 414.28614 L 1453.5728 414.28614 L 1453.5728 423.69414 L 1455.0428 423.69414 L 1455.0428 418.84314 C 1455.3998 417.12114 1456.6808 415.75614 1457.8988 415.67214 L 1458.5288 415.67214 L 1458.5288 414.16014 C 1458.3608 414.13914 1458.2348 414.11814 1458.0038 414.11814 Z" fill="black"/>
          </g>
          <g id="Graphic_658">
            <path d="M 1469.7008 423.69414 L 1469.7008 409.49814 L 1469.3438 409.24614 L 1465.2488 409.77114 L 1465.3748 411.13614 L 1468.1888 410.80014 L 1468.1888 423.69414 Z" fill="black"/>
          </g>
        </g>
        <g id="Group_665">
          <title/>
          <g id="Graphic_660">
            <path d="M 1577.4068 287.00008 L 1569.7208 287.00008 L 1569.7208 301.28008 L 1577.6168 301.28008 L 1577.6168 299.87308 L 1571.2538 299.87308 L 1571.2538 294.56008 L 1576.7768 294.56008 L 1576.7768 293.13208 L 1571.2538 293.13208 L 1571.2538 288.40708 L 1577.4068 288.40708 Z" fill="black"/>
          </g>
          <g id="Graphic_661">
            <path d="M 1581.2498 292.77508 L 1580.9138 291.80908 L 1579.9478 291.87208 L 1579.9478 305.56408 L 1581.4178 305.31208 L 1581.4178 300.67108 L 1581.5228 300.67108 C 1582.1108 301.32208 1583.0978 301.53208 1583.7908 301.53208 C 1585.3238 301.53208 1587.9278 300.35608 1587.9278 296.59708 C 1587.9278 293.02708 1585.8278 291.62008 1583.9378 291.62008 C 1582.9088 291.62008 1581.9848 292.04008 1581.3548 292.77508 Z M 1583.7068 292.88008 C 1584.7778 292.88008 1586.4158 293.61508 1586.4158 296.70208 C 1586.4158 299.39008 1584.8618 300.27208 1583.5178 300.27208 C 1582.5728 300.27208 1581.8798 300.02008 1581.4178 299.22208 L 1581.4178 293.99308 C 1581.8798 293.32108 1582.6988 292.88008 1583.7068 292.88008 Z" fill="black"/>
          </g>
          <g id="Graphic_662">
            <path d="M 1598.2178 296.66008 C 1598.2178 293.76208 1596.5588 291.62008 1593.9338 291.62008 C 1591.5398 291.62008 1589.8178 293.74108 1589.8178 296.66008 C 1589.8178 299.51608 1591.6448 301.53208 1594.0178 301.53208 C 1596.3488 301.53208 1598.2178 299.51608 1598.2178 296.66008 Z M 1596.7058 296.63908 C 1596.7058 298.82308 1595.5718 300.31408 1594.0178 300.31408 C 1592.4008 300.31408 1591.3298 298.80208 1591.3298 296.63908 C 1591.3298 294.47608 1592.3588 292.83808 1593.9338 292.83808 C 1595.6558 292.83808 1596.7058 294.43408 1596.7058 296.63908 Z" fill="black"/>
          </g>
          <g id="Graphic_663">
            <path d="M 1607.2058 292.62808 C 1606.3658 291.99808 1605.6518 291.62008 1604.3708 291.62008 C 1602.1238 291.62008 1600.1078 293.84608 1600.1078 296.87008 C 1600.1078 299.55808 1601.6828 301.53208 1604.2658 301.53208 C 1605.3368 301.53208 1606.4078 301.07008 1607.0588 300.52408 L 1606.6388 299.43208 C 1606.0508 299.89408 1605.3158 300.33508 1604.3288 300.33508 C 1602.8168 300.33508 1601.6198 299.18008 1601.6198 296.82808 C 1601.6198 294.47608 1602.8588 292.83808 1604.4548 292.83808 C 1605.3158 292.83808 1606.0298 293.21608 1606.6598 293.76208 Z" fill="black"/>
          </g>
          <g id="Graphic_664">
            <path d="M 1610.3978 293.00608 L 1610.3978 286.74808 L 1608.9278 287.00008 L 1608.9278 301.28008 L 1610.3978 301.28008 L 1610.3978 294.37108 C 1611.1118 293.51008 1612.0988 292.96408 1613.0438 292.96408 C 1613.9048 292.96408 1614.8078 293.53108 1614.8078 295.12708 L 1614.8078 301.28008 L 1616.2778 301.28008 L 1616.2778 294.85408 C 1616.2778 292.56508 1614.9968 291.62008 1613.5268 291.62008 C 1612.3718 291.62008 1611.2588 292.22908 1610.5028 293.00608 Z" fill="black"/>
          </g>
        </g>
      </g>
    </g>
  </g>
</svg>
