<?xml version="1.0" encoding="UTF-8" standalone="no"?>
<!DOCTYPE svg PUBLIC "-//W3C//DTD SVG 1.1//EN" "http://www.w3.org/Graphics/SVG/1.1/DTD/svg11.dtd">
<svg version="1.1" xmlns="http://www.w3.org/2000/svg" xmlns:xl="http://www.w3.org/1999/xlink" xmlns:dc="http://purl.org/dc/elements/1.1/" viewBox="545.5 738.5 827 150.5" width="827" height="150.5">
  <defs>
    <marker orient="auto" overflow="visible" markerUnits="strokeWidth" id="FilledArrow_Marker" stroke-linejoin="miter" stroke-miterlimit="10" viewBox="-1 -4 10 8" markerWidth="10" markerHeight="8" color="black">
      <g>
        <path d="M 8 0 L 0 -3 L 0 3 Z" fill="currentColor" stroke="currentColor" stroke-width="1"/>
      </g>
    </marker>
  </defs>
  <g id="Canvas_1" fill-opacity="1" stroke="none" stroke-opacity="1" stroke-dasharray="none" fill="none">
    <title>Canvas 1</title>
    <rect fill="white" x="545.5" y="738.5" width="827" height="150.5"/>
    <g id="Canvas_1_Layer_1">
      <title>Layer 1</title>
      <g id="Group_78">
        <g id="Graphic_39">
          <path d="M 738 744 L 1362 744 C 1364.7614 744 1367 746.2386 1367 749 L 1367 878.5 C 1367 881.2614 1364.7614 883.5 1362 883.5 L 738 883.5 C 735.2386 883.5 733 881.2614 733 878.5 L 733 749 C 733 746.2386 735.2386 744 738 744 Z" fill="#d2dfc7"/>
          <path d="M 738 744 L 1362 744 C 1364.7614 744 1367 746.2386 1367 749 L 1367 878.5 C 1367 881.2614 1364.7614 883.5 1362 883.5 L 738 883.5 C 735.2386 883.5 733 881.2614 733 878.5 L 733 749 C 733 746.2386 735.2386 744 738 744 Z" stroke="#121212" stroke-linecap="round" stroke-linejoin="round" stroke-width="1"/>
          <text transform="translate(738 749)" fill="black">
            <tspan font-family="Helvetica Neue" font-size="16" fill="black" x="268.144" y="15">AST Macros</tspan>
          </text>
        </g>
        <g id="Graphic_41">
          <path d="M 946.5 773 L 1353.5 773 C 1356.2614 773 1358.5 775.2386 1358.5 778 L 1358.5 863.312 C 1358.5 866.0734 1356.2614 868.312 1353.5 868.312 L 946.5 868.312 C 943.7386 868.312 941.5 866.0734 941.5 863.312 L 941.5 778 C 941.5 775.2386 943.7386 773 946.5 773 Z" fill="#a1e6f8"/>
          <path d="M 946.5 773 L 1353.5 773 C 1356.2614 773 1358.5 775.2386 1358.5 778 L 1358.5 863.312 C 1358.5 866.0734 1356.2614 868.312 1353.5 868.312 L 946.5 868.312 C 943.7386 868.312 941.5 866.0734 941.5 863.312 L 941.5 778 C 941.5 775.2386 943.7386 773 946.5 773 Z" stroke="#121212" stroke-linecap="round" stroke-linejoin="round" stroke-width="1"/>
          <text transform="translate(946.5 778)" fill="black">
            <tspan font-family="Helvetica Neue" font-size="16" fill="black" x="145.42" y="15">Hygenic Macros</tspan>
          </text>
        </g>
        <g id="Graphic_38">
          <path d="M 556 744 L 667 744 C 669.7614 744 672 746.2386 672 749 L 672 878.5 C 672 881.2614 669.7614 883.5 667 883.5 L 556 883.5 C 553.2386 883.5 551 881.2614 551 878.5 L 551 749 C 551 746.2386 553.2386 744 556 744 Z" fill="#e8c5bb"/>
          <path d="M 556 744 L 667 744 C 669.7614 744 672 746.2386 672 749 L 672 878.5 C 672 881.2614 669.7614 883.5 667 883.5 L 556 883.5 C 553.2386 883.5 551 881.2614 551 878.5 L 551 749 C 551 746.2386 553.2386 744 556 744 Z" stroke="#121212" stroke-linecap="round" stroke-linejoin="round" stroke-width="1"/>
          <text transform="translate(556 749)" fill="black">
            <tspan font-family="Helvetica Neue" font-size="16" fill="black" x="5.412" y="15">Token Macros</tspan>
          </text>
        </g>
        <g id="Graphic_35">
          <path d="M 566.5 799.5 L 656.5 799.5 C 659.2614 799.5 661.5 801.7386 661.5 804.5 L 661.5 854.5 C 661.5 857.2614 659.2614 859.5 656.5 859.5 L 566.5 859.5 C 563.7386 859.5 561.5 857.2614 561.5 854.5 L 561.5 804.5 C 561.5 801.7386 563.7386 799.5 566.5 799.5 Z" fill="white"/>
          <path d="M 566.5 799.5 L 656.5 799.5 C 659.2614 799.5 661.5 801.7386 661.5 804.5 L 661.5 854.5 C 661.5 857.2614 659.2614 859.5 656.5 859.5 L 566.5 859.5 C 563.7386 859.5 561.5 857.2614 561.5 854.5 L 561.5 804.5 C 561.5 801.7386 563.7386 799.5 566.5 799.5 Z" stroke="#121212" stroke-linecap="round" stroke-linejoin="round" stroke-width="1"/>
          <text transform="translate(566.5 819.262)" fill="black">
            <tspan font-family="Helvetica Neue" font-size="17" fill="black" x="8.161" y="16">C Macros</tspan>
          </text>
        </g>
        <g id="Graphic_34">
          <path d="M 752 799.5 L 855 799.5 C 857.7614 799.5 860 801.7386 860 804.5 L 860 854.5 C 860 857.2614 857.7614 859.5 855 859.5 L 752 859.5 C 749.2386 859.5 747 857.2614 747 854.5 L 747 804.5 C 747 801.7386 749.2386 799.5 752 799.5 Z" fill="white"/>
          <path d="M 752 799.5 L 855 799.5 C 857.7614 799.5 860 801.7386 860 804.5 L 860 854.5 C 860 857.2614 857.7614 859.5 855 859.5 L 752 859.5 C 749.2386 859.5 747 857.2614 747 854.5 L 747 804.5 C 747 801.7386 749.2386 799.5 752 799.5 Z" stroke="#121212" stroke-linecap="round" stroke-linejoin="round" stroke-width="1"/>
          <text transform="translate(752 819.262)" fill="black">
            <tspan font-family="Helvetica Neue" font-size="17" fill="black" x="4.8945" y="16">Lisp Macros</tspan>
          </text>
        </g>
        <g id="Line_31">
          <line x1="661.5" y1="829.5" x2="737.1" y2="829.5" marker-end="url(#FilledArrow_Marker)" stroke="black" stroke-linecap="round" stroke-linejoin="round" stroke-width="1"/>
        </g>
        <g id="Line_30">
          <line x1="860" y1="829.5" x2="945.6" y2="829.5" marker-end="url(#FilledArrow_Marker)" stroke="black" stroke-linecap="round" stroke-linejoin="round" stroke-width="1"/>
        </g>
        <g id="Line_29">
          <line x1="1095.5" y1="829.5" x2="1203.1" y2="829.5" marker-end="url(#FilledArrow_Marker)" stroke="black" stroke-linecap="round" stroke-linejoin="round" stroke-width="1"/>
        </g>
        <g id="Group_42">
          <g id="Graphic_33">
            <path d="M 960.5 799.5 L 1090.5 799.5 C 1093.2614 799.5 1095.5 801.7386 1095.5 804.5 L 1095.5 854.5 C 1095.5 857.2614 1093.2614 859.5 1090.5 859.5 L 960.5 859.5 C 957.7386 859.5 955.5 857.2614 955.5 854.5 L 955.5 804.5 C 955.5 801.7386 957.7386 799.5 960.5 799.5 Z" fill="white"/>
            <path d="M 960.5 799.5 L 1090.5 799.5 C 1093.2614 799.5 1095.5 801.7386 1095.5 804.5 L 1095.5 854.5 C 1095.5 857.2614 1093.2614 859.5 1090.5 859.5 L 960.5 859.5 C 957.7386 859.5 955.5 857.2614 955.5 854.5 L 955.5 804.5 C 955.5 801.7386 957.7386 799.5 960.5 799.5 Z" stroke="#121212" stroke-linecap="round" stroke-linejoin="round" stroke-width="1"/>
            <text transform="translate(960.5 819.262)" fill="black">
              <tspan font-family="Helvetica Neue" font-size="17" fill="black" x="3.12" y="16">Scheme Macros</tspan>
            </text>
          </g>
          <g id="Graphic_32">
            <path d="M 1218 799.5 L 1348 799.5 C 1350.7614 799.5 1353 801.7386 1353 804.5 L 1353 854.5 C 1353 857.2614 1350.7614 859.5 1348 859.5 L 1218 859.5 C 1215.2386 859.5 1213 857.2614 1213 854.5 L 1213 804.5 C 1213 801.7386 1215.2386 799.5 1218 799.5 Z" fill="white"/>
            <path d="M 1218 799.5 L 1348 799.5 C 1350.7614 799.5 1353 801.7386 1353 804.5 L 1353 854.5 C 1353 857.2614 1350.7614 859.5 1348 859.5 L 1218 859.5 C 1215.2386 859.5 1213 857.2614 1213 854.5 L 1213 804.5 C 1213 801.7386 1215.2386 799.5 1218 799.5 Z" stroke="#121212" stroke-linecap="round" stroke-linejoin="round" stroke-width="1"/>
            <text transform="translate(1218 819.262)" fill="black">
              <tspan font-family="Helvetica Neue" font-size="17" fill="black" x="7.693" y="16">Racket Macros</tspan>
            </text>
          </g>
        </g>
        <g id="Group_51">
          <title>-&gt; AST</title>
          <g id="Graphic_46">
            <rect x="677.5779" y="818.6988" width="12.816" height="1.12" fill="black"/>
          </g>
          <g id="Graphic_47">
            <path d="M 685.8499 822.6988 L 685.3059 821.6908 L 690.2499 819.2588 L 685.3059 816.8268 L 685.8499 815.8188 L 691.5299 818.6348 L 691.5299 819.8828 Z" fill="black"/>
          </g>
          <g id="Graphic_48">
            <path d="M 701.2579 824.6988 L 703.8339 812.9388 L 705.2739 812.9388 L 706.1379 816.8588 L 707.8499 824.6988 L 706.5699 824.6988 L 705.9459 821.6588 L 703.1619 821.6588 L 702.5379 824.6988 Z M 705.7219 820.5388 L 704.9699 816.8588 C 704.8952 816.5175 704.8232 816.1762 704.7539 815.8348 C 704.6846 815.4935 704.6179 815.1522 704.5539 814.8108 C 704.4899 815.1522 704.4232 815.4935 704.3539 815.8348 C 704.2846 816.1762 704.2126 816.5175 704.1379 816.8588 L 703.3859 820.5388 Z" fill="black"/>
          </g>
          <g id="Graphic_49">
            <path d="M 712.5379 824.8268 C 712.2712 824.8268 712.0046 824.8055 711.7379 824.7628 C 711.4712 824.7202 711.2179 824.6428 710.9779 824.5308 C 710.7379 824.4188 710.5166 824.2722 710.3139 824.0908 C 710.1112 823.9095 709.9432 823.7042 709.8099 823.4748 C 709.6766 823.2455 709.5779 823.0002 709.5139 822.7388 C 709.4499 822.4775 709.4179 822.2135 709.4179 821.9468 C 709.4179 821.9362 709.4179 821.9282 709.4179 821.9228 C 709.4179 821.9175 709.4179 821.9095 709.4179 821.8988 L 710.6659 821.8988 C 710.6659 821.8988 710.6659 821.9015 710.6659 821.9068 C 710.6659 821.9122 710.6659 821.9202 710.6659 821.9308 C 710.6659 822.1655 710.7086 822.4002 710.7939 822.6348 C 710.8792 822.8695 711.0099 823.0722 711.1859 823.2428 C 711.3619 823.4135 711.5699 823.5335 711.8099 823.6028 C 712.0499 823.6722 712.2926 823.7068 712.5379 823.7068 C 712.7832 823.7068 713.0312 823.6668 713.2819 823.5868 C 713.5326 823.5068 713.7432 823.3735 713.9139 823.1868 C 714.0846 823.0002 714.2126 822.7842 714.2979 822.5388 C 714.3832 822.2935 714.4259 822.0428 714.4259 821.7868 C 714.4259 821.5202 714.3699 821.2588 714.2579 821.0028 C 714.1459 820.7468 713.9966 820.5202 713.8099 820.3228 C 713.6232 820.1255 713.4099 819.9602 713.1699 819.8268 C 712.9299 819.6935 712.6872 819.5682 712.4419 819.4508 C 712.1966 819.3335 711.9566 819.2082 711.7219 819.0748 C 711.4872 818.9415 711.2606 818.7895 711.0419 818.6188 C 710.8232 818.4482 710.6232 818.2615 710.4419 818.0588 C 710.2606 817.8562 710.1032 817.6375 709.9699 817.4028 C 709.8366 817.1682 709.7379 816.9175 709.6739 816.6508 C 709.6099 816.3842 709.5779 816.1175 709.5779 815.8508 C 709.5779 815.5735 709.6072 815.3042 709.6659 815.0428 C 709.7246 814.7815 709.8126 814.5308 709.9299 814.2908 C 710.0472 814.0508 710.1992 813.8322 710.3859 813.6348 C 710.5726 813.4375 710.7832 813.2748 711.0179 813.1468 C 711.2526 813.0188 711.5032 812.9308 711.7699 812.8828 C 712.0366 812.8348 712.3032 812.8108 712.5699 812.8108 C 712.8366 812.8108 713.0979 812.8322 713.3539 812.8748 C 713.6099 812.9175 713.8552 812.9975 714.0899 813.1148 C 714.3246 813.2322 714.5379 813.3842 714.7299 813.5708 C 714.9219 813.7575 715.0792 813.9655 715.2019 814.1948 C 715.3246 814.4242 715.4152 814.6668 715.4739 814.9228 C 715.5326 815.1788 715.5619 815.4402 715.5619 815.7068 C 715.5619 815.7068 715.5619 815.7122 715.5619 815.7228 C 715.5619 815.7335 715.5619 815.7442 715.5619 815.7548 L 714.3139 815.7548 C 714.3139 815.7442 714.3139 815.7362 714.3139 815.7308 C 714.3139 815.7255 714.3139 815.7228 714.3139 815.7228 C 714.3139 815.4882 714.2766 815.2562 714.2019 815.0268 C 714.1272 814.7975 714.0099 814.5975 713.8499 814.4268 C 713.6899 814.2562 713.4952 814.1308 713.2659 814.0508 C 713.0366 813.9708 712.8046 813.9308 712.5699 813.9308 C 712.3246 813.9308 712.0846 813.9762 711.8499 814.0668 C 711.6152 814.1575 711.4206 814.2962 711.2659 814.4828 C 711.1112 814.6695 710.9966 814.8828 710.9219 815.1228 C 710.8472 815.3628 710.8099 815.6002 710.8099 815.8348 C 710.8099 816.1122 710.8659 816.3788 710.9779 816.6348 C 711.0899 816.8908 711.2392 817.1175 711.4259 817.3148 C 711.6126 817.5122 711.8259 817.6775 712.0659 817.8108 C 712.3059 817.9442 712.5459 818.0695 712.7859 818.1868 C 713.0259 818.3042 713.2659 818.4295 713.5059 818.5628 C 713.7459 818.6962 713.9726 818.8455 714.1859 819.0108 C 714.3992 819.1762 714.5992 819.3602 714.7859 819.5628 C 714.9726 819.7655 715.1299 819.9868 715.2579 820.2268 C 715.3859 820.4668 715.4846 820.7202 715.5539 820.9868 C 715.6232 821.2535 715.6579 821.5202 715.6579 821.7868 C 715.6579 822.0642 715.6259 822.3362 715.5619 822.6028 C 715.4979 822.8695 715.4019 823.1255 715.2739 823.3708 C 715.1459 823.6162 714.9832 823.8348 714.7859 824.0268 C 714.5886 824.2188 714.3672 824.3762 714.1219 824.4988 C 713.8766 824.6215 713.6179 824.7068 713.3459 824.7548 C 713.0739 824.8028 712.8046 824.8268 712.5379 824.8268 Z" fill="black"/>
          </g>
          <g id="Graphic_50">
            <path d="M 719.9299 824.6988 L 719.9299 814.0588 L 717.3859 814.0588 L 717.3859 812.9388 L 723.7219 812.9388 L 723.7219 814.0588 L 721.1779 814.0588 L 721.1779 824.6988 Z" fill="black"/>
          </g>
        </g>
        <g id="Group_60">
          <title>+ hygiene</title>
          <g id="Graphic_52">
            <path d="M 868.1454 822.3468 L 868.1454 819.8188 L 865.7934 819.8188 L 865.7934 818.6988 L 868.1454 818.6988 L 868.1454 816.1708 L 869.3934 816.1708 L 869.3934 818.6988 L 871.7454 818.6988 L 871.7454 819.8188 L 869.3934 819.8188 L 869.3934 822.3468 Z" fill="black"/>
          </g>
          <g id="Graphic_53">
            <path d="M 881.7934 824.6988 L 881.7934 812.9388 L 883.0414 812.9388 L 883.0414 817.8348 C 883.1267 817.6108 883.2387 817.3975 883.3774 817.1948 C 883.516 816.9922 883.684 816.8162 883.8814 816.6668 C 884.0787 816.5175 884.2974 816.4108 884.5374 816.3468 C 884.7774 816.2828 885.0147 816.2508 885.2494 816.2508 C 885.516 816.2508 885.7774 816.2882 886.0334 816.3628 C 886.2894 816.4375 886.516 816.5575 886.7134 816.7228 C 886.9107 816.8882 887.0787 817.0855 887.2174 817.3148 C 887.356 817.5442 887.4654 817.7842 887.5454 818.0348 C 887.6254 818.2855 887.6787 818.5415 887.7054 818.8028 C 887.732 819.0642 887.7454 819.3228 887.7454 819.5788 L 887.7454 824.6988 L 886.4974 824.6988 L 886.4974 819.5788 C 886.4974 819.3975 886.4867 819.2188 886.4654 819.0428 C 886.444 818.8668 886.4067 818.6962 886.3534 818.5308 C 886.3 818.3655 886.2227 818.2082 886.1214 818.0588 C 886.02 817.9095 885.9 817.7815 885.7614 817.6748 C 885.6227 817.5682 885.468 817.4908 885.2974 817.4428 C 885.1267 817.3948 884.9507 817.3708 884.7694 817.3708 C 884.588 817.3708 884.412 817.3948 884.2414 817.4428 C 884.0707 817.4908 883.916 817.5682 883.7774 817.6748 C 883.6387 817.7815 883.5187 817.9095 883.4174 818.0588 C 883.316 818.2082 883.2387 818.3655 883.1854 818.5308 C 883.132 818.6962 883.0947 818.8668 883.0734 819.0428 C 883.052 819.2188 883.0414 819.3975 883.0414 819.5788 L 883.0414 824.6988 Z" fill="black"/>
          </g>
          <g id="Graphic_54">
            <path d="M 889.9854 828.1388 L 889.9854 827.0188 L 890.8334 827.0188 C 890.94 827.0188 891.052 827.0055 891.1694 826.9788 C 891.2867 826.9522 891.3854 826.8962 891.4654 826.8108 C 891.5454 826.7255 891.6067 826.6295 891.6494 826.5228 C 891.692 826.4162 891.7294 826.3095 891.7614 826.2028 L 892.1294 824.9388 L 889.5854 816.3788 L 890.8814 816.3788 L 892.7854 823.0188 L 894.6574 816.3788 L 895.9534 816.3788 L 892.9614 826.5068 C 892.9507 826.5388 892.9427 826.5655 892.9374 826.5868 C 892.932 826.6082 892.924 826.6348 892.9134 826.6668 C 892.8387 826.8908 892.7454 827.1068 892.6334 827.3148 C 892.5214 827.5228 892.3694 827.6935 892.1774 827.8268 C 891.9854 827.9602 891.772 828.0455 891.5374 828.0828 C 891.3027 828.1202 891.068 828.1388 890.8334 828.1388 Z" fill="black"/>
          </g>
          <g id="Graphic_55">
            <path d="M 900.7694 828.2668 C 900.5027 828.2668 900.236 828.2508 899.9694 828.2188 C 899.7027 828.1868 899.444 828.1228 899.1934 828.0268 C 898.9427 827.9308 898.708 827.8055 898.4894 827.6508 C 898.2707 827.4962 898.0867 827.3068 897.9374 827.0828 C 897.788 826.8588 897.6787 826.6162 897.6094 826.3548 C 897.54 826.0935 897.5054 825.8295 897.5054 825.5628 C 897.5054 825.3815 897.5214 825.2002 897.5534 825.0188 C 897.5854 824.8375 897.6414 824.6615 897.7214 824.4908 C 897.8014 824.3202 897.9 824.1655 898.0174 824.0268 C 898.1347 823.8882 898.268 823.7655 898.4174 823.6588 C 898.2787 823.5095 898.1694 823.3335 898.0894 823.1308 C 898.0094 822.9282 897.9694 822.7202 897.9694 822.5068 C 897.9694 822.2402 898.028 821.9815 898.1454 821.7308 C 898.2627 821.4802 898.4227 821.2695 898.6254 821.0988 C 898.4654 820.9708 898.3214 820.8268 898.1934 820.6668 C 898.0654 820.5068 897.9614 820.3335 897.8814 820.1468 C 897.8014 819.9602 897.7454 819.7655 897.7134 819.5628 C 897.6814 819.3602 897.6654 819.1575 897.6654 818.9548 C 897.6654 818.6988 897.692 818.4455 897.7454 818.1948 C 897.7987 817.9442 897.8894 817.7095 898.0174 817.4908 C 898.1454 817.2722 898.3054 817.0802 898.4974 816.9148 C 898.6894 816.7495 898.9027 816.6162 899.1374 816.5148 C 899.372 816.4135 899.6147 816.3388 899.8654 816.2908 C 900.116 816.2428 900.364 816.2188 900.6094 816.2188 C 900.78 816.2188 900.9454 816.2295 901.1054 816.2508 C 901.2654 816.2722 901.42 816.2988 901.5694 816.3308 L 901.7134 816.3788 L 904.1294 816.3788 L 904.1294 817.4988 L 903.2014 817.4668 C 903.34 817.6908 903.436 817.9308 903.4894 818.1868 C 903.5427 818.4428 903.5694 818.6988 903.5694 818.9548 C 903.5694 819.2002 903.5427 819.4482 903.4894 819.6988 C 903.436 819.9495 903.3454 820.1842 903.2174 820.4028 C 903.0894 820.6215 902.9294 820.8162 902.7374 820.9868 C 902.5454 821.1575 902.332 821.2935 902.0974 821.3948 C 901.8627 821.4962 901.62 821.5655 901.3694 821.6028 C 901.1187 821.6402 900.8654 821.6588 900.6094 821.6588 C 900.428 821.6588 900.2494 821.6482 900.0734 821.6268 C 899.8974 821.6055 899.7187 821.5735 899.5374 821.5308 C 899.4094 821.6055 899.3027 821.7095 899.2174 821.8428 C 899.132 821.9762 899.0894 822.1228 899.0894 822.2828 C 899.0894 822.4108 899.1187 822.5308 899.1774 822.6428 C 899.236 822.7548 899.3187 822.8482 899.4254 822.9228 C 899.532 822.9975 899.6467 823.0508 899.7694 823.0828 C 899.892 823.1148 900.0174 823.1362 900.1454 823.1468 C 900.156 823.1468 900.1667 823.1468 900.1774 823.1468 C 900.188 823.1468 900.1987 823.1468 900.2094 823.1468 C 900.2414 823.1468 900.2707 823.1468 900.2974 823.1468 C 900.324 823.1468 900.3534 823.1468 900.3854 823.1468 L 901.1534 823.1468 C 901.3987 823.1468 901.6387 823.1602 901.8734 823.1868 C 902.108 823.2135 902.3374 823.2722 902.5614 823.3628 C 902.7854 823.4535 902.996 823.5682 903.1934 823.7068 C 903.3907 823.8455 903.556 824.0162 903.6894 824.2188 C 903.8227 824.4215 903.916 824.6402 903.9694 824.8748 C 904.0227 825.1095 904.0494 825.3495 904.0494 825.5948 C 904.0494 825.8615 904.0147 826.1255 903.9454 826.3868 C 903.876 826.6482 903.764 826.8882 903.6094 827.1068 C 903.4547 827.3255 903.268 827.5122 903.0494 827.6668 C 902.8307 827.8215 902.596 827.9442 902.3454 828.0348 C 902.0947 828.1255 901.836 828.1868 901.5694 828.2188 C 901.3027 828.2508 901.036 828.2668 900.7694 828.2668 Z M 900.6094 820.5388 C 900.8334 820.5388 901.0547 820.5095 901.2734 820.4508 C 901.492 820.3922 901.684 820.2882 901.8494 820.1388 C 902.0147 819.9895 902.1347 819.8082 902.2094 819.5948 C 902.284 819.3815 902.3214 819.1682 902.3214 818.9548 C 902.3214 818.7522 902.2894 818.5495 902.2254 818.3468 C 902.1614 818.1442 902.0574 817.9708 901.9134 817.8268 C 901.7694 817.6828 901.5987 817.5762 901.4014 817.5068 C 901.204 817.4375 900.9987 817.3922 900.7854 817.3708 L 900.6094 817.3708 C 900.6094 817.3708 900.6067 817.3708 900.6014 817.3708 C 900.596 817.3708 900.5934 817.3708 900.5934 817.3708 C 900.38 817.3708 900.164 817.4002 899.9454 817.4588 C 899.7267 817.5175 899.5374 817.6215 899.3774 817.7708 C 899.2174 817.9202 899.1 818.0988 899.0254 818.3068 C 898.9507 818.5148 898.9134 818.7308 898.9134 818.9548 C 898.9134 819.1682 898.9507 819.3815 899.0254 819.5948 C 899.1 819.8082 899.22 819.9895 899.3854 820.1388 C 899.5507 820.2882 899.7427 820.3922 899.9614 820.4508 C 900.18 820.5095 900.396 820.5388 900.6094 820.5388 Z M 900.7694 827.1468 C 901.0147 827.1468 901.2574 827.1228 901.4974 827.0748 C 901.7374 827.0268 901.9587 826.9388 902.1614 826.8108 C 902.364 826.6828 902.524 826.5095 902.6414 826.2908 C 902.7587 826.0722 902.8174 825.8402 902.8174 825.5948 C 902.8174 825.3922 902.7747 825.1975 902.6894 825.0108 C 902.604 824.8242 902.476 824.6748 902.3054 824.5628 C 902.1347 824.4508 901.9507 824.3735 901.7534 824.3308 C 901.556 824.2882 901.356 824.2668 901.1534 824.2668 L 900.3854 824.2668 C 900.3534 824.2668 900.3214 824.2668 900.2894 824.2668 C 900.2574 824.2668 900.2307 824.2668 900.2094 824.2668 C 900.028 824.2775 899.8467 824.3095 899.6654 824.3628 C 899.484 824.4162 899.3214 824.4988 899.1774 824.6108 C 899.0334 824.7228 898.9267 824.8642 898.8574 825.0348 C 898.788 825.2055 898.7534 825.3815 898.7534 825.5628 C 898.7534 825.8082 898.8094 826.0428 898.9214 826.2668 C 899.0334 826.4908 899.188 826.6695 899.3854 826.8028 C 899.5827 826.9362 899.8014 827.0268 900.0414 827.0748 C 900.2814 827.1228 900.524 827.1468 900.7694 827.1468 Z" fill="black"/>
          </g>
          <g id="Graphic_56">
            <path d="M 905.9694 824.6988 L 905.9694 823.5788 L 908.2574 823.5788 L 908.2574 817.4988 L 906.1934 817.4988 L 906.1934 816.3788 L 909.5054 816.3788 L 909.5054 823.5788 L 911.5694 823.5788 L 911.5694 824.6988 Z M 908.7694 814.9708 C 908.6307 814.9708 908.4974 814.9522 908.3694 814.9148 C 908.2414 814.8775 908.1294 814.8108 908.0334 814.7148 C 907.9374 814.6188 907.8707 814.5068 907.8334 814.3788 C 907.796 814.2508 907.7774 814.1175 907.7774 813.9788 C 907.7774 813.8402 907.796 813.7068 907.8334 813.5788 C 907.8707 813.4508 907.9374 813.3388 908.0334 813.2428 C 908.1294 813.1468 908.2414 813.0775 908.3694 813.0348 C 908.4974 812.9922 908.6307 812.9708 908.7694 812.9708 C 908.908 812.9708 909.0414 812.9922 909.1694 813.0348 C 909.2974 813.0775 909.4094 813.1468 909.5054 813.2428 C 909.6014 813.3388 909.6707 813.4508 909.7134 813.5788 C 909.756 813.7068 909.7774 813.8402 909.7774 813.9788 C 909.7774 814.1175 909.756 814.2508 909.7134 814.3788 C 909.6707 814.5068 909.6014 814.6188 909.5054 814.7148 C 909.4094 814.8108 909.2974 814.8775 909.1694 814.9148 C 909.0414 814.9522 908.908 814.9708 908.7694 814.9708 Z" fill="black"/>
          </g>
          <g id="Graphic_57">
            <path d="M 916.8014 824.8268 C 916.5134 824.8268 916.2254 824.8002 915.9374 824.7468 C 915.6494 824.6935 915.38 824.5948 915.1294 824.4508 C 914.8787 824.3068 914.6547 824.1255 914.4574 823.9068 C 914.26 823.6882 914.1 823.4482 913.9774 823.1868 C 913.8547 822.9255 913.772 822.6508 913.7294 822.3628 C 913.6867 822.0748 913.6654 821.7868 913.6654 821.4988 L 913.6654 819.5788 C 913.6654 819.2908 913.6867 819.0028 913.7294 818.7148 C 913.772 818.4268 913.852 818.1522 913.9694 817.8908 C 914.0867 817.6295 914.244 817.3895 914.4414 817.1708 C 914.6387 816.9522 914.86 816.7735 915.1054 816.6348 C 915.3507 816.4962 915.6174 816.3975 915.9054 816.3388 C 916.1934 816.2802 916.4814 816.2508 916.7694 816.2508 C 917.0574 816.2508 917.3454 816.2802 917.6334 816.3388 C 917.9214 816.3975 918.188 816.4962 918.4334 816.6348 C 918.6787 816.7735 918.9 816.9522 919.0974 817.1708 C 919.2947 817.3895 919.452 817.6295 919.5694 817.8908 C 919.6867 818.1522 919.7667 818.4268 919.8094 818.7148 C 919.852 819.0028 919.8734 819.2908 919.8734 819.5788 L 919.8734 821.0988 L 914.9134 821.0988 L 914.9134 821.4988 C 914.9134 821.6802 914.924 821.8615 914.9454 822.0428 C 914.9667 822.2242 915.012 822.4002 915.0814 822.5708 C 915.1507 822.7415 915.2414 822.9015 915.3534 823.0508 C 915.4654 823.2002 915.5987 823.3255 915.7534 823.4268 C 915.908 823.5282 916.076 823.6002 916.2574 823.6428 C 916.4387 823.6855 916.62 823.7068 916.8014 823.7068 C 917.004 823.7068 917.2094 823.6855 917.4174 823.6428 C 917.6254 823.6002 917.8147 823.5255 917.9854 823.4188 C 918.156 823.3122 918.2974 823.1682 918.4094 822.9868 C 918.5214 822.8055 918.5827 822.6082 918.5934 822.3948 L 919.8414 822.3948 C 919.8307 822.6402 919.7854 822.8775 919.7054 823.1068 C 919.6254 823.3362 919.5134 823.5495 919.3694 823.7468 C 919.2254 823.9442 919.0547 824.1148 918.8574 824.2588 C 918.66 824.4028 918.4494 824.5175 918.2254 824.6028 C 918.0014 824.6882 917.7667 824.7468 917.5214 824.7788 C 917.276 824.8108 917.036 824.8268 916.8014 824.8268 Z M 918.6254 819.9788 L 918.6254 819.5788 C 918.6254 819.3975 918.6147 819.2162 918.5934 819.0348 C 918.572 818.8535 918.5294 818.6775 918.4654 818.5068 C 918.4014 818.3362 918.3134 818.1762 918.2014 818.0268 C 918.0894 817.8775 917.9587 817.7522 917.8094 817.6508 C 917.66 817.5495 917.4947 817.4775 917.3134 817.4348 C 917.132 817.3922 916.9507 817.3708 916.7694 817.3708 C 916.588 817.3708 916.4067 817.3922 916.2254 817.4348 C 916.044 817.4775 915.8787 817.5495 915.7294 817.6508 C 915.58 817.7522 915.4494 817.8775 915.3374 818.0268 C 915.2254 818.1762 915.1374 818.3362 915.0734 818.5068 C 915.0094 818.6775 914.9667 818.8535 914.9454 819.0348 C 914.924 819.2162 914.9134 819.3975 914.9134 819.5788 L 914.9134 819.9788 Z" fill="black"/>
          </g>
          <g id="Graphic_58">
            <path d="M 921.7934 824.6988 L 921.7934 816.3788 L 923.0414 816.3788 L 923.0414 817.8348 C 923.1267 817.6108 923.2387 817.3975 923.3774 817.1948 C 923.516 816.9922 923.684 816.8162 923.8814 816.6668 C 924.0787 816.5175 924.2974 816.4108 924.5374 816.3468 C 924.7774 816.2828 925.0147 816.2508 925.2494 816.2508 C 925.516 816.2508 925.7774 816.2882 926.0334 816.3628 C 926.2894 816.4375 926.516 816.5575 926.7134 816.7228 C 926.9107 816.8882 927.0787 817.0855 927.2174 817.3148 C 927.356 817.5442 927.4654 817.7842 927.5454 818.0348 C 927.6254 818.2855 927.6787 818.5415 927.7054 818.8028 C 927.732 819.0642 927.7454 819.3228 927.7454 819.5788 L 927.7454 824.6988 L 926.4974 824.6988 L 926.4974 819.5788 C 926.4974 819.3975 926.4867 819.2188 926.4654 819.0428 C 926.444 818.8668 926.4067 818.6962 926.3534 818.5308 C 926.3 818.3655 926.2227 818.2082 926.1214 818.0588 C 926.02 817.9095 925.9 817.7815 925.7614 817.6748 C 925.6227 817.5682 925.468 817.4908 925.2974 817.4428 C 925.1267 817.3948 924.9507 817.3708 924.7694 817.3708 C 924.588 817.3708 924.412 817.3948 924.2414 817.4428 C 924.0707 817.4908 923.916 817.5682 923.7774 817.6748 C 923.6387 817.7815 923.5187 817.9095 923.4174 818.0588 C 923.316 818.2082 923.2387 818.3655 923.1854 818.5308 C 923.132 818.6962 923.0947 818.8668 923.0734 819.0428 C 923.052 819.2188 923.0414 819.3975 923.0414 819.5788 L 923.0414 824.6988 Z" fill="black"/>
          </g>
          <g id="Graphic_59">
            <path d="M 932.8014 824.8268 C 932.5134 824.8268 932.2254 824.8002 931.9374 824.7468 C 931.6494 824.6935 931.38 824.5948 931.1294 824.4508 C 930.8787 824.3068 930.6547 824.1255 930.4574 823.9068 C 930.26 823.6882 930.1 823.4482 929.9774 823.1868 C 929.8547 822.9255 929.772 822.6508 929.7294 822.3628 C 929.6867 822.0748 929.6654 821.7868 929.6654 821.4988 L 929.6654 819.5788 C 929.6654 819.2908 929.6867 819.0028 929.7294 818.7148 C 929.772 818.4268 929.852 818.1522 929.9694 817.8908 C 930.0867 817.6295 930.244 817.3895 930.4414 817.1708 C 930.6387 816.9522 930.86 816.7735 931.1054 816.6348 C 931.3507 816.4962 931.6174 816.3975 931.9054 816.3388 C 932.1934 816.2802 932.4814 816.2508 932.7694 816.2508 C 933.0574 816.2508 933.3454 816.2802 933.6334 816.3388 C 933.9214 816.3975 934.188 816.4962 934.4334 816.6348 C 934.6787 816.7735 934.9 816.9522 935.0974 817.1708 C 935.2947 817.3895 935.452 817.6295 935.5694 817.8908 C 935.6867 818.1522 935.7667 818.4268 935.8094 818.7148 C 935.852 819.0028 935.8734 819.2908 935.8734 819.5788 L 935.8734 821.0988 L 930.9134 821.0988 L 930.9134 821.4988 C 930.9134 821.6802 930.924 821.8615 930.9454 822.0428 C 930.9667 822.2242 931.012 822.4002 931.0814 822.5708 C 931.1507 822.7415 931.2414 822.9015 931.3534 823.0508 C 931.4654 823.2002 931.5987 823.3255 931.7534 823.4268 C 931.908 823.5282 932.076 823.6002 932.2574 823.6428 C 932.4387 823.6855 932.62 823.7068 932.8014 823.7068 C 933.004 823.7068 933.2094 823.6855 933.4174 823.6428 C 933.6254 823.6002 933.8147 823.5255 933.9854 823.4188 C 934.156 823.3122 934.2974 823.1682 934.4094 822.9868 C 934.5214 822.8055 934.5827 822.6082 934.5934 822.3948 L 935.8414 822.3948 C 935.8307 822.6402 935.7854 822.8775 935.7054 823.1068 C 935.6254 823.3362 935.5134 823.5495 935.3694 823.7468 C 935.2254 823.9442 935.0547 824.1148 934.8574 824.2588 C 934.66 824.4028 934.4494 824.5175 934.2254 824.6028 C 934.0014 824.6882 933.7667 824.7468 933.5214 824.7788 C 933.276 824.8108 933.036 824.8268 932.8014 824.8268 Z M 934.6254 819.9788 L 934.6254 819.5788 C 934.6254 819.3975 934.6147 819.2162 934.5934 819.0348 C 934.572 818.8535 934.5294 818.6775 934.4654 818.5068 C 934.4014 818.3362 934.3134 818.1762 934.2014 818.0268 C 934.0894 817.8775 933.9587 817.7522 933.8094 817.6508 C 933.66 817.5495 933.4947 817.4775 933.3134 817.4348 C 933.132 817.3922 932.9507 817.3708 932.7694 817.3708 C 932.588 817.3708 932.4067 817.3922 932.2254 817.4348 C 932.044 817.4775 931.8787 817.5495 931.7294 817.6508 C 931.58 817.7522 931.4494 817.8775 931.3374 818.0268 C 931.2254 818.1762 931.1374 818.3362 931.0734 818.5068 C 931.0094 818.6775 930.9667 818.8535 930.9454 819.0348 C 930.924 819.2162 930.9134 819.3975 930.9134 819.5788 L 930.9134 819.9788 Z" fill="black"/>
          </g>
        </g>
        <g id="Group_71">
          <title>+ phase sep.</title>
          <g id="Graphic_61">
            <path d="M 1107.19 822.3468 L 1107.19 819.8188 L 1104.838 819.8188 L 1104.838 818.6988 L 1107.19 818.6988 L 1107.19 816.1708 L 1108.438 816.1708 L 1108.438 818.6988 L 1110.79 818.6988 L 1110.79 819.8188 L 1108.438 819.8188 L 1108.438 822.3468 Z" fill="black"/>
          </g>
          <g id="Graphic_62">
            <path d="M 1120.838 828.1388 L 1120.838 816.3788 L 1122.086 816.3788 L 1122.086 817.8348 C 1122.1713 817.6108 1122.2833 817.3948 1122.422 817.1868 C 1122.5606 816.9788 1122.7286 816.8028 1122.926 816.6588 C 1123.1233 816.5148 1123.342 816.4108 1123.582 816.3468 C 1123.822 816.2828 1124.0646 816.2508 1124.31 816.2508 C 1124.5766 816.2508 1124.8406 816.2882 1125.102 816.3628 C 1125.3633 816.4375 1125.6006 816.5548 1125.814 816.7148 C 1126.0273 816.8748 1126.206 817.0668 1126.35 817.2908 C 1126.494 817.5148 1126.6086 817.7522 1126.694 818.0028 C 1126.7793 818.2535 1126.838 818.5122 1126.87 818.7788 C 1126.902 819.0455 1126.918 819.3122 1126.918 819.5788 L 1126.918 821.4988 C 1126.918 821.7655 1126.902 822.0322 1126.87 822.2988 C 1126.838 822.5655 1126.7793 822.8242 1126.694 823.0748 C 1126.6086 823.3255 1126.494 823.5628 1126.35 823.7868 C 1126.206 824.0108 1126.0273 824.2028 1125.814 824.3628 C 1125.6006 824.5228 1125.3633 824.6402 1125.102 824.7148 C 1124.8406 824.7895 1124.5766 824.8268 1124.31 824.8268 C 1124.0646 824.8268 1123.822 824.7948 1123.582 824.7308 C 1123.342 824.6668 1123.1233 824.5628 1122.926 824.4188 C 1122.7286 824.2748 1122.5606 824.0988 1122.422 823.8908 C 1122.2833 823.6828 1122.1713 823.4668 1122.086 823.2428 L 1122.086 828.1388 Z M 1123.83 823.7068 C 1124.0113 823.7068 1124.19 823.6855 1124.366 823.6428 C 1124.542 823.6002 1124.7046 823.5282 1124.854 823.4268 C 1125.0033 823.3255 1125.134 823.2002 1125.246 823.0508 C 1125.358 822.9015 1125.446 822.7415 1125.51 822.5708 C 1125.574 822.4002 1125.6166 822.2242 1125.638 822.0428 C 1125.6593 821.8615 1125.67 821.6802 1125.67 821.4988 L 1125.67 819.5788 C 1125.67 819.3975 1125.6593 819.2162 1125.638 819.0348 C 1125.6166 818.8535 1125.574 818.6775 1125.51 818.5068 C 1125.446 818.3362 1125.358 818.1762 1125.246 818.0268 C 1125.134 817.8775 1125.0033 817.7522 1124.854 817.6508 C 1124.7046 817.5495 1124.542 817.4775 1124.366 817.4348 C 1124.19 817.3922 1124.0113 817.3708 1123.83 817.3708 C 1123.6486 817.3708 1123.47 817.3922 1123.294 817.4348 C 1123.118 817.4775 1122.9606 817.5522 1122.822 817.6588 C 1122.6833 817.7655 1122.5633 817.8962 1122.462 818.0508 C 1122.3606 818.2055 1122.2833 818.3655 1122.23 818.5308 C 1122.1766 818.6962 1122.1393 818.8668 1122.118 819.0428 C 1122.0966 819.2188 1122.086 819.3975 1122.086 819.5788 L 1122.086 821.4988 C 1122.086 821.6802 1122.0966 821.8588 1122.118 822.0348 C 1122.1393 822.2108 1122.1766 822.3815 1122.23 822.5468 C 1122.2833 822.7122 1122.3606 822.8722 1122.462 823.0268 C 1122.5633 823.1815 1122.6833 823.3122 1122.822 823.4188 C 1122.9606 823.5255 1123.118 823.6002 1123.294 823.6428 C 1123.47 823.6855 1123.6486 823.7068 1123.83 823.7068 Z" fill="black"/>
          </g>
          <g id="Graphic_63">
            <path d="M 1128.838 824.6988 L 1128.838 812.9388 L 1130.086 812.9388 L 1130.086 817.8348 C 1130.1713 817.6108 1130.2833 817.3975 1130.422 817.1948 C 1130.5606 816.9922 1130.7286 816.8162 1130.926 816.6668 C 1131.1233 816.5175 1131.342 816.4108 1131.582 816.3468 C 1131.822 816.2828 1132.0593 816.2508 1132.294 816.2508 C 1132.5606 816.2508 1132.822 816.2882 1133.078 816.3628 C 1133.334 816.4375 1133.5606 816.5575 1133.758 816.7228 C 1133.9553 816.8882 1134.1233 817.0855 1134.262 817.3148 C 1134.4006 817.5442 1134.51 817.7842 1134.59 818.0348 C 1134.67 818.2855 1134.7233 818.5415 1134.75 818.8028 C 1134.7766 819.0642 1134.79 819.3228 1134.79 819.5788 L 1134.79 824.6988 L 1133.542 824.6988 L 1133.542 819.5788 C 1133.542 819.3975 1133.5313 819.2188 1133.51 819.0428 C 1133.4886 818.8668 1133.4513 818.6962 1133.398 818.5308 C 1133.3446 818.3655 1133.2673 818.2082 1133.166 818.0588 C 1133.0646 817.9095 1132.9446 817.7815 1132.806 817.6748 C 1132.6673 817.5682 1132.5126 817.4908 1132.342 817.4428 C 1132.1713 817.3948 1131.9953 817.3708 1131.814 817.3708 C 1131.6326 817.3708 1131.4566 817.3948 1131.286 817.4428 C 1131.1153 817.4908 1130.9606 817.5682 1130.822 817.6748 C 1130.6833 817.7815 1130.5633 817.9095 1130.462 818.0588 C 1130.3606 818.2082 1130.2833 818.3655 1130.23 818.5308 C 1130.1766 818.6962 1130.1393 818.8668 1130.118 819.0428 C 1130.0966 819.2188 1130.086 819.3975 1130.086 819.5788 L 1130.086 824.6988 Z" fill="black"/>
          </g>
          <g id="Graphic_64">
            <path d="M 1139.046 824.8268 C 1138.726 824.8268 1138.4113 824.7788 1138.102 824.6828 C 1137.7926 824.5868 1137.5286 824.4215 1137.31 824.1868 C 1137.0913 823.9522 1136.9366 823.6802 1136.846 823.3708 C 1136.7553 823.0615 1136.71 822.7522 1136.71 822.4428 C 1136.71 822.1655 1136.7446 821.8935 1136.814 821.6268 C 1136.8833 821.3602 1137.0006 821.1202 1137.166 820.9068 C 1137.3313 820.6935 1137.5313 820.5148 1137.766 820.3708 C 1138.0006 820.2268 1138.2486 820.1122 1138.51 820.0268 C 1138.7713 819.9415 1139.0353 819.8828 1139.302 819.8508 C 1139.5686 819.8188 1139.8406 819.8028 1140.118 819.8028 L 1141.542 819.8028 L 1141.542 819.0188 C 1141.542 818.7948 1141.5046 818.5708 1141.43 818.3468 C 1141.3553 818.1228 1141.2326 817.9362 1141.062 817.7868 C 1140.8913 817.6375 1140.694 817.5308 1140.47 817.4668 C 1140.246 817.4028 1140.022 817.3708 1139.798 817.3708 C 1139.5846 817.3708 1139.374 817.3922 1139.166 817.4348 C 1138.958 817.4775 1138.7686 817.5575 1138.598 817.6748 C 1138.4273 817.7922 1138.294 817.9468 1138.198 818.1388 C 1138.102 818.3308 1138.054 818.5282 1138.054 818.7308 L 1136.806 818.7308 C 1136.806 818.4855 1136.8406 818.2455 1136.91 818.0108 C 1136.9793 817.7762 1137.0833 817.5575 1137.222 817.3548 C 1137.3606 817.1522 1137.5286 816.9788 1137.726 816.8348 C 1137.9233 816.6908 1138.134 816.5735 1138.358 816.4828 C 1138.582 816.3922 1138.8166 816.3308 1139.062 816.2988 C 1139.3073 816.2668 1139.5526 816.2508 1139.798 816.2508 C 1140.054 816.2508 1140.31 816.2695 1140.566 816.3068 C 1140.822 816.3442 1141.0673 816.4162 1141.302 816.5228 C 1141.5366 816.6295 1141.7526 816.7682 1141.95 816.9388 C 1142.1473 817.1095 1142.31 817.3068 1142.438 817.5308 C 1142.566 817.7548 1142.6566 817.9948 1142.71 818.2508 C 1142.7633 818.5068 1142.79 818.7628 1142.79 819.0188 L 1142.79 823.2108 C 1142.79 823.2748 1142.8006 823.3388 1142.822 823.4028 C 1142.8433 823.4668 1142.878 823.5228 1142.926 823.5708 C 1142.974 823.6188 1143.03 823.6535 1143.094 823.6748 C 1143.158 823.6962 1143.222 823.7068 1143.286 823.7068 L 1143.526 823.7068 L 1143.526 824.8268 L 1143.286 824.8268 C 1143.0726 824.8268 1142.8593 824.8002 1142.646 824.7468 C 1142.4326 824.6935 1142.2406 824.5975 1142.07 824.4588 C 1141.8993 824.3202 1141.7713 824.1495 1141.686 823.9468 C 1141.6006 823.7442 1141.5526 823.5308 1141.542 823.3068 C 1141.446 823.5522 1141.31 823.7735 1141.134 823.9708 C 1140.958 824.1682 1140.758 824.3335 1140.534 824.4668 C 1140.31 824.6002 1140.07 824.6935 1139.814 824.7468 C 1139.558 824.8002 1139.302 824.8268 1139.046 824.8268 Z M 1139.526 823.7068 C 1139.782 823.7068 1140.0406 823.6722 1140.302 823.6028 C 1140.5633 823.5335 1140.79 823.4108 1140.982 823.2348 C 1141.174 823.0588 1141.3153 822.8455 1141.406 822.5948 C 1141.4966 822.3442 1141.542 822.0855 1141.542 821.8188 L 1141.542 820.9228 L 1140.118 820.9228 C 1139.958 820.9228 1139.7953 820.9308 1139.63 820.9468 C 1139.4646 820.9628 1139.3046 820.9895 1139.15 821.0268 C 1138.9953 821.0642 1138.8433 821.1175 1138.694 821.1868 C 1138.5446 821.2562 1138.4113 821.3442 1138.294 821.4508 C 1138.1766 821.5575 1138.0913 821.6882 1138.038 821.8428 C 1137.9846 821.9975 1137.958 822.1548 1137.958 822.3148 C 1137.958 822.5068 1137.9953 822.6988 1138.07 822.8908 C 1138.1446 823.0828 1138.2566 823.2428 1138.406 823.3708 C 1138.5553 823.4988 1138.7286 823.5868 1138.926 823.6348 C 1139.1233 823.6828 1139.3233 823.7068 1139.526 823.7068 Z" fill="black"/>
          </g>
          <g id="Graphic_65">
            <path d="M 1147.798 824.8268 C 1147.5526 824.8268 1147.3126 824.8135 1147.078 824.7868 C 1146.8433 824.7602 1146.614 824.7068 1146.39 824.6268 C 1146.166 824.5468 1145.9553 824.4375 1145.758 824.2988 C 1145.5606 824.1602 1145.39 823.9975 1145.246 823.8108 C 1145.102 823.6242 1144.9926 823.4162 1144.918 823.1868 C 1144.8433 822.9575 1144.806 822.7255 1144.806 822.4908 C 1144.806 822.4802 1144.806 822.4748 1144.806 822.4748 C 1144.806 822.4748 1144.806 822.4695 1144.806 822.4588 L 1146.054 822.4588 C 1146.054 822.4588 1146.054 822.4615 1146.054 822.4668 C 1146.054 822.4722 1146.054 822.4748 1146.054 822.4748 C 1146.054 822.6775 1146.1073 822.8668 1146.214 823.0428 C 1146.3206 823.2188 1146.462 823.3548 1146.638 823.4508 C 1146.814 823.5468 1147.0006 823.6135 1147.198 823.6508 C 1147.3953 823.6882 1147.5953 823.7068 1147.798 823.7068 C 1147.99 823.7068 1148.1873 823.6908 1148.39 823.6588 C 1148.5926 823.6268 1148.7793 823.5602 1148.95 823.4588 C 1149.1206 823.3575 1149.2646 823.2188 1149.382 823.0428 C 1149.4993 822.8668 1149.558 822.6775 1149.558 822.4748 C 1149.558 822.3255 1149.518 822.1788 1149.438 822.0348 C 1149.358 821.8908 1149.2566 821.7708 1149.134 821.6748 C 1149.0113 821.5788 1148.8753 821.5068 1148.726 821.4588 C 1148.5766 821.4108 1148.4273 821.3655 1148.278 821.3228 L 1148.262 821.3228 C 1148.0166 821.2482 1147.7686 821.1735 1147.518 821.0988 C 1147.2673 821.0242 1147.0246 820.9415 1146.79 820.8508 C 1146.5553 820.7602 1146.326 820.6455 1146.102 820.5068 C 1145.878 820.3682 1145.6806 820.2028 1145.51 820.0108 C 1145.3393 819.8188 1145.206 819.6002 1145.11 819.3548 C 1145.014 819.1095 1144.966 818.8588 1144.966 818.6028 C 1144.966 818.3682 1145.0006 818.1388 1145.07 817.9148 C 1145.1393 817.6908 1145.2406 817.4828 1145.374 817.2908 C 1145.5073 817.0988 1145.6673 816.9335 1145.854 816.7948 C 1146.0406 816.6562 1146.2433 816.5468 1146.462 816.4668 C 1146.6806 816.3868 1146.9073 816.3308 1147.142 816.2988 C 1147.3766 816.2668 1147.606 816.2508 1147.83 816.2508 C 1148.0646 816.2508 1148.2966 816.2668 1148.526 816.2988 C 1148.7553 816.3308 1148.9766 816.3868 1149.19 816.4668 C 1149.4033 816.5468 1149.606 816.6535 1149.798 816.7868 C 1149.99 816.9202 1150.1526 817.0802 1150.286 817.2668 C 1150.4193 817.4535 1150.5206 817.6588 1150.59 817.8828 C 1150.6593 818.1068 1150.694 818.3362 1150.694 818.5708 C 1150.694 818.5708 1150.694 818.5735 1150.694 818.5788 C 1150.694 818.5842 1150.694 818.5868 1150.694 818.5868 L 1149.446 818.5868 C 1149.446 818.5868 1149.446 818.5842 1149.446 818.5788 C 1149.446 818.5735 1149.446 818.5708 1149.446 818.5708 C 1149.446 818.3895 1149.398 818.2135 1149.302 818.0428 C 1149.206 817.8722 1149.078 817.7362 1148.918 817.6348 C 1148.758 817.5335 1148.5846 817.4642 1148.398 817.4268 C 1148.2113 817.3895 1148.022 817.3708 1147.83 817.3708 C 1147.638 817.3708 1147.4486 817.3895 1147.262 817.4268 C 1147.0753 817.4642 1146.902 817.5335 1146.742 817.6348 C 1146.582 817.7362 1146.4513 817.8748 1146.35 818.0508 C 1146.2486 818.2268 1146.198 818.4055 1146.198 818.5868 C 1146.198 818.7682 1146.2486 818.9388 1146.35 819.0988 C 1146.4513 819.2588 1146.5793 819.3868 1146.734 819.4828 C 1146.8886 819.5788 1147.054 819.6508 1147.23 819.6988 C 1147.406 819.7468 1147.582 819.7948 1147.758 819.8428 C 1147.934 819.8908 1148.11 819.9415 1148.286 819.9948 C 1148.462 820.0482 1148.6353 820.1042 1148.806 820.1628 C 1148.9766 820.2215 1149.142 820.2908 1149.302 820.3708 C 1149.462 820.4508 1149.6166 820.5415 1149.766 820.6428 C 1149.9153 820.7442 1150.054 820.8615 1150.182 820.9948 C 1150.31 821.1282 1150.4193 821.2722 1150.51 821.4268 C 1150.6006 821.5815 1150.67 821.7495 1150.718 821.9308 C 1150.766 822.1122 1150.79 822.2935 1150.79 822.4748 C 1150.79 822.7095 1150.7526 822.9415 1150.678 823.1708 C 1150.6033 823.4002 1150.494 823.6108 1150.35 823.8028 C 1150.206 823.9948 1150.0353 824.1575 1149.838 824.2908 C 1149.6406 824.4242 1149.43 824.5308 1149.206 824.6108 C 1148.982 824.6908 1148.75 824.7468 1148.51 824.7788 C 1148.27 824.8108 1148.0326 824.8268 1147.798 824.8268 Z" fill="black"/>
          </g>
          <g id="Graphic_66">
            <path d="M 1155.846 824.8268 C 1155.558 824.8268 1155.27 824.8002 1154.982 824.7468 C 1154.694 824.6935 1154.4246 824.5948 1154.174 824.4508 C 1153.9233 824.3068 1153.6993 824.1255 1153.502 823.9068 C 1153.3046 823.6882 1153.1446 823.4482 1153.022 823.1868 C 1152.8993 822.9255 1152.8166 822.6508 1152.774 822.3628 C 1152.7313 822.0748 1152.71 821.7868 1152.71 821.4988 L 1152.71 819.5788 C 1152.71 819.2908 1152.7313 819.0028 1152.774 818.7148 C 1152.8166 818.4268 1152.8966 818.1522 1153.014 817.8908 C 1153.1313 817.6295 1153.2886 817.3895 1153.486 817.1708 C 1153.6833 816.9522 1153.9046 816.7735 1154.15 816.6348 C 1154.3953 816.4962 1154.662 816.3975 1154.95 816.3388 C 1155.238 816.2802 1155.526 816.2508 1155.814 816.2508 C 1156.102 816.2508 1156.39 816.2802 1156.678 816.3388 C 1156.966 816.3975 1157.2326 816.4962 1157.478 816.6348 C 1157.7233 816.7735 1157.9446 816.9522 1158.142 817.1708 C 1158.3393 817.3895 1158.4966 817.6295 1158.614 817.8908 C 1158.7313 818.1522 1158.8113 818.4268 1158.854 818.7148 C 1158.8966 819.0028 1158.918 819.2908 1158.918 819.5788 L 1158.918 821.0988 L 1153.958 821.0988 L 1153.958 821.4988 C 1153.958 821.6802 1153.9686 821.8615 1153.99 822.0428 C 1154.0113 822.2242 1154.0566 822.4002 1154.126 822.5708 C 1154.1953 822.7415 1154.286 822.9015 1154.398 823.0508 C 1154.51 823.2002 1154.6433 823.3255 1154.798 823.4268 C 1154.9526 823.5282 1155.1206 823.6002 1155.302 823.6428 C 1155.4833 823.6855 1155.6646 823.7068 1155.846 823.7068 C 1156.0486 823.7068 1156.254 823.6855 1156.462 823.6428 C 1156.67 823.6002 1156.8593 823.5255 1157.03 823.4188 C 1157.2006 823.3122 1157.342 823.1682 1157.454 822.9868 C 1157.566 822.8055 1157.6273 822.6082 1157.638 822.3948 L 1158.886 822.3948 C 1158.8753 822.6402 1158.83 822.8775 1158.75 823.1068 C 1158.67 823.3362 1158.558 823.5495 1158.414 823.7468 C 1158.27 823.9442 1158.0993 824.1148 1157.902 824.2588 C 1157.7046 824.4028 1157.494 824.5175 1157.27 824.6028 C 1157.046 824.6882 1156.8113 824.7468 1156.566 824.7788 C 1156.3206 824.8108 1156.0806 824.8268 1155.846 824.8268 Z M 1157.67 819.9788 L 1157.67 819.5788 C 1157.67 819.3975 1157.6593 819.2162 1157.638 819.0348 C 1157.6166 818.8535 1157.574 818.6775 1157.51 818.5068 C 1157.446 818.3362 1157.358 818.1762 1157.246 818.0268 C 1157.134 817.8775 1157.0033 817.7522 1156.854 817.6508 C 1156.7046 817.5495 1156.5393 817.4775 1156.358 817.4348 C 1156.1766 817.3922 1155.9953 817.3708 1155.814 817.3708 C 1155.6326 817.3708 1155.4513 817.3922 1155.27 817.4348 C 1155.0886 817.4775 1154.9233 817.5495 1154.774 817.6508 C 1154.6246 817.7522 1154.494 817.8775 1154.382 818.0268 C 1154.27 818.1762 1154.182 818.3362 1154.118 818.5068 C 1154.054 818.6775 1154.0113 818.8535 1153.99 819.0348 C 1153.9686 819.2162 1153.958 819.3975 1153.958 819.5788 L 1153.958 819.9788 Z" fill="black"/>
          </g>
          <g id="Graphic_67">
            <path d="M 1171.798 824.8268 C 1171.5526 824.8268 1171.3126 824.8135 1171.078 824.7868 C 1170.8433 824.7602 1170.614 824.7068 1170.39 824.6268 C 1170.166 824.5468 1169.9553 824.4375 1169.758 824.2988 C 1169.5606 824.1602 1169.39 823.9975 1169.246 823.8108 C 1169.102 823.6242 1168.9926 823.4162 1168.918 823.1868 C 1168.8433 822.9575 1168.806 822.7255 1168.806 822.4908 C 1168.806 822.4802 1168.806 822.4748 1168.806 822.4748 C 1168.806 822.4748 1168.806 822.4695 1168.806 822.4588 L 1170.054 822.4588 C 1170.054 822.4588 1170.054 822.4615 1170.054 822.4668 C 1170.054 822.4722 1170.054 822.4748 1170.054 822.4748 C 1170.054 822.6775 1170.1073 822.8668 1170.214 823.0428 C 1170.3206 823.2188 1170.462 823.3548 1170.638 823.4508 C 1170.814 823.5468 1171.0006 823.6135 1171.198 823.6508 C 1171.3953 823.6882 1171.5953 823.7068 1171.798 823.7068 C 1171.99 823.7068 1172.1873 823.6908 1172.39 823.6588 C 1172.5926 823.6268 1172.7793 823.5602 1172.95 823.4588 C 1173.1206 823.3575 1173.2646 823.2188 1173.382 823.0428 C 1173.4993 822.8668 1173.558 822.6775 1173.558 822.4748 C 1173.558 822.3255 1173.518 822.1788 1173.438 822.0348 C 1173.358 821.8908 1173.2566 821.7708 1173.134 821.6748 C 1173.0113 821.5788 1172.8753 821.5068 1172.726 821.4588 C 1172.5766 821.4108 1172.4273 821.3655 1172.278 821.3228 L 1172.262 821.3228 C 1172.0166 821.2482 1171.7686 821.1735 1171.518 821.0988 C 1171.2673 821.0242 1171.0246 820.9415 1170.79 820.8508 C 1170.5553 820.7602 1170.326 820.6455 1170.102 820.5068 C 1169.878 820.3682 1169.6806 820.2028 1169.51 820.0108 C 1169.3393 819.8188 1169.206 819.6002 1169.11 819.3548 C 1169.014 819.1095 1168.966 818.8588 1168.966 818.6028 C 1168.966 818.3682 1169.0006 818.1388 1169.07 817.9148 C 1169.1393 817.6908 1169.2406 817.4828 1169.374 817.2908 C 1169.5073 817.0988 1169.6673 816.9335 1169.854 816.7948 C 1170.0406 816.6562 1170.2433 816.5468 1170.462 816.4668 C 1170.6806 816.3868 1170.9073 816.3308 1171.142 816.2988 C 1171.3766 816.2668 1171.606 816.2508 1171.83 816.2508 C 1172.0646 816.2508 1172.2966 816.2668 1172.526 816.2988 C 1172.7553 816.3308 1172.9766 816.3868 1173.19 816.4668 C 1173.4033 816.5468 1173.606 816.6535 1173.798 816.7868 C 1173.99 816.9202 1174.1526 817.0802 1174.286 817.2668 C 1174.4193 817.4535 1174.5206 817.6588 1174.59 817.8828 C 1174.6593 818.1068 1174.694 818.3362 1174.694 818.5708 C 1174.694 818.5708 1174.694 818.5735 1174.694 818.5788 C 1174.694 818.5842 1174.694 818.5868 1174.694 818.5868 L 1173.446 818.5868 C 1173.446 818.5868 1173.446 818.5842 1173.446 818.5788 C 1173.446 818.5735 1173.446 818.5708 1173.446 818.5708 C 1173.446 818.3895 1173.398 818.2135 1173.302 818.0428 C 1173.206 817.8722 1173.078 817.7362 1172.918 817.6348 C 1172.758 817.5335 1172.5846 817.4642 1172.398 817.4268 C 1172.2113 817.3895 1172.022 817.3708 1171.83 817.3708 C 1171.638 817.3708 1171.4486 817.3895 1171.262 817.4268 C 1171.0753 817.4642 1170.902 817.5335 1170.742 817.6348 C 1170.582 817.7362 1170.4513 817.8748 1170.35 818.0508 C 1170.2486 818.2268 1170.198 818.4055 1170.198 818.5868 C 1170.198 818.7682 1170.2486 818.9388 1170.35 819.0988 C 1170.4513 819.2588 1170.5793 819.3868 1170.734 819.4828 C 1170.8886 819.5788 1171.054 819.6508 1171.23 819.6988 C 1171.406 819.7468 1171.582 819.7948 1171.758 819.8428 C 1171.934 819.8908 1172.11 819.9415 1172.286 819.9948 C 1172.462 820.0482 1172.6353 820.1042 1172.806 820.1628 C 1172.9766 820.2215 1173.142 820.2908 1173.302 820.3708 C 1173.462 820.4508 1173.6166 820.5415 1173.766 820.6428 C 1173.9153 820.7442 1174.054 820.8615 1174.182 820.9948 C 1174.31 821.1282 1174.4193 821.2722 1174.51 821.4268 C 1174.6006 821.5815 1174.67 821.7495 1174.718 821.9308 C 1174.766 822.1122 1174.79 822.2935 1174.79 822.4748 C 1174.79 822.7095 1174.7526 822.9415 1174.678 823.1708 C 1174.6033 823.4002 1174.494 823.6108 1174.35 823.8028 C 1174.206 823.9948 1174.0353 824.1575 1173.838 824.2908 C 1173.6406 824.4242 1173.43 824.5308 1173.206 824.6108 C 1172.982 824.6908 1172.75 824.7468 1172.51 824.7788 C 1172.27 824.8108 1172.0326 824.8268 1171.798 824.8268 Z" fill="black"/>
          </g>
          <g id="Graphic_68">
            <path d="M 1179.846 824.8268 C 1179.558 824.8268 1179.27 824.8002 1178.982 824.7468 C 1178.694 824.6935 1178.4246 824.5948 1178.174 824.4508 C 1177.9233 824.3068 1177.6993 824.1255 1177.502 823.9068 C 1177.3046 823.6882 1177.1446 823.4482 1177.022 823.1868 C 1176.8993 822.9255 1176.8166 822.6508 1176.774 822.3628 C 1176.7313 822.0748 1176.71 821.7868 1176.71 821.4988 L 1176.71 819.5788 C 1176.71 819.2908 1176.7313 819.0028 1176.774 818.7148 C 1176.8166 818.4268 1176.8966 818.1522 1177.014 817.8908 C 1177.1313 817.6295 1177.2886 817.3895 1177.486 817.1708 C 1177.6833 816.9522 1177.9046 816.7735 1178.15 816.6348 C 1178.3953 816.4962 1178.662 816.3975 1178.95 816.3388 C 1179.238 816.2802 1179.526 816.2508 1179.814 816.2508 C 1180.102 816.2508 1180.39 816.2802 1180.678 816.3388 C 1180.966 816.3975 1181.2326 816.4962 1181.478 816.6348 C 1181.7233 816.7735 1181.9446 816.9522 1182.142 817.1708 C 1182.3393 817.3895 1182.4966 817.6295 1182.614 817.8908 C 1182.7313 818.1522 1182.8113 818.4268 1182.854 818.7148 C 1182.8966 819.0028 1182.918 819.2908 1182.918 819.5788 L 1182.918 821.0988 L 1177.958 821.0988 L 1177.958 821.4988 C 1177.958 821.6802 1177.9686 821.8615 1177.99 822.0428 C 1178.0113 822.2242 1178.0566 822.4002 1178.126 822.5708 C 1178.1953 822.7415 1178.286 822.9015 1178.398 823.0508 C 1178.51 823.2002 1178.6433 823.3255 1178.798 823.4268 C 1178.9526 823.5282 1179.1206 823.6002 1179.302 823.6428 C 1179.4833 823.6855 1179.6646 823.7068 1179.846 823.7068 C 1180.0486 823.7068 1180.254 823.6855 1180.462 823.6428 C 1180.67 823.6002 1180.8593 823.5255 1181.03 823.4188 C 1181.2006 823.3122 1181.342 823.1682 1181.454 822.9868 C 1181.566 822.8055 1181.6273 822.6082 1181.638 822.3948 L 1182.886 822.3948 C 1182.8753 822.6402 1182.83 822.8775 1182.75 823.1068 C 1182.67 823.3362 1182.558 823.5495 1182.414 823.7468 C 1182.27 823.9442 1182.0993 824.1148 1181.902 824.2588 C 1181.7046 824.4028 1181.494 824.5175 1181.27 824.6028 C 1181.046 824.6882 1180.8113 824.7468 1180.566 824.7788 C 1180.3206 824.8108 1180.0806 824.8268 1179.846 824.8268 Z M 1181.67 819.9788 L 1181.67 819.5788 C 1181.67 819.3975 1181.6593 819.2162 1181.638 819.0348 C 1181.6166 818.8535 1181.574 818.6775 1181.51 818.5068 C 1181.446 818.3362 1181.358 818.1762 1181.246 818.0268 C 1181.134 817.8775 1181.0033 817.7522 1180.854 817.6508 C 1180.7046 817.5495 1180.5393 817.4775 1180.358 817.4348 C 1180.1766 817.3922 1179.9953 817.3708 1179.814 817.3708 C 1179.6326 817.3708 1179.4513 817.3922 1179.27 817.4348 C 1179.0886 817.4775 1178.9233 817.5495 1178.774 817.6508 C 1178.6246 817.7522 1178.494 817.8775 1178.382 818.0268 C 1178.27 818.1762 1178.182 818.3362 1178.118 818.5068 C 1178.054 818.6775 1178.0113 818.8535 1177.99 819.0348 C 1177.9686 819.2162 1177.958 819.3975 1177.958 819.5788 L 1177.958 819.9788 Z" fill="black"/>
          </g>
          <g id="Graphic_69">
            <path d="M 1184.838 828.1388 L 1184.838 816.3788 L 1186.086 816.3788 L 1186.086 817.8348 C 1186.1713 817.6108 1186.2833 817.3948 1186.422 817.1868 C 1186.5606 816.9788 1186.7286 816.8028 1186.926 816.6588 C 1187.1233 816.5148 1187.342 816.4108 1187.582 816.3468 C 1187.822 816.2828 1188.0646 816.2508 1188.31 816.2508 C 1188.5766 816.2508 1188.8406 816.2882 1189.102 816.3628 C 1189.3633 816.4375 1189.6006 816.5548 1189.814 816.7148 C 1190.0273 816.8748 1190.206 817.0668 1190.35 817.2908 C 1190.494 817.5148 1190.6086 817.7522 1190.694 818.0028 C 1190.7793 818.2535 1190.838 818.5122 1190.87 818.7788 C 1190.902 819.0455 1190.918 819.3122 1190.918 819.5788 L 1190.918 821.4988 C 1190.918 821.7655 1190.902 822.0322 1190.87 822.2988 C 1190.838 822.5655 1190.7793 822.8242 1190.694 823.0748 C 1190.6086 823.3255 1190.494 823.5628 1190.35 823.7868 C 1190.206 824.0108 1190.0273 824.2028 1189.814 824.3628 C 1189.6006 824.5228 1189.3633 824.6402 1189.102 824.7148 C 1188.8406 824.7895 1188.5766 824.8268 1188.31 824.8268 C 1188.0646 824.8268 1187.822 824.7948 1187.582 824.7308 C 1187.342 824.6668 1187.1233 824.5628 1186.926 824.4188 C 1186.7286 824.2748 1186.5606 824.0988 1186.422 823.8908 C 1186.2833 823.6828 1186.1713 823.4668 1186.086 823.2428 L 1186.086 828.1388 Z M 1187.83 823.7068 C 1188.0113 823.7068 1188.19 823.6855 1188.366 823.6428 C 1188.542 823.6002 1188.7046 823.5282 1188.854 823.4268 C 1189.0033 823.3255 1189.134 823.2002 1189.246 823.0508 C 1189.358 822.9015 1189.446 822.7415 1189.51 822.5708 C 1189.574 822.4002 1189.6166 822.2242 1189.638 822.0428 C 1189.6593 821.8615 1189.67 821.6802 1189.67 821.4988 L 1189.67 819.5788 C 1189.67 819.3975 1189.6593 819.2162 1189.638 819.0348 C 1189.6166 818.8535 1189.574 818.6775 1189.51 818.5068 C 1189.446 818.3362 1189.358 818.1762 1189.246 818.0268 C 1189.134 817.8775 1189.0033 817.7522 1188.854 817.6508 C 1188.7046 817.5495 1188.542 817.4775 1188.366 817.4348 C 1188.19 817.3922 1188.0113 817.3708 1187.83 817.3708 C 1187.6486 817.3708 1187.47 817.3922 1187.294 817.4348 C 1187.118 817.4775 1186.9606 817.5522 1186.822 817.6588 C 1186.6833 817.7655 1186.5633 817.8962 1186.462 818.0508 C 1186.3606 818.2055 1186.2833 818.3655 1186.23 818.5308 C 1186.1766 818.6962 1186.1393 818.8668 1186.118 819.0428 C 1186.0966 819.2188 1186.086 819.3975 1186.086 819.5788 L 1186.086 821.4988 C 1186.086 821.6802 1186.0966 821.8588 1186.118 822.0348 C 1186.1393 822.2108 1186.1766 822.3815 1186.23 822.5468 C 1186.2833 822.7122 1186.3606 822.8722 1186.462 823.0268 C 1186.5633 823.1815 1186.6833 823.3122 1186.822 823.4188 C 1186.9606 823.5255 1187.118 823.6002 1187.294 823.6428 C 1187.47 823.6855 1187.6486 823.7068 1187.83 823.7068 Z" fill="black"/>
          </g>
          <g id="Graphic_70">
            <path d="M 1195.814 824.8268 C 1195.6433 824.8268 1195.478 824.8028 1195.318 824.7548 C 1195.158 824.7068 1195.0166 824.6215 1194.894 824.4988 C 1194.7713 824.3762 1194.686 824.2348 1194.638 824.0748 C 1194.59 823.9148 1194.566 823.7495 1194.566 823.5788 C 1194.566 823.4082 1194.59 823.2428 1194.638 823.0828 C 1194.686 822.9228 1194.7713 822.7815 1194.894 822.6588 C 1195.0166 822.5362 1195.158 822.4508 1195.318 822.4028 C 1195.478 822.3548 1195.6433 822.3308 1195.814 822.3308 C 1195.9846 822.3308 1196.15 822.3548 1196.31 822.4028 C 1196.47 822.4508 1196.6113 822.5362 1196.734 822.6588 C 1196.8566 822.7815 1196.942 822.9228 1196.99 823.0828 C 1197.038 823.2428 1197.062 823.4082 1197.062 823.5788 C 1197.062 823.7495 1197.038 823.9148 1196.99 824.0748 C 1196.942 824.2348 1196.8566 824.3762 1196.734 824.4988 C 1196.6113 824.6215 1196.47 824.7068 1196.31 824.7548 C 1196.15 824.8028 1195.9846 824.8268 1195.814 824.8268 Z" fill="black"/>
          </g>
        </g>
      </g>
    </g>
  </g>
</svg>
