<?xml version="1.0" encoding="UTF-8" standalone="no"?>
<!DOCTYPE svg PUBLIC "-//W3C//DTD SVG 1.1//EN" "http://www.w3.org/Graphics/SVG/1.1/DTD/svg11.dtd">
<svg xmlns="http://www.w3.org/2000/svg" xmlns:dc="http://purl.org/dc/elements/1.1/" xmlns:xl="http://www.w3.org/1999/xlink" version="1.1" viewBox="545.5 738.5 827 150.5" width="827" height="150.5">
  <defs>
    <marker orient="auto" overflow="visible" markerUnits="strokeWidth" id="FilledArrow_Marker" stroke-linejoin="miter" stroke-miterlimit="10" viewBox="-1 -4 10 8" markerWidth="10" markerHeight="8" color="black">
      <g>
        <path d="M 8 0 L 0 -3 L 0 3 Z" fill="currentColor" stroke="currentColor" stroke-width="1"/>
      </g>
    </marker>
  </defs>
  <g id="Canvas_1" stroke="none" fill="none" fill-opacity="1" stroke-dasharray="none" stroke-opacity="1">
    <title>Canvas 1</title>
    <rect fill="white" x="545.5" y="738.5" width="827" height="150.5"/>
    <g id="Canvas_1_Layer_1">
      <title>Layer 1</title>
      <g id="Group_45">
        <g id="Graphic_39">
          <path d="M 738 744 L 1362 744 C 1364.7614 744 1367 746.2386 1367 749 L 1367 878.5 C 1367 881.2614 1364.7614 883.5 1362 883.5 L 738 883.5 C 735.2386 883.5 733 881.2614 733 878.5 L 733 749 C 733 746.2386 735.2386 744 738 744 Z" fill="#d2dfc7"/>
          <path d="M 738 744 L 1362 744 C 1364.7614 744 1367 746.2386 1367 749 L 1367 878.5 C 1367 881.2614 1364.7614 883.5 1362 883.5 L 738 883.5 C 735.2386 883.5 733 881.2614 733 878.5 L 733 749 C 733 746.2386 735.2386 744 738 744 Z" stroke="#121212" stroke-linecap="round" stroke-linejoin="round" stroke-width="1"/>
          <text transform="translate(738 749)" fill="black">
            <tspan font-family="Helvetica Neue" font-size="16" fill="black" x="261.912" y="15">Token Macros</tspan>
          </text>
        </g>
        <g id="Graphic_41">
          <path d="M 946.5 773 L 1353.5 773 C 1356.2614 773 1358.5 775.2386 1358.5 778 L 1358.5 863.312 C 1358.5 866.0734 1356.2614 868.312 1353.5 868.312 L 946.5 868.312 C 943.7386 868.312 941.5 866.0734 941.5 863.312 L 941.5 778 C 941.5 775.2386 943.7386 773 946.5 773 Z" fill="#a1e6f8"/>
          <path d="M 946.5 773 L 1353.5 773 C 1356.2614 773 1358.5 775.2386 1358.5 778 L 1358.5 863.312 C 1358.5 866.0734 1356.2614 868.312 1353.5 868.312 L 946.5 868.312 C 943.7386 868.312 941.5 866.0734 941.5 863.312 L 941.5 778 C 941.5 775.2386 943.7386 773 946.5 773 Z" stroke="#121212" stroke-linecap="round" stroke-linejoin="round" stroke-width="1"/>
          <text transform="translate(946.5 778)" fill="black">
            <tspan font-family="Helvetica Neue" font-size="16" fill="black" x="145.42" y="15">Hygenic Macros</tspan>
          </text>
        </g>
        <g id="Graphic_38">
          <path d="M 556 744 L 667 744 C 669.7614 744 672 746.2386 672 749 L 672 878.5 C 672 881.2614 669.7614 883.5 667 883.5 L 556 883.5 C 553.2386 883.5 551 881.2614 551 878.5 L 551 749 C 551 746.2386 553.2386 744 556 744 Z" fill="#e8c5bb"/>
          <path d="M 556 744 L 667 744 C 669.7614 744 672 746.2386 672 749 L 672 878.5 C 672 881.2614 669.7614 883.5 667 883.5 L 556 883.5 C 553.2386 883.5 551 881.2614 551 878.5 L 551 749 C 551 746.2386 553.2386 744 556 744 Z" stroke="#121212" stroke-linecap="round" stroke-linejoin="round" stroke-width="1"/>
          <text transform="translate(556 749)" fill="black">
            <tspan font-family="Helvetica Neue" font-size="16" fill="black" x="5.412" y="15">Token Macros</tspan>
          </text>
        </g>
        <g id="Graphic_35">
          <path d="M 566.5 799.5 L 656.5 799.5 C 659.2614 799.5 661.5 801.7386 661.5 804.5 L 661.5 854.5 C 661.5 857.2614 659.2614 859.5 656.5 859.5 L 566.5 859.5 C 563.7386 859.5 561.5 857.2614 561.5 854.5 L 561.5 804.5 C 561.5 801.7386 563.7386 799.5 566.5 799.5 Z" fill="white"/>
          <path d="M 566.5 799.5 L 656.5 799.5 C 659.2614 799.5 661.5 801.7386 661.5 804.5 L 661.5 854.5 C 661.5 857.2614 659.2614 859.5 656.5 859.5 L 566.5 859.5 C 563.7386 859.5 561.5 857.2614 561.5 854.5 L 561.5 804.5 C 561.5 801.7386 563.7386 799.5 566.5 799.5 Z" stroke="#121212" stroke-linecap="round" stroke-linejoin="round" stroke-width="1"/>
          <text transform="translate(566.5 819.262)" fill="black">
            <tspan font-family="Helvetica Neue" font-size="17" fill="black" x="8.161" y="16">C Macros</tspan>
          </text>
        </g>
        <g id="Graphic_34">
          <path d="M 752 799.5 L 855 799.5 C 857.7614 799.5 860 801.7386 860 804.5 L 860 854.5 C 860 857.2614 857.7614 859.5 855 859.5 L 752 859.5 C 749.2386 859.5 747 857.2614 747 854.5 L 747 804.5 C 747 801.7386 749.2386 799.5 752 799.5 Z" fill="white"/>
          <path d="M 752 799.5 L 855 799.5 C 857.7614 799.5 860 801.7386 860 804.5 L 860 854.5 C 860 857.2614 857.7614 859.5 855 859.5 L 752 859.5 C 749.2386 859.5 747 857.2614 747 854.5 L 747 804.5 C 747 801.7386 749.2386 799.5 752 799.5 Z" stroke="#121212" stroke-linecap="round" stroke-linejoin="round" stroke-width="1"/>
          <text transform="translate(752 819.262)" fill="black">
            <tspan font-family="Helvetica Neue" font-size="17" fill="black" x="4.8945" y="16">Lisp Macros</tspan>
          </text>
        </g>
        <g id="Line_31">
          <line x1="661.5" y1="829.5" x2="737.1" y2="829.5" marker-end="url(#FilledArrow_Marker)" stroke="black" stroke-linecap="round" stroke-linejoin="round" stroke-width="1"/>
        </g>
        <g id="Line_30">
          <line x1="860" y1="829.5" x2="945.6" y2="829.5" marker-end="url(#FilledArrow_Marker)" stroke="black" stroke-linecap="round" stroke-linejoin="round" stroke-width="1"/>
        </g>
        <g id="Line_29">
          <line x1="1095.5" y1="829.5" x2="1203.1" y2="829.5" marker-end="url(#FilledArrow_Marker)" stroke="black" stroke-linecap="round" stroke-linejoin="round" stroke-width="1"/>
        </g>
        <g id="Graphic_28">
          <text transform="translate(676.5539 810.6988)" fill="black">
            <tspan font-family="Iosevka Output" font-size="16" fill="black" x="0" y="14">-&gt; AST</tspan>
          </text>
        </g>
        <g id="Graphic_27">
          <text transform="translate(864.7694 810.6988)" fill="black">
            <tspan font-family="Iosevka Output" font-size="16" fill="black" x="0" y="14">+ hygiene</tspan>
          </text>
        </g>
        <g id="Graphic_26">
          <text transform="translate(1103.814 810.6988)" fill="black">
            <tspan font-family="Iosevka Output" font-size="16" fill="black" x="0" y="14">+ phase sep.</tspan>
          </text>
        </g>
        <g id="Group_42">
          <g id="Graphic_33">
            <path d="M 960.5 799.5 L 1090.5 799.5 C 1093.2614 799.5 1095.5 801.7386 1095.5 804.5 L 1095.5 854.5 C 1095.5 857.2614 1093.2614 859.5 1090.5 859.5 L 960.5 859.5 C 957.7386 859.5 955.5 857.2614 955.5 854.5 L 955.5 804.5 C 955.5 801.7386 957.7386 799.5 960.5 799.5 Z" fill="white"/>
            <path d="M 960.5 799.5 L 1090.5 799.5 C 1093.2614 799.5 1095.5 801.7386 1095.5 804.5 L 1095.5 854.5 C 1095.5 857.2614 1093.2614 859.5 1090.5 859.5 L 960.5 859.5 C 957.7386 859.5 955.5 857.2614 955.5 854.5 L 955.5 804.5 C 955.5 801.7386 957.7386 799.5 960.5 799.5 Z" stroke="#121212" stroke-linecap="round" stroke-linejoin="round" stroke-width="1"/>
            <text transform="translate(960.5 819.262)" fill="black">
              <tspan font-family="Helvetica Neue" font-size="17" fill="black" x="3.12" y="16">Scheme Macros</tspan>
            </text>
          </g>
          <g id="Graphic_32">
            <path d="M 1218 799.5 L 1348 799.5 C 1350.7614 799.5 1353 801.7386 1353 804.5 L 1353 854.5 C 1353 857.2614 1350.7614 859.5 1348 859.5 L 1218 859.5 C 1215.2386 859.5 1213 857.2614 1213 854.5 L 1213 804.5 C 1213 801.7386 1215.2386 799.5 1218 799.5 Z" fill="white"/>
            <path d="M 1218 799.5 L 1348 799.5 C 1350.7614 799.5 1353 801.7386 1353 804.5 L 1353 854.5 C 1353 857.2614 1350.7614 859.5 1348 859.5 L 1218 859.5 C 1215.2386 859.5 1213 857.2614 1213 854.5 L 1213 804.5 C 1213 801.7386 1215.2386 799.5 1218 799.5 Z" stroke="#121212" stroke-linecap="round" stroke-linejoin="round" stroke-width="1"/>
            <text transform="translate(1218 819.262)" fill="black">
              <tspan font-family="Helvetica Neue" font-size="17" fill="black" x="7.693" y="16">Racket Macros</tspan>
            </text>
          </g>
        </g>
      </g>
    </g>
  </g>
</svg>
