<?xml version="1.0" encoding="UTF-8" standalone="no"?>
<!DOCTYPE svg PUBLIC "-//W3C//DTD SVG 1.1//EN" "http://www.w3.org/Graphics/SVG/1.1/DTD/svg11.dtd">
<svg xmlns:dc="http://purl.org/dc/elements/1.1/" xmlns="http://www.w3.org/2000/svg" xmlns:xl="http://www.w3.org/1999/xlink" version="1.1" viewBox="101.5 858.5 1361 522.5" width="1361" height="522.5">
  <defs>
    <linearGradient x1="0" x2="1" id="Gradient" gradientUnits="userSpaceOnUse">
      <stop offset="0" stop-color="#8381c5"/>
      <stop offset=".5663939" stop-color="#7e55b3" stop-opacity=".996078"/>
      <stop offset="1" stop-color="#a52ecb" stop-opacity=".992157"/>
    </linearGradient>
    <linearGradient id="Obj_Gradient" xl:href="#Gradient" gradientTransform="translate(172.8827 857.0716) rotate(52.20053) scale(657.9128)"/>
  </defs>
  <g id="Canvas_1" stroke-dasharray="none" stroke-opacity="1" stroke="none" fill-opacity="1" fill="none">
    <title>Canvas 1</title>
    <g id="Canvas_1_Layer_1">
      <title>Layer 1</title>
      <g id="Graphic_67">
        <path d="M 129 861 L 1435 861 C 1448.8071 861 1460 872.1929 1460 886 L 1460 1353.5 C 1460 1367.3071 1448.8071 1378.5 1435 1378.5 L 129 1378.5 C 115.19288 1378.5 104 1367.3071 104 1353.5 L 104 886 C 104 872.1929 115.19288 861 129 861 Z" fill="white"/>
        <path d="M 129 861 L 1435 861 C 1448.8071 861 1460 872.1929 1460 886 L 1460 1353.5 C 1460 1367.3071 1448.8071 1378.5 1435 1378.5 L 129 1378.5 C 115.19288 1378.5 104 1367.3071 104 1353.5 L 104 886 C 104 872.1929 115.19288 861 129 861 Z" stroke="black" stroke-linecap="round" stroke-linejoin="round" stroke-width="5"/>
      </g>
      <g id="Graphic_66">
        <title>rect4772</title>
      </g>
      <g id="Group_62">
        <g id="Graphic_65">
          <title>path4233</title>
          <path d="M 607.61514 1117 C 607.61514 1247.0612 503.24593 1352.4967 374.5 1352.4967 C 245.75408 1352.4967 141.38488 1247.0612 141.38488 1117 C 141.38488 986.9388 245.75408 881.5033 374.5 881.5033 C 503.24593 881.5033 607.61514 986.9388 607.61514 1117 Z" fill="#211f46" fill-opacity=".996078"/>
          <path d="M 607.61514 1117 C 607.61514 1247.0612 503.24593 1352.4967 374.5 1352.4967 C 245.75408 1352.4967 141.38488 1247.0612 141.38488 1117 C 141.38488 986.9388 245.75408 881.5033 374.5 881.5033 C 503.24593 881.5033 607.61514 986.9388 607.61514 1117 Z" stroke="#0a0b1b" stroke-linecap="butt" stroke-linejoin="round" stroke-width="8.421117"/>
        </g>
        <g id="Graphic_64">
          <title>path4235</title>
          <path d="M 607.61515 1117 C 607.61515 1247.0612 503.24595 1352.4967 374.50005 1352.4967 C 245.75415 1352.4967 141.38485 1247.0612 141.38485 1117 C 141.38485 986.9388 245.75415 881.5033 374.50005 881.5033 C 503.24595 881.5033 607.61515 986.9388 607.61515 1117 Z" fill="url(#Obj_Gradient)"/>
          <path d="M 607.61515 1117 C 607.61515 1247.0612 503.24595 1352.4967 374.50005 1352.4967 C 245.75415 1352.4967 141.38485 1247.0612 141.38485 1117 C 141.38485 986.9388 245.75415 881.5033 374.50005 881.5033 C 503.24595 881.5033 607.61515 986.9388 607.61515 1117 Z" stroke="black" stroke-linecap="butt" stroke-linejoin="round" stroke-width="13.338168"/>
        </g>
        <g id="Graphic_63">
          <title>path4237</title>
          <path d="M 294.37733 1282.416 C 294.37733 1282.416 314.11583 1283.8124 339.50853 1281.5744 C 349.79193 1280.6681 388.83523 1276.8331 418.02543 1270.4315 C 418.02543 1270.4315 453.61533 1262.8148 472.65553 1255.7982 C 492.57803 1248.4563 503.41913 1242.2251 508.29883 1233.3958 C 508.08603 1231.5867 509.80123 1225.1714 500.61383 1221.3179 C 477.12513 1211.4659 449.88383 1213.2479 395.98003 1212.105 C 336.20283 1210.0511 316.31733 1200.0453 305.72443 1191.9866 C 295.56653 1183.8115 300.67443 1161.1941 344.19863 1141.2717 C 366.12303 1130.6627 452.06913 1111.0847 452.06913 1111.0847 C 423.12403 1096.7774 369.15053 1071.6257 358.05573 1066.1944 C 348.32493 1061.431 332.75273 1054.2585 329.37723 1045.5808 C 325.55013 1037.2499 338.41553 1030.0735 345.60203 1028.0184 C 368.74683 1021.3424 401.42023 1017.193 431.15683 1016.7272 C 446.10403 1016.493 448.53023 1015.5313 448.53023 1015.5313 C 469.15453 1012.1102 482.73163 997.9996 477.07483 975.6526 C 471.99653 952.8421 445.21313 939.4389 419.76103 944.079 C 395.79283 948.4485 338.02323 965.229 338.02323 965.229 C 409.43073 964.611 421.38243 965.8028 426.72023 973.2658 C 429.87253 977.6732 425.28783 983.7165 406.24373 986.8268 C 385.51073 990.2129 342.41253 994.2908 342.41253 994.2908 C 301.06763 996.7462 271.94433 996.9105 263.20953 1015.4039 C 257.50303 1027.4859 269.29493 1038.1672 274.46333 1044.8532 C 296.30403 1069.1423 327.85153 1082.242 348.15813 1091.8887 C 355.79863 1095.5184 378.21673 1102.3728 378.21673 1102.3728 C 312.33853 1098.7495 264.81643 1118.9783 236.94033 1142.269 C 205.41153 1171.4316 219.35893 1206.1926 283.95273 1227.5958 C 322.10443 1240.2374 341.02523 1246.1828 397.93423 1241.0581 C 431.45423 1239.2514 436.73833 1240.3266 437.07253 1243.077 C 437.54303 1246.9495 399.84143 1256.5687 389.54853 1259.5377 C 363.36323 1267.0907 294.72093 1282.342 294.37733 1282.416 Z" fill="white"/>
          <path d="M 294.37733 1282.416 C 294.37733 1282.416 314.11583 1283.8124 339.50853 1281.5744 C 349.79193 1280.6681 388.83523 1276.8331 418.02543 1270.4315 C 418.02543 1270.4315 453.61533 1262.8148 472.65553 1255.7982 C 492.57803 1248.4563 503.41913 1242.2251 508.29883 1233.3958 C 508.08603 1231.5867 509.80123 1225.1714 500.61383 1221.3179 C 477.12513 1211.4659 449.88383 1213.2479 395.98003 1212.105 C 336.20283 1210.0511 316.31733 1200.0453 305.72443 1191.9866 C 295.56653 1183.8115 300.67443 1161.1941 344.19863 1141.2717 C 366.12303 1130.6627 452.06913 1111.0847 452.06913 1111.0847 C 423.12403 1096.7774 369.15053 1071.6257 358.05573 1066.1944 C 348.32493 1061.431 332.75273 1054.2585 329.37723 1045.5808 C 325.55013 1037.2499 338.41553 1030.0735 345.60203 1028.0184 C 368.74683 1021.3424 401.42023 1017.193 431.15683 1016.7272 C 446.10403 1016.493 448.53023 1015.5313 448.53023 1015.5313 C 469.15453 1012.1102 482.73163 997.9996 477.07483 975.6526 C 471.99653 952.8421 445.21313 939.4389 419.76103 944.079 C 395.79283 948.4485 338.02323 965.229 338.02323 965.229 C 409.43073 964.611 421.38243 965.8028 426.72023 973.2658 C 429.87253 977.6732 425.28783 983.7165 406.24373 986.8268 C 385.51073 990.2129 342.41253 994.2908 342.41253 994.2908 C 301.06763 996.7462 271.94433 996.9105 263.20953 1015.4039 C 257.50303 1027.4859 269.29493 1038.1672 274.46333 1044.8532 C 296.30403 1069.1423 327.85153 1082.242 348.15813 1091.8887 C 355.79863 1095.5184 378.21673 1102.3728 378.21673 1102.3728 C 312.33853 1098.7495 264.81643 1118.9783 236.94033 1142.269 C 205.41153 1171.4316 219.35893 1206.1926 283.95273 1227.5958 C 322.10443 1240.2374 341.02523 1246.1828 397.93423 1241.0581 C 431.45423 1239.2514 436.73833 1240.3266 437.07253 1243.077 C 437.54303 1246.9495 399.84143 1256.5687 389.54853 1259.5377 C 363.36323 1267.0907 294.72093 1282.342 294.37733 1282.416 Z" stroke="black" stroke-linecap="butt" stroke-linejoin="round" stroke-width="0"/>
        </g>
      </g>
      <g id="Group_44">
        <title>Made with
Emacs</title>
        <g id="Group_51">
          <g id="Group_57">
            <g id="Graphic_61">
              <path d="M 701.15625 1029.7424 L 701.15625 908.4674 L 720.46125 908.4674 L 742.24125 984.2024 L 763.85625 908.4674 L 783.16125 908.4674 L 783.16125 1029.7424 L 770.29125 1029.7424 L 770.29125 930.7424 L 748.51125 1006.4774 L 735.80625 1006.4774 L 714.02625 930.7424 L 714.02625 1029.7424 Z" fill="#121212"/>
            </g>
            <g id="Graphic_60">
              <path d="M 827.05125 1031.0624 C 823.7512 1031.0624 820.5063 1030.5674 817.31625 1029.5774 C 814.1262 1028.5874 811.4038 1026.8824 809.14875 1024.4624 C 806.8937 1022.0424 805.2988 1019.2374 804.36375 1016.0474 C 803.4287 1012.8574 802.96125 1009.6674 802.96125 1006.4774 C 802.96125 1003.6174 803.3187 1000.8124 804.03375 998.0624 C 804.7488 995.3124 805.9587 992.8374 807.66375 990.6374 C 809.3688 988.4374 811.4312 986.5949 813.85125 985.1099 C 816.2713 983.6249 818.8287 982.4424 821.52375 981.5624 C 824.2188 980.6824 826.9412 980.0774 829.69125 979.7474 C 832.4413 979.4174 835.2462 979.2524 838.10625 979.2524 L 852.7913 979.2524 L 852.7913 971.1674 C 852.7913 968.8574 852.4063 966.5474 851.6362 964.2374 C 850.8662 961.9274 849.6013 960.0024 847.8412 958.4624 C 846.0812 956.9224 844.0463 955.8224 841.7362 955.1624 C 839.4262 954.5024 837.1163 954.1724 834.80625 954.1724 C 832.6062 954.1724 830.4338 954.3924 828.28875 954.8324 C 826.1437 955.2724 824.1913 956.0974 822.43125 957.3074 C 820.6712 958.5174 819.2963 960.1124 818.30625 962.0924 C 817.3162 964.0724 816.82125 966.1074 816.82125 968.1974 L 803.95125 968.1974 C 803.95125 965.6674 804.3087 963.1924 805.02375 960.7724 C 805.7388 958.3524 806.8112 956.0974 808.24125 954.0074 C 809.6713 951.9174 811.4037 950.1299 813.43875 948.6449 C 815.4738 947.1599 817.6462 945.9499 819.95625 945.0149 C 822.2663 944.0799 824.6862 943.4474 827.21625 943.1174 C 829.7463 942.7874 832.2762 942.6224 834.80625 942.6224 C 837.4463 942.6224 840.0862 942.8149 842.7262 943.1999 C 845.3663 943.5849 847.8962 944.3274 850.3162 945.4274 C 852.7363 946.5274 854.9637 947.9574 856.9988 949.7174 C 859.0338 951.4774 860.7112 953.5124 862.0312 955.8224 C 863.3513 958.1324 864.2862 960.6074 864.8362 963.2474 C 865.3863 965.8874 865.6612 968.5274 865.6612 971.1674 L 865.6612 1014.3974 C 865.6612 1015.0574 865.7712 1015.7174 865.9912 1016.3774 C 866.2113 1017.0374 866.5687 1017.6149 867.0638 1018.1099 C 867.5588 1018.6049 868.1362 1018.9624 868.7963 1019.1824 C 869.4563 1019.4024 870.1162 1019.5124 870.7762 1019.5124 L 873.2512 1019.5124 L 873.2512 1031.0624 L 870.7762 1031.0624 C 868.5762 1031.0624 866.3763 1030.7874 864.1763 1030.2374 C 861.9762 1029.6874 859.9963 1028.6974 858.2362 1027.2674 C 856.4762 1025.8374 855.1563 1024.0774 854.2762 1021.9874 C 853.3962 1019.8974 852.9013 1017.6974 852.7913 1015.3874 C 851.8012 1017.9174 850.3988 1020.1999 848.5838 1022.2349 C 846.7687 1024.2699 844.7063 1025.9749 842.3962 1027.3499 C 840.0862 1028.7249 837.6113 1029.6874 834.97125 1030.2374 C 832.3312 1030.7874 829.6913 1031.0624 827.05125 1031.0624 Z M 832.00125 1019.5124 C 834.6413 1019.5124 837.3087 1019.1549 840.0038 1018.4399 C 842.6988 1017.7249 845.0362 1016.4599 847.0162 1014.6449 C 848.9963 1012.8299 850.4537 1010.6299 851.3888 1008.0449 C 852.3238 1005.4599 852.7913 1002.7924 852.7913 1000.0424 L 852.7913 990.8024 L 838.10625 990.8024 C 836.4562 990.8024 834.7788 990.8849 833.07375 991.0499 C 831.3687 991.2149 829.7188 991.4899 828.12375 991.8749 C 826.5287 992.2599 824.9613 992.8099 823.42125 993.5249 C 821.8812 994.2399 820.5063 995.1474 819.29625 996.2474 C 818.0862 997.3474 817.2063 998.6949 816.65625 1000.2899 C 816.1062 1001.8849 815.83125 1003.5074 815.83125 1005.1574 C 815.83125 1007.1374 816.2162 1009.1174 816.98625 1011.0974 C 817.7563 1013.0774 818.9112 1014.7274 820.45125 1016.0474 C 821.9913 1017.3674 823.7787 1018.2749 825.81375 1018.7699 C 827.8488 1019.2649 829.9112 1019.5124 832.00125 1019.5124 Z" fill="#121212"/>
            </g>
            <g id="Graphic_59">
              <path d="M 912.3562 1031.0624 C 909.6062 1031.0624 906.8838 1030.6774 904.1888 1029.9074 C 901.4937 1029.1374 899.0463 1027.9274 896.8462 1026.2774 C 894.6462 1024.6274 892.8038 1022.6474 891.3188 1020.3374 C 889.8337 1018.0274 888.6513 1015.5799 887.7712 1012.9949 C 886.8912 1010.4099 886.2863 1007.7424 885.9562 1004.9924 C 885.6262 1002.2424 885.4612 999.4924 885.4612 996.7424 L 885.4612 976.9424 C 885.4612 974.1924 885.6262 971.4424 885.9562 968.6924 C 886.2863 965.9424 886.8912 963.2749 887.7712 960.6899 C 888.6513 958.1049 889.8337 955.6574 891.3188 953.3474 C 892.8038 951.0374 894.6462 949.0574 896.8462 947.4074 C 899.0463 945.7574 901.4937 944.5474 904.1888 943.7774 C 906.8838 943.0074 909.6062 942.6224 912.3562 942.6224 C 914.8863 942.6224 917.3887 942.9524 919.8638 943.6124 C 922.3388 944.2724 924.5937 945.3449 926.6288 946.8299 C 928.6638 948.3149 930.3962 950.1299 931.8262 952.2749 C 933.2563 954.4199 934.4112 956.6474 935.2913 958.9574 L 935.2913 908.4674 L 948.1612 908.4674 L 948.1612 1029.7424 L 935.2913 1029.7424 L 935.2913 1014.7274 C 934.4112 1017.0374 933.2563 1019.2649 931.8262 1021.4099 C 930.3962 1023.5549 928.6638 1025.3699 926.6288 1026.8549 C 924.5937 1028.3399 922.3388 1029.4124 919.8638 1030.0724 C 917.3887 1030.7324 914.8863 1031.0624 912.3562 1031.0624 Z M 917.3062 1019.5124 C 919.1763 1019.5124 921.0187 1019.2649 922.8338 1018.7699 C 924.6488 1018.2749 926.2712 1017.4774 927.7012 1016.3774 C 929.1313 1015.2774 930.3687 1013.9574 931.4138 1012.4174 C 932.4588 1010.8774 933.2562 1009.2549 933.8062 1007.5499 C 934.3563 1005.8449 934.7412 1004.0849 934.9612 1002.2699 C 935.1813 1000.4549 935.2913 998.6124 935.2913 996.7424 L 935.2913 976.9424 C 935.2913 975.0724 935.1813 973.2299 934.9612 971.4149 C 934.7412 969.5999 934.3563 967.8399 933.8062 966.1349 C 933.2562 964.4299 932.4588 962.7799 931.4138 961.1849 C 930.3687 959.5899 929.1313 958.2424 927.7012 957.1424 C 926.2712 956.0424 924.6488 955.2724 922.8338 954.8324 C 921.0187 954.3924 919.1763 954.1724 917.3062 954.1724 C 915.4362 954.1724 913.5938 954.3924 911.7788 954.8324 C 909.9637 955.2724 908.2863 956.0149 906.7462 957.0599 C 905.2062 958.1049 903.8588 959.3974 902.7038 960.9374 C 901.5487 962.4774 900.6413 964.1274 899.9812 965.8874 C 899.3212 967.6474 898.8813 969.4624 898.6613 971.3324 C 898.4412 973.2024 898.3312 975.0724 898.3312 976.9424 L 898.3312 996.7424 C 898.3312 998.6124 898.4412 1000.4824 898.6613 1002.3524 C 898.8813 1004.2224 899.3212 1006.0374 899.9812 1007.7974 C 900.6413 1009.5574 901.5487 1011.2074 902.7038 1012.7474 C 903.8588 1014.2874 905.2062 1015.5799 906.7462 1016.6249 C 908.2863 1017.6699 909.9637 1018.4124 911.7788 1018.8524 C 913.5938 1019.2924 915.4362 1019.5124 917.3062 1019.5124 Z" fill="#121212"/>
            </g>
            <g id="Graphic_58">
              <path d="M 1000.3013 1031.0624 C 997.3312 1031.0624 994.3613 1030.7874 991.3912 1030.2374 C 988.4212 1029.6874 985.6438 1028.6699 983.0588 1027.1849 C 980.4737 1025.6999 978.1638 1023.8299 976.1288 1021.5749 C 974.0937 1019.3199 972.4438 1016.8449 971.1788 1014.1499 C 969.9137 1011.4549 969.0613 1008.6224 968.6212 1005.6524 C 968.1812 1002.6824 967.9612 999.7124 967.9612 996.7424 L 967.9612 976.9424 C 967.9612 973.9724 968.1812 971.0024 968.6212 968.0324 C 969.0613 965.0624 969.8862 962.2299 971.0962 959.5349 C 972.3063 956.8399 973.9287 954.3649 975.9638 952.1099 C 977.9988 949.8549 980.2812 948.0124 982.8112 946.5824 C 985.3413 945.1524 988.0912 944.1349 991.0613 943.5299 C 994.0313 942.9249 997.0012 942.6224 999.9713 942.6224 C 1002.9413 942.6224 1005.9112 942.9249 1008.8813 943.5299 C 1011.8513 944.1349 1014.6012 945.1524 1017.1312 946.5824 C 1019.6613 948.0124 1021.9437 949.8549 1023.9788 952.1099 C 1026.0138 954.3649 1027.6362 956.8399 1028.8462 959.5349 C 1030.0563 962.2299 1030.8812 965.0624 1031.3212 968.0324 C 1031.7613 971.0024 1031.9812 973.9724 1031.9812 976.9424 L 1031.9812 992.6174 L 980.8313 992.6174 L 980.8313 996.7424 C 980.8313 998.6124 980.9412 1000.4824 981.1613 1002.3524 C 981.3813 1004.2224 981.8487 1006.0374 982.5638 1007.7974 C 983.2788 1009.5574 984.2137 1011.2074 985.3688 1012.7474 C 986.5238 1014.2874 987.8987 1015.5799 989.4938 1016.6249 C 991.0888 1017.6699 992.8212 1018.4124 994.6912 1018.8524 C 996.5613 1019.2924 998.4312 1019.5124 1000.3013 1019.5124 C 1002.3913 1019.5124 1004.5087 1019.2924 1006.6538 1018.8524 C 1008.7988 1018.4124 1010.7512 1017.6424 1012.5113 1016.5424 C 1014.2713 1015.4424 1015.7287 1013.9574 1016.8838 1012.0874 C 1018.0388 1010.2174 1018.6712 1008.1824 1018.7813 1005.9824 L 1031.6513 1005.9824 C 1031.5412 1008.5124 1031.0738 1010.9599 1030.2488 1013.3249 C 1029.4237 1015.6899 1028.2688 1017.8899 1026.7838 1019.9249 C 1025.2987 1021.9599 1023.5388 1023.7199 1021.5038 1025.2049 C 1019.4687 1026.6899 1017.2963 1027.8724 1014.9863 1028.7524 C 1012.6762 1029.6324 1010.2563 1030.2374 1007.7263 1030.5674 C 1005.1962 1030.8974 1002.7213 1031.0624 1000.3013 1031.0624 Z M 1019.1113 981.0674 L 1019.1113 976.9424 C 1019.1113 975.0724 1019.0013 973.2024 1018.7813 971.3324 C 1018.5612 969.4624 1018.1213 967.6474 1017.4612 965.8874 C 1016.8012 964.1274 1015.8938 962.4774 1014.7388 960.9374 C 1013.5837 959.3974 1012.2363 958.1049 1010.6962 957.0599 C 1009.1562 956.0149 1007.4513 955.2724 1005.5812 954.8324 C 1003.7112 954.3924 1001.8413 954.1724 999.9713 954.1724 C 998.1012 954.1724 996.2313 954.3924 994.3612 954.8324 C 992.4912 955.2724 990.7863 956.0149 989.2462 957.0599 C 987.7062 958.1049 986.3588 959.3974 985.2038 960.9374 C 984.0487 962.4774 983.1413 964.1274 982.4813 965.8874 C 981.8212 967.6474 981.3813 969.4624 981.1613 971.3324 C 980.9412 973.2024 980.8313 975.0724 980.8313 976.9424 L 980.8313 981.0674 Z" fill="#121212"/>
            </g>
          </g>
          <g id="Group_52">
            <g id="Graphic_56">
              <path d="M 1112.3788 1029.7424 L 1094.8888 943.9424 L 1107.9238 943.9424 L 1119.6388 1015.5524 L 1132.0138 968.0324 L 1145.0488 968.0324 L 1157.4238 1015.5524 L 1169.1388 943.9424 L 1182.1738 943.9424 L 1164.6838 1029.7424 L 1151.6488 1029.7424 L 1138.6138 980.0774 L 1125.4138 1029.7424 Z" fill="#121212"/>
            </g>
            <g id="Graphic_55">
              <path d="M 1199.3338 1029.7424 L 1199.3338 1018.1924 L 1215.3387 1018.1924 L 1215.3387 955.4924 L 1200.6538 955.4924 L 1200.6538 943.9424 L 1228.0438 943.9424 L 1228.0438 1018.1924 L 1242.7288 1018.1924 L 1242.7288 1029.7424 Z M 1221.1138 929.4224 C 1219.6837 929.4224 1218.3088 929.2299 1216.9888 928.8449 C 1215.6687 928.4599 1214.5138 927.7724 1213.5238 926.7824 C 1212.5337 925.7924 1211.8463 924.6374 1211.4612 923.3174 C 1211.0762 921.9974 1210.8838 920.6224 1210.8838 919.1924 C 1210.8838 917.7624 1211.0762 916.3874 1211.4612 915.0674 C 1211.8463 913.7474 1212.5337 912.5924 1213.5238 911.6024 C 1214.5138 910.6124 1215.6687 909.8974 1216.9888 909.4574 C 1218.3088 909.0174 1219.6837 908.7974 1221.1138 908.7974 C 1222.5438 908.7974 1223.9187 909.0174 1225.2388 909.4574 C 1226.5588 909.8974 1227.7137 910.6124 1228.7037 911.6024 C 1229.6938 912.5924 1230.4087 913.7474 1230.8488 915.0674 C 1231.2888 916.3874 1231.5088 917.7624 1231.5088 919.1924 C 1231.5088 920.6224 1231.2888 921.9974 1230.8488 923.3174 C 1230.4087 924.6374 1229.6938 925.7924 1228.7037 926.7824 C 1227.7137 927.7724 1226.5588 928.4599 1225.2388 928.8449 C 1223.9187 929.2299 1222.5438 929.4224 1221.1138 929.4224 Z" fill="#121212"/>
            </g>
            <g id="Graphic_54">
              <path d="M 1296.3537 1029.7424 C 1294.3737 1029.7424 1292.3938 1029.5774 1290.4137 1029.2474 C 1288.4337 1028.9174 1286.5363 1028.3124 1284.7212 1027.4324 C 1282.9062 1026.5524 1281.3113 1025.3974 1279.9362 1023.9674 C 1278.5612 1022.5374 1277.4338 1020.9424 1276.5537 1019.1824 C 1275.6737 1017.4224 1275.0688 1015.5524 1274.7387 1013.5724 C 1274.4087 1011.5924 1274.2437 1009.6124 1274.2437 1007.6324 L 1274.2437 955.4924 L 1257.2487 955.4924 L 1257.2487 943.9424 L 1274.2437 943.9424 L 1274.2437 908.4674 L 1286.9487 908.4674 L 1286.9487 943.9424 L 1309.0587 943.9424 L 1309.0587 955.4924 L 1286.9487 955.4924 L 1286.9487 1007.6324 C 1286.9487 1008.9524 1287.1137 1010.2724 1287.4437 1011.5924 C 1287.7738 1012.9124 1288.3512 1014.0949 1289.1762 1015.1399 C 1290.0013 1016.1849 1291.0462 1016.9549 1292.3112 1017.4499 C 1293.5763 1017.9449 1294.9237 1018.1924 1296.3537 1018.1924 L 1309.0587 1018.1924 L 1309.0587 1029.7424 Z" fill="#121212"/>
            </g>
            <g id="Graphic_53">
              <path d="M 1324.4038 1029.7424 L 1324.4038 908.4674 L 1337.2738 908.4674 L 1337.2738 958.9574 C 1338.1538 956.6474 1339.3087 954.4474 1340.7388 952.3574 C 1342.1688 950.2674 1343.9012 948.4524 1345.9362 946.9124 C 1347.9713 945.3724 1350.2262 944.2724 1352.7013 943.6124 C 1355.1763 942.9524 1357.6237 942.6224 1360.0437 942.6224 C 1362.7938 942.6224 1365.4887 943.0074 1368.1288 943.7774 C 1370.7688 944.5474 1373.1062 945.7849 1375.1412 947.4899 C 1377.1763 949.1949 1378.9087 951.2299 1380.3387 953.5949 C 1381.7688 955.9599 1382.8962 958.4349 1383.7212 961.0199 C 1384.5463 963.6049 1385.0962 966.2449 1385.3712 968.9399 C 1385.6463 971.6349 1385.7838 974.3024 1385.7838 976.9424 L 1385.7838 1029.7424 L 1372.9138 1029.7424 L 1372.9138 976.9424 C 1372.9138 975.0724 1372.8038 973.2299 1372.5838 971.4149 C 1372.3637 969.5999 1371.9788 967.8399 1371.4288 966.1349 C 1370.8787 964.4299 1370.0813 962.8074 1369.0363 961.2674 C 1367.9912 959.7274 1366.7538 958.4074 1365.3238 957.3074 C 1363.8937 956.2074 1362.2988 955.4099 1360.5388 954.9149 C 1358.7787 954.4199 1356.9638 954.1724 1355.0937 954.1724 C 1353.2237 954.1724 1351.4088 954.4199 1349.6488 954.9149 C 1347.8887 955.4099 1346.2938 956.2074 1344.8638 957.3074 C 1343.4337 958.4074 1342.1963 959.7274 1341.1512 961.2674 C 1340.1062 962.8074 1339.3088 964.4299 1338.7588 966.1349 C 1338.2087 967.8399 1337.8238 969.5999 1337.6038 971.4149 C 1337.3837 973.2299 1337.2738 975.0724 1337.2738 976.9424 L 1337.2738 1029.7424 Z" fill="#121212"/>
            </g>
          </g>
        </g>
        <g id="Group_45">
          <g id="Graphic_50">
            <path d="M 677 1289.5075 L 677 1105.7575 L 781 1105.7575 L 781 1124.2575 L 697.75 1124.2575 L 697.75 1184.7575 L 765 1184.7575 L 765 1203.2575 L 697.75 1203.2575 L 697.75 1271.0075 L 781 1271.0075 L 781 1289.5075 Z" fill="#121212"/>
          </g>
          <g id="Graphic_49">
            <path d="M 820 1289.5075 L 820 1159.5075 L 840.75 1159.5075 L 840.75 1176.2575 C 841.9167 1173.4241 843.4167 1170.7992 845.25 1168.3825 C 847.0833 1165.9658 849.25 1163.9242 851.75 1162.2575 C 854.25 1160.5908 857 1159.3825 860 1158.6325 C 863 1157.8825 866 1157.5075 869 1157.5075 C 872.6667 1157.5075 876.2083 1158.0491 879.625 1159.1325 C 883.0417 1160.2158 886.125 1161.9241 888.875 1164.2575 C 891.625 1166.5908 893.9167 1169.3408 895.75 1172.5075 C 897.5833 1175.6742 899 1179.0075 900 1182.5075 C 900.8333 1179.0075 902.125 1175.6742 903.875 1172.5075 C 905.625 1169.3408 907.875 1166.5908 910.625 1164.2575 C 913.375 1161.9241 916.4583 1160.2158 919.875 1159.1325 C 923.2917 1158.0491 926.8333 1157.5075 930.5 1157.5075 C 933.8334 1157.5075 937.1666 1158.0075 940.5 1159.0075 C 943.8334 1160.0075 946.875 1161.5491 949.625 1163.6325 C 952.375 1165.7158 954.6667 1168.2575 956.5 1171.2575 C 958.3333 1174.2575 959.75 1177.3825 960.75 1180.6325 C 961.75 1183.8825 962.4583 1187.2158 962.875 1190.6325 C 963.2917 1194.0492 963.5 1197.5075 963.5 1201.0075 L 963.5 1289.5075 L 942.75 1289.5075 L 942.75 1201.0075 C 942.75 1197.8408 942.4583 1194.7575 941.875 1191.7575 C 941.2917 1188.7575 940.0833 1186.0075 938.25 1183.5075 C 936.4167 1181.0075 934.0833 1179.0908 931.25 1177.7575 C 928.4167 1176.4241 925.5 1175.7575 922.5 1175.7575 C 919.5 1175.7575 916.5417 1176.4241 913.625 1177.7575 C 910.7083 1179.0908 908.375 1181.0075 906.625 1183.5075 C 904.875 1186.0075 903.6667 1188.7575 903 1191.7575 C 902.3333 1194.7575 902 1197.8408 902 1201.0075 L 902 1289.5075 L 881.5 1289.5075 L 881.5 1201.0075 C 881.5 1197.8408 881.1667 1194.7575 880.5 1191.7575 C 879.8333 1188.7575 878.625 1186.0075 876.875 1183.5075 C 875.125 1181.0075 872.7917 1179.0908 869.875 1177.7575 C 866.9583 1176.4241 864 1175.7575 861 1175.7575 C 858 1175.7575 855.0833 1176.4241 852.25 1177.7575 C 849.4167 1179.0908 847.0833 1181.0075 845.25 1183.5075 C 843.4167 1186.0075 842.2083 1188.7575 841.625 1191.7575 C 841.0417 1194.7575 840.75 1197.8408 840.75 1201.0075 L 840.75 1289.5075 Z" fill="#121212"/>
          </g>
          <g id="Graphic_48">
            <path d="M 1043.25 1291.5075 C 1043.25 1291.5075 1043.1667 1291.5075 1043 1291.5075 C 1039.5 1291.5075 1035.9584 1291.2575 1032.375 1290.7575 C 1028.7916 1290.2575 1025.375 1289.3408 1022.125 1288.0075 C 1018.875 1286.6741 1015.8333 1284.8825 1013 1282.6325 C 1010.1667 1280.3825 1007.7917 1277.7575 1005.875 1274.7575 C 1003.9583 1271.7575 1002.5833 1268.4658 1001.75 1264.8825 C 1000.9167 1261.2991 1000.5 1257.7575 1000.5 1254.2575 C 1000.5 1249.5908 1001.25 1245.0492 1002.75 1240.6325 C 1004.25 1236.2158 1006.5833 1232.3408 1009.75 1229.0075 C 1012.9167 1225.6741 1016.5416 1222.9658 1020.625 1220.8825 C 1024.7084 1218.7991 1029 1217.1325 1033.5 1215.8825 C 1038 1214.6325 1042.5416 1213.7992 1047.125 1213.3825 C 1051.7084 1212.9658 1056.25 1212.7575 1060.75 1212.7575 L 1087.75 1212.7575 L 1087.75 1202.7575 C 1087.75 1200.0908 1087.4167 1197.4242 1086.75 1194.7575 C 1086.0833 1192.0908 1085 1189.6742 1083.5 1187.5075 C 1082 1185.3408 1080.125 1183.4658 1077.875 1181.8825 C 1075.625 1180.2991 1073.25 1179.0908 1070.75 1178.2575 C 1068.25 1177.4241 1065.6667 1176.8408 1063 1176.5075 C 1060.3333 1176.1741 1057.6667 1176.0075 1055 1176.0075 C 1051.3333 1176.0075 1047.7084 1176.2991 1044.125 1176.8825 C 1040.5416 1177.4658 1037.125 1178.6325 1033.875 1180.3825 C 1030.625 1182.1325 1027.9583 1184.5908 1025.875 1187.7575 C 1023.7917 1190.9242 1022.75 1194.3408 1022.75 1198.0075 L 1002 1198.0075 C 1002 1193.8408 1002.7083 1189.7575 1004.125 1185.7575 C 1005.5417 1181.7575 1007.5417 1178.1325 1010.125 1174.8825 C 1012.7083 1171.6325 1015.75 1168.8408 1019.25 1166.5075 C 1022.75 1164.1741 1026.4583 1162.3408 1030.375 1161.0075 C 1034.2917 1159.6741 1038.3333 1158.7575 1042.5 1158.2575 C 1046.6667 1157.7575 1050.8333 1157.5075 1055 1157.5075 C 1059.5 1157.5075 1063.9583 1157.7991 1068.375 1158.3825 C 1072.7917 1158.9658 1077.0416 1160.0491 1081.125 1161.6325 C 1085.2084 1163.2158 1089.0416 1165.3408 1092.625 1168.0075 C 1096.2084 1170.6742 1099.25 1173.8408 1101.75 1177.5075 C 1104.25 1181.1742 1106 1185.1741 1107 1189.5075 C 1108 1193.8408 1108.5 1198.2575 1108.5 1202.7575 L 1108.5 1263.5075 C 1108.5 1264.6742 1108.7083 1265.9241 1109.125 1267.2575 C 1109.5417 1268.5908 1110.2083 1269.7158 1111.125 1270.6325 C 1112.0417 1271.5492 1113.125 1272.1741 1114.375 1272.5075 C 1115.625 1272.8408 1116.9167 1273.0075 1118.25 1273.0075 L 1122.5 1273.0075 L 1122.5 1291.5075 L 1118.25 1291.5075 C 1114.5833 1291.5075 1110.9584 1291.0908 1107.375 1290.2575 C 1103.7916 1289.4241 1100.5417 1287.8825 1097.625 1285.6325 C 1094.7083 1283.3825 1092.4167 1280.5908 1090.75 1277.2575 C 1089.0833 1273.9241 1088.1667 1270.4242 1088 1266.7575 C 1086 1270.9242 1083.4167 1274.6325 1080.25 1277.8825 C 1077.0833 1281.1325 1073.5 1283.7991 1069.5 1285.8825 C 1065.5 1287.9658 1061.25 1289.4241 1056.75 1290.2575 C 1052.25 1291.0908 1047.75 1291.5075 1043.25 1291.5075 Z M 1051 1273.2575 C 1054 1273.2575 1057 1273.0075 1060 1272.5075 C 1063 1272.0075 1065.9167 1271.2575 1068.75 1270.2575 C 1071.5833 1269.2575 1074.25 1267.8408 1076.75 1266.0075 C 1079.25 1264.1741 1081.375 1262.0075 1083.125 1259.5075 C 1084.875 1257.0075 1086.0833 1254.2575 1086.75 1251.2575 C 1087.4167 1248.2575 1087.75 1245.2575 1087.75 1242.2575 L 1087.75 1231.0075 L 1060.75 1231.0075 C 1058.0833 1231.0075 1055.3333 1231.0908 1052.5 1231.2575 C 1049.6667 1231.4242 1046.9167 1231.7991 1044.25 1232.3825 C 1041.5833 1232.9658 1038.9167 1233.6741 1036.25 1234.5075 C 1033.5833 1235.3408 1031.0833 1236.5491 1028.75 1238.1325 C 1026.4167 1239.7158 1024.5833 1241.7575 1023.25 1244.2575 C 1021.9167 1246.7575 1021.25 1249.3408 1021.25 1252.0075 C 1021.25 1255.5075 1022.1667 1258.7575 1024 1261.7575 C 1025.8333 1264.7575 1028.2083 1267.1325 1031.125 1268.8825 C 1034.0417 1270.6325 1037.2083 1271.7991 1040.625 1272.3825 C 1044.0417 1272.9658 1047.5 1273.2575 1051 1273.2575 Z" fill="#121212"/>
          </g>
          <g id="Graphic_47">
            <path d="M 1200 1291.5075 C 1195 1291.5075 1190.0834 1291.0908 1185.25 1290.2575 C 1180.4166 1289.4241 1175.8334 1287.9242 1171.5 1285.7575 C 1167.1666 1283.5908 1163.25 1280.7158 1159.75 1277.1325 C 1156.25 1273.5491 1153.4167 1269.5908 1151.25 1265.2575 C 1149.0833 1260.9241 1147.5833 1256.3408 1146.75 1251.5075 C 1145.9167 1246.6741 1145.5 1241.8408 1145.5 1237.0075 L 1145.5 1212.0075 C 1145.5 1207.1741 1145.9167 1202.3408 1146.75 1197.5075 C 1147.5833 1192.6741 1149.0833 1188.0908 1151.25 1183.7575 C 1153.4167 1179.4241 1156.25 1175.4658 1159.75 1171.8825 C 1163.25 1168.2991 1167.1666 1165.4242 1171.5 1163.2575 C 1175.8334 1161.0908 1180.4166 1159.5908 1185.25 1158.7575 C 1190.0834 1157.9241 1195 1157.5075 1200 1157.5075 C 1204.5 1157.5075 1208.9583 1157.8408 1213.375 1158.5075 C 1217.7917 1159.1742 1222.0833 1160.3825 1226.25 1162.1325 C 1230.4167 1163.8825 1234.2916 1166.1741 1237.875 1169.0075 C 1241.4584 1171.8408 1244.4167 1175.1325 1246.75 1178.8825 C 1249.0833 1182.6325 1250.875 1186.7158 1252.125 1191.1325 C 1253.375 1195.5492 1254 1200.0075 1254 1204.5075 L 1233.25 1204.5075 C 1233.25 1200.3408 1232.375 1196.2992 1230.625 1192.3825 C 1228.875 1188.4658 1226.4167 1185.2575 1223.25 1182.7575 C 1220.0833 1180.2575 1216.4167 1178.5075 1212.25 1177.5075 C 1208.0833 1176.5075 1204 1176.0075 1200 1176.0075 C 1196.8333 1176.0075 1193.7083 1176.2991 1190.625 1176.8825 C 1187.5417 1177.4658 1184.625 1178.5075 1181.875 1180.0075 C 1179.125 1181.5075 1176.7083 1183.4658 1174.625 1185.8825 C 1172.5417 1188.2992 1170.8333 1190.9241 1169.5 1193.7575 C 1168.1667 1196.5908 1167.2917 1199.5491 1166.875 1202.6325 C 1166.4583 1205.7158 1166.25 1208.8408 1166.25 1212.0075 L 1166.25 1237.0075 C 1166.25 1240.1742 1166.4583 1243.2991 1166.875 1246.3825 C 1167.2917 1249.4658 1168.1667 1252.4241 1169.5 1255.2575 C 1170.8333 1258.0908 1172.5417 1260.7158 1174.625 1263.1325 C 1176.7083 1265.5492 1179.125 1267.5075 1181.875 1269.0075 C 1184.625 1270.5075 1187.5417 1271.5491 1190.625 1272.1325 C 1193.7083 1272.7158 1196.8333 1273.0075 1200 1273.0075 C 1204 1273.0075 1208.0833 1272.5075 1212.25 1271.5075 C 1216.4167 1270.5075 1220.0833 1268.7575 1223.25 1266.2575 C 1226.4167 1263.7575 1228.875 1260.5492 1230.625 1256.6325 C 1232.375 1252.7158 1233.25 1248.6742 1233.25 1244.5075 L 1254 1244.5075 C 1254 1249.0075 1253.375 1253.4658 1252.125 1257.8825 C 1250.875 1262.2992 1249.0833 1266.3825 1246.75 1270.1325 C 1244.4167 1273.8825 1241.4584 1277.1741 1237.875 1280.0075 C 1234.2916 1282.8408 1230.4167 1285.1325 1226.25 1286.8825 C 1222.0833 1288.6325 1217.7917 1289.8408 1213.375 1290.5075 C 1208.9583 1291.1742 1204.5 1291.5075 1200 1291.5075 Z" fill="#121212"/>
          </g>
          <g id="Graphic_46">
            <path d="M 1345.25 1291.5075 C 1341.0833 1291.5075 1336.9584 1291.2992 1332.875 1290.8825 C 1328.7916 1290.4658 1324.7917 1289.6325 1320.875 1288.3825 C 1316.9583 1287.1325 1313.2084 1285.4658 1309.625 1283.3825 C 1306.0416 1281.2991 1302.9167 1278.7158 1300.25 1275.6325 C 1297.5833 1272.5491 1295.5417 1269.0492 1294.125 1265.1325 C 1292.7083 1261.2158 1292 1257.1742 1292 1253.0075 C 1292 1253.0075 1292 1252.9658 1292 1252.8825 C 1292 1252.7992 1292 1252.7575 1292 1252.7575 L 1312.75 1252.7575 C 1312.75 1255.0908 1313.25 1257.3825 1314.25 1259.6325 C 1315.25 1261.8825 1316.625 1263.7991 1318.375 1265.3825 C 1320.125 1266.9658 1322.0833 1268.2575 1324.25 1269.2575 C 1326.4167 1270.2575 1328.6667 1271.0491 1331 1271.6325 C 1333.3333 1272.2158 1335.6667 1272.5908 1338 1272.7575 C 1340.3333 1272.9242 1342.75 1273.0075 1345.25 1273.0075 C 1347.5833 1273.0075 1349.9167 1272.9242 1352.25 1272.7575 C 1354.5833 1272.5908 1356.875 1272.2575 1359.125 1271.7575 C 1361.375 1271.2575 1363.5833 1270.5492 1365.75 1269.6325 C 1367.9167 1268.7158 1369.9167 1267.5075 1371.75 1266.0075 C 1373.5833 1264.5075 1375.0833 1262.7158 1376.25 1260.6325 C 1377.4167 1258.5491 1378 1256.3408 1378 1254.0075 C 1378 1251.3408 1377.2083 1248.8408 1375.625 1246.5075 C 1374.0417 1244.1741 1372.0833 1242.3408 1369.75 1241.0075 C 1367.4167 1239.6741 1364.9583 1238.7575 1362.375 1238.2575 C 1359.7917 1237.7575 1357.1667 1237.2992 1354.5 1236.8825 C 1351.8333 1236.4658 1349.2083 1235.9658 1346.625 1235.3825 C 1344.0417 1234.7991 1341.4167 1234.2158 1338.75 1233.6325 C 1336.0833 1233.0491 1333.4583 1232.4242 1330.875 1231.7575 C 1328.2917 1231.0908 1325.75 1230.3408 1323.25 1229.5075 C 1320.75 1228.6741 1318.2917 1227.6742 1315.875 1226.5075 C 1313.4583 1225.3408 1311.1667 1223.9658 1309 1222.3825 C 1306.8333 1220.7991 1304.8333 1219.0075 1303 1217.0075 C 1301.1667 1215.0075 1299.625 1212.8408 1298.375 1210.5075 C 1297.125 1208.1741 1296.1667 1205.7158 1295.5 1203.1325 C 1294.8333 1200.5491 1294.5 1197.9242 1294.5 1195.2575 C 1294.5 1191.2575 1295.2083 1187.3408 1296.625 1183.5075 C 1298.0417 1179.6741 1300 1176.2575 1302.5 1173.2575 C 1305 1170.2575 1308 1167.7158 1311.5 1165.6325 C 1315 1163.5491 1318.625 1161.8825 1322.375 1160.6325 C 1326.125 1159.3825 1330 1158.5492 1334 1158.1325 C 1338 1157.7158 1341.9166 1157.5075 1345.75 1157.5075 C 1349.75 1157.5075 1353.75 1157.7158 1357.75 1158.1325 C 1361.75 1158.5492 1365.625 1159.3825 1369.375 1160.6325 C 1373.125 1161.8825 1376.7083 1163.5908 1380.125 1165.7575 C 1383.5417 1167.9242 1386.5417 1170.5075 1389.125 1173.5075 C 1391.7083 1176.5075 1393.6667 1179.9241 1395 1183.7575 C 1396.3333 1187.5908 1397 1191.5075 1397 1195.5075 C 1397 1195.5075 1397 1195.5492 1397 1195.6325 C 1397 1195.7158 1397 1195.7575 1397 1195.7575 L 1376.25 1195.7575 C 1376.25 1192.4241 1375.2083 1189.2992 1373.125 1186.3825 C 1371.0417 1183.4658 1368.5 1181.2575 1365.5 1179.7575 C 1362.5 1178.2575 1359.3333 1177.2575 1356 1176.7575 C 1352.6667 1176.2575 1349.25 1176.0075 1345.75 1176.0075 C 1343.5833 1176.0075 1341.375 1176.0908 1339.125 1176.2575 C 1336.875 1176.4242 1334.6667 1176.7575 1332.5 1177.2575 C 1330.3333 1177.7575 1328.2083 1178.5075 1326.125 1179.5075 C 1324.0417 1180.5075 1322.1667 1181.7575 1320.5 1183.2575 C 1318.8333 1184.7575 1317.5 1186.5491 1316.5 1188.6325 C 1315.5 1190.7158 1315 1192.8408 1315 1195.0075 C 1315 1197.6742 1315.7917 1200.1741 1317.375 1202.5075 C 1318.9583 1204.8408 1320.875 1206.6741 1323.125 1208.0075 C 1325.375 1209.3408 1327.8333 1210.2575 1330.5 1210.7575 C 1333.1667 1211.2575 1335.8333 1211.7158 1338.5 1212.1325 C 1341.1667 1212.5492 1343.7917 1213.0075 1346.375 1213.5075 C 1348.9583 1214.0075 1351.5417 1214.5908 1354.125 1215.2575 C 1356.7083 1215.9242 1359.2917 1216.5908 1361.875 1217.2575 C 1364.4583 1217.9242 1367.0417 1218.6741 1369.625 1219.5075 C 1372.2083 1220.3408 1374.6667 1221.3408 1377 1222.5075 C 1379.3333 1223.6742 1381.5833 1225.0491 1383.75 1226.6325 C 1385.9167 1228.2158 1387.9167 1230.0075 1389.75 1232.0075 C 1391.5833 1234.0075 1393.1667 1236.1741 1394.5 1238.5075 C 1395.8333 1240.8408 1396.8333 1243.2991 1397.5 1245.8825 C 1398.1667 1248.4658 1398.5 1251.0908 1398.5 1253.7575 C 1398.5 1257.7575 1397.75 1261.7158 1396.25 1265.6325 C 1394.75 1269.5492 1392.6667 1273.0075 1390 1276.0075 C 1387.3333 1279.0075 1384.2084 1281.5491 1380.625 1283.6325 C 1377.0416 1285.7158 1373.2917 1287.3408 1369.375 1288.5075 C 1365.4583 1289.6742 1361.4584 1290.4658 1357.375 1290.8825 C 1353.2916 1291.2992 1349.25 1291.5075 1345.25 1291.5075 Z" fill="#121212"/>
          </g>
        </g>
      </g>
    </g>
  </g>
</svg>
