<?xml version="1.0" encoding="UTF-8" standalone="no"?>
<!DOCTYPE svg PUBLIC "-//W3C//DTD SVG 1.1//EN" "http://www.w3.org/Graphics/SVG/1.1/DTD/svg11.dtd">
<svg xmlns="http://www.w3.org/2000/svg" xmlns:dc="http://purl.org/dc/elements/1.1/" version="1.1" xmlns:xl="http://www.w3.org/1999/xlink" viewBox="514 460 726 158.5" width="726" height="158.5">
  <defs>
    <marker orient="auto" overflow="visible" markerUnits="strokeWidth" id="FilledArrow_Marker" stroke-linejoin="miter" stroke-miterlimit="10" viewBox="-1 -3 6 6" markerWidth="6" markerHeight="6" color="#88c1d0">
      <g>
        <path d="M 3.7333333 0 L 0 -1.4 L 0 1.4 Z" fill="currentColor" stroke="currentColor" stroke-width="1"/>
      </g>
    </marker>
  </defs>
  <g id="Canvas_1" fill="none" stroke-opacity="1" fill-opacity="1" stroke="none" stroke-dasharray="none">
    <title>Canvas 1</title>
    <g id="Canvas_1_Layer_1">
      <title>Layer 1</title>
      <g id="Line_6">
        <line x1="741.5" y1="539.25" x2="814.0648" y2="539.25" marker-end="url(#FilledArrow_Marker)" stroke="#88c1d0" stroke-linecap="round" stroke-linejoin="round" stroke-width="3"/>
      </g>
      <g id="Line_7">
        <line x1="960.0352" y1="539.25" x2="1051.1" y2="539.25" marker-end="url(#FilledArrow_Marker)" stroke="#88c1d0" stroke-linecap="round" stroke-linejoin="round" stroke-width="3"/>
      </g>
      <g id="Graphic_3">
        <path d="M 524 496.25 L 736.5 496.25 C 739.2614 496.25 741.5 498.4886 741.5 501.25 L 741.5 577.25 C 741.5 580.0114 739.2614 582.25 736.5 582.25 L 524 582.25 C 521.2386 582.25 519 580.0114 519 577.25 L 519 501.25 C 519 498.4886 521.2386 496.25 524 496.25 Z" fill="#eccb8b"/>
        <text transform="translate(524 521.198)" fill="black">
          <tspan font-family="Helvetica Neue" font-size="16" fill="black" x="43.274" y="15">Source Language</tspan>
          <tspan font-family="Iosevka Output" font-size="16" fill="black" x="6.25" y="32.447998">(Simply typed λ calculus)</tspan>
        </text>
      </g>
      <g id="Graphic_4">
        <path d="M 1072 494 L 1230 494 C 1232.7614 494 1235 496.2386 1235 499 L 1235 579.5 C 1235 582.2614 1232.7614 584.5 1230 584.5 L 1072 584.5 C 1069.2386 584.5 1067 582.2614 1067 579.5 L 1067 499 C 1067 496.2386 1069.2386 494 1072 494 Z" fill="#b48ead"/>
        <text transform="translate(1072 521.198)" fill="black">
          <tspan font-family="Helvetica Neue" font-size="16" fill="black" x="19.512" y="15">Target Language</tspan>
          <tspan font-family="Iosevka Output" font-size="16" fill="black" x="11" y="32.447998">(Racket; untyped)</tspan>
        </text>
      </g>
      <g id="Graphic_5">
        <path d="M 830.39 537.2322 L 860.9346 467.9822 C 861.7341 466.1696 863.5283 465 865.5094 465 L 924.4906 465 C 926.4717 465 928.2659 466.1696 929.0654 467.9822 L 959.61 537.2322 C 960.177 538.51765 960.177 539.98235 959.61 541.2678 L 929.0654 610.5178 C 928.2659 612.3304 926.4717 613.5 924.4906 613.5 L 865.5094 613.5 C 863.5283 613.5 861.7341 612.3304 860.9346 610.5178 L 830.39 541.2678 C 829.823 539.98235 829.823 538.51765 830.39 537.2322 Z" fill="#a3be8c"/>
        <clipPath id="clip_path">
          <path d="M .8900157 72.23218 L 31.43463 2.9821782 C 32.23411 1.1696152 34.028336 0 36.009385 0 L 94.99062 0 C 96.97166 0 98.76589 1.1696152 99.56537 2.9821782 L 130.10998 72.23218 C 130.67698 73.51765 130.67698 74.98235 130.10998 76.26782 L 99.56537 145.51782 C 98.76589 147.33038 96.97166 148.5 94.99062 148.5 L 36.009385 148.5 C 34.028336 148.5 32.23411 147.33038 31.43463 145.51782 L .8900157 76.26782 C .32302407 74.98235 .32302407 73.51765 .8900157 72.23218 Z" fill="#a3be8c"/>
        </clipPath>
        <text clip-path="url(#clip_path)" transform="translate(829.5 465)" fill="black">
          <tspan font-family="Helvetica Neue" font-size="16" fill="black" x="42.742894" y="70">Macro</tspan>
          <tspan font-family="Helvetica Neue" font-size="16" fill="black" x="12.070894" y="88.448">Transformation</tspan>
        </text>
      </g>
    </g>
  </g>
</svg>
